include "include/hUGE.inc"

SECTION "xCaveMusic", ROMX

xCaveMusic::
db 4
dw order_cnt
dw order1, order2, order3, order4
dw duty_instruments, wave_instruments, noise_instruments
dw routines
dw waves

order_cnt: db 38
order1: dw P25,P29,P33,P37,P33,P37,P72,P55,P60,P55,P64,P76,P80,P71,P89,P94,P98,P94,P106
order2: dw P26,P30,P34,P38,P34,P38,P73,P56,P61,P70,P65,P56,P61,P70,P65,P95,P99,P95,P107
order3: dw P27,P31,P35,P39,P35,P54,P74,P57,P62,P57,P69,P57,P62,P57,P66,P96,P100,P96,P108
order4: dw P28,P32,P14,P36,P36,P40,P75,P58,P63,P58,P68,P58,P63,P58,P67,P58,P68,P58,P67

P14:
 dn A#6,3,$F04
 dn ___,0,$000
 dn ___,0,$000
 dn ___,0,$000
 dn ___,0,$000
 dn ___,0,$000
 dn ___,0,$000
 dn ___,0,$000
 dn ___,0,$000
 dn ___,0,$000
 dn ___,0,$000
 dn ___,0,$000
 dn ___,0,$000
 dn ___,0,$000
 dn ___,0,$000
 dn ___,0,$000
 dn ___,0,$000
 dn ___,0,$000
 dn ___,0,$000
 dn ___,0,$000
 dn ___,0,$000
 dn ___,0,$000
 dn ___,0,$000
 dn ___,0,$000
 dn ___,0,$000
 dn ___,0,$000
 dn ___,0,$000
 dn ___,0,$000
 dn ___,0,$000
 dn ___,0,$000
 dn ___,0,$000
 dn ___,0,$000
 dn ___,0,$000
 dn ___,0,$000
 dn ___,0,$000
 dn ___,0,$000
 dn ___,0,$000
 dn ___,0,$000
 dn ___,0,$000
 dn ___,0,$D01
 dn ___,0,$000
 dn ___,0,$000
 dn ___,0,$000
 dn ___,0,$000
 dn ___,0,$000
 dn ___,0,$000
 dn ___,0,$000
 dn ___,0,$000
 dn ___,0,$000
 dn ___,0,$000
 dn ___,0,$000
 dn ___,0,$000
 dn ___,0,$000
 dn ___,0,$000
 dn ___,0,$000
 dn ___,0,$000
 dn ___,0,$000
 dn ___,0,$000
 dn ___,0,$000
 dn ___,0,$000
 dn ___,0,$000
 dn ___,0,$000
 dn ___,0,$000
 dn ___,0,$000

P25:
 dn A_3,5,$000
 dn ___,0,$000
 dn ___,0,$000
 dn ___,0,$000
 dn ___,0,$000
 dn ___,0,$000
 dn ___,0,$000
 dn ___,0,$000
 dn ___,0,$000
 dn ___,0,$000
 dn ___,0,$000
 dn ___,0,$000
 dn ___,0,$000
 dn ___,0,$000
 dn ___,0,$000
 dn ___,0,$000
 dn ___,0,$000
 dn ___,0,$000
 dn ___,0,$000
 dn ___,0,$000
 dn ___,0,$000
 dn ___,0,$000
 dn ___,0,$000
 dn ___,0,$000
 dn B_3,5,$000
 dn ___,0,$000
 dn ___,0,$000
 dn ___,0,$000
 dn ___,0,$000
 dn ___,0,$000
 dn ___,0,$000
 dn ___,0,$000
 dn ___,0,$000
 dn ___,0,$000
 dn ___,0,$000
 dn ___,0,$000
 dn ___,0,$000
 dn ___,0,$000
 dn ___,0,$000
 dn ___,0,$000
 dn ___,0,$000
 dn ___,0,$000
 dn ___,0,$000
 dn ___,0,$000
 dn ___,0,$000
 dn ___,0,$000
 dn ___,0,$000
 dn ___,0,$000
 dn ___,0,$000
 dn ___,0,$000
 dn ___,0,$000
 dn ___,0,$000
 dn ___,0,$000
 dn ___,0,$000
 dn ___,0,$000
 dn ___,0,$000
 dn ___,0,$000
 dn ___,0,$000
 dn ___,0,$000
 dn ___,0,$000
 dn ___,0,$000
 dn ___,0,$000
 dn ___,0,$000
 dn ___,0,$000

P26:
 dn E_4,5,$000
 dn ___,0,$000
 dn ___,0,$000
 dn ___,0,$000
 dn ___,0,$000
 dn ___,0,$000
 dn ___,0,$000
 dn ___,0,$000
 dn ___,0,$000
 dn ___,0,$000
 dn ___,0,$000
 dn ___,0,$000
 dn ___,0,$000
 dn ___,0,$000
 dn ___,0,$000
 dn ___,0,$000
 dn ___,0,$000
 dn ___,0,$000
 dn ___,0,$000
 dn ___,0,$000
 dn ___,0,$000
 dn ___,0,$000
 dn ___,0,$000
 dn ___,0,$000
 dn E_4,5,$000
 dn ___,0,$000
 dn ___,0,$000
 dn ___,0,$000
 dn ___,0,$000
 dn ___,0,$000
 dn ___,0,$000
 dn ___,0,$000
 dn ___,0,$000
 dn ___,0,$000
 dn ___,0,$000
 dn ___,0,$000
 dn ___,0,$000
 dn ___,0,$000
 dn ___,0,$000
 dn ___,0,$000
 dn ___,0,$000
 dn ___,0,$000
 dn ___,0,$000
 dn ___,0,$000
 dn ___,0,$000
 dn ___,0,$000
 dn ___,0,$000
 dn ___,0,$000
 dn ___,0,$000
 dn ___,0,$000
 dn ___,0,$000
 dn ___,0,$000
 dn ___,0,$000
 dn ___,0,$000
 dn ___,0,$000
 dn ___,0,$000
 dn ___,0,$000
 dn ___,0,$000
 dn ___,0,$000
 dn ___,0,$000
 dn ___,0,$000
 dn ___,0,$000
 dn ___,0,$000
 dn ___,0,$000

P27:
 dn A_3,1,$000
 dn ___,0,$000
 dn E_4,1,$000
 dn ___,0,$C00
 dn E_4,1,$000
 dn ___,0,$000
 dn A_4,1,$000
 dn ___,0,$000
 dn E_4,1,$000
 dn ___,0,$C00
 dn E_4,1,$000
 dn ___,0,$000
 dn A_3,1,$000
 dn ___,0,$000
 dn E_4,1,$000
 dn ___,0,$C00
 dn E_4,1,$000
 dn ___,0,$000
 dn A_4,1,$000
 dn ___,0,$000
 dn E_4,1,$000
 dn ___,0,$C00
 dn E_4,1,$000
 dn ___,0,$000
 dn B_3,1,$000
 dn ___,0,$000
 dn E_4,1,$000
 dn ___,0,$C00
 dn E_4,1,$000
 dn ___,0,$000
 dn B_4,1,$000
 dn ___,0,$000
 dn E_4,1,$000
 dn ___,0,$C00
 dn E_4,1,$000
 dn ___,0,$000
 dn B_3,1,$000
 dn ___,0,$000
 dn E_4,1,$000
 dn ___,0,$C00
 dn E_4,1,$000
 dn ___,0,$000
 dn B_4,1,$000
 dn ___,0,$000
 dn E_4,1,$000
 dn ___,0,$C00
 dn E_4,1,$000
 dn ___,0,$000
 dn ___,0,$000
 dn ___,0,$000
 dn ___,0,$000
 dn ___,0,$000
 dn ___,0,$000
 dn ___,0,$000
 dn ___,0,$000
 dn ___,0,$000
 dn ___,0,$000
 dn ___,0,$000
 dn ___,0,$000
 dn ___,0,$000
 dn ___,0,$000
 dn ___,0,$000
 dn ___,0,$000
 dn ___,0,$000

P28:
 dn G_6,1,$F04
 dn ___,0,$000
 dn A#6,4,$000
 dn ___,0,$000
 dn A#6,4,$000
 dn ___,0,$000
 dn A#6,3,$000
 dn ___,0,$000
 dn A#6,4,$000
 dn ___,0,$000
 dn A#6,4,$000
 dn ___,0,$000
 dn G_6,1,$000
 dn ___,0,$000
 dn A#6,4,$000
 dn ___,0,$000
 dn A#6,4,$000
 dn ___,0,$000
 dn A#6,3,$000
 dn ___,0,$000
 dn A#6,4,$000
 dn ___,0,$000
 dn A#6,4,$000
 dn ___,0,$000
 dn G_6,1,$000
 dn ___,0,$000
 dn A#6,4,$000
 dn ___,0,$000
 dn A#6,4,$000
 dn ___,0,$000
 dn A#6,3,$000
 dn ___,0,$000
 dn A#6,4,$000
 dn ___,0,$000
 dn A#6,4,$000
 dn ___,0,$000
 dn G_6,1,$000
 dn ___,0,$000
 dn A#6,4,$000
 dn ___,0,$000
 dn A#6,4,$000
 dn ___,0,$000
 dn A#6,3,$000
 dn ___,0,$000
 dn A#6,4,$000
 dn ___,0,$000
 dn A#6,4,$000
 dn ___,0,$D01
 dn ___,0,$000
 dn ___,0,$000
 dn ___,0,$000
 dn ___,0,$000
 dn ___,0,$000
 dn ___,0,$000
 dn ___,0,$000
 dn ___,0,$000
 dn ___,0,$000
 dn ___,0,$000
 dn ___,0,$000
 dn ___,0,$000
 dn ___,0,$000
 dn ___,0,$000
 dn ___,0,$000
 dn ___,0,$000

P29:
 dn C_4,5,$000
 dn ___,0,$000
 dn ___,0,$000
 dn ___,0,$000
 dn ___,0,$000
 dn ___,0,$000
 dn ___,0,$000
 dn ___,0,$000
 dn ___,0,$000
 dn ___,0,$000
 dn ___,0,$000
 dn ___,0,$000
 dn ___,0,$000
 dn ___,0,$000
 dn ___,0,$000
 dn ___,0,$000
 dn ___,0,$000
 dn ___,0,$000
 dn ___,0,$000
 dn ___,0,$000
 dn ___,0,$000
 dn ___,0,$000
 dn ___,0,$000
 dn ___,0,$000
 dn D_4,5,$000
 dn ___,0,$000
 dn ___,0,$000
 dn ___,0,$000
 dn ___,0,$000
 dn ___,0,$000
 dn ___,0,$000
 dn ___,0,$000
 dn ___,0,$000
 dn ___,0,$000
 dn ___,0,$000
 dn ___,0,$000
 dn D_5,5,$000
 dn ___,0,$000
 dn ___,0,$000
 dn ___,0,$000
 dn ___,0,$206
 dn ___,0,$206
 dn ___,0,$206
 dn ___,0,$206
 dn ___,0,$206
 dn ___,0,$206
 dn ___,0,$206
 dn ___,0,$206
 dn ___,0,$000
 dn ___,0,$000
 dn ___,0,$000
 dn ___,0,$000
 dn ___,0,$000
 dn ___,0,$000
 dn ___,0,$000
 dn ___,0,$000
 dn ___,0,$000
 dn ___,0,$000
 dn ___,0,$000
 dn ___,0,$000
 dn ___,0,$000
 dn ___,0,$000
 dn ___,0,$000
 dn ___,0,$000

P30:
 dn E_4,5,$000
 dn ___,0,$000
 dn ___,0,$000
 dn ___,0,$000
 dn ___,0,$000
 dn ___,0,$000
 dn ___,0,$000
 dn ___,0,$000
 dn ___,0,$000
 dn ___,0,$000
 dn ___,0,$000
 dn ___,0,$000
 dn ___,0,$000
 dn ___,0,$000
 dn ___,0,$000
 dn ___,0,$000
 dn ___,0,$000
 dn ___,0,$000
 dn ___,0,$000
 dn ___,0,$000
 dn ___,0,$000
 dn ___,0,$000
 dn ___,0,$000
 dn ___,0,$000
 dn E_4,5,$000
 dn ___,0,$000
 dn ___,0,$000
 dn ___,0,$000
 dn ___,0,$000
 dn ___,0,$000
 dn ___,0,$000
 dn ___,0,$000
 dn ___,0,$000
 dn ___,0,$000
 dn ___,0,$000
 dn ___,0,$000
 dn A_5,5,$000
 dn ___,0,$000
 dn ___,0,$000
 dn ___,0,$000
 dn ___,0,$206
 dn ___,0,$206
 dn ___,0,$206
 dn ___,0,$206
 dn ___,0,$206
 dn ___,0,$206
 dn ___,0,$206
 dn ___,0,$206
 dn ___,0,$000
 dn ___,0,$000
 dn ___,0,$000
 dn ___,0,$000
 dn ___,0,$000
 dn ___,0,$000
 dn ___,0,$000
 dn ___,0,$000
 dn ___,0,$000
 dn ___,0,$000
 dn ___,0,$000
 dn ___,0,$000
 dn ___,0,$000
 dn ___,0,$000
 dn ___,0,$000
 dn ___,0,$000

P31:
 dn C_4,1,$000
 dn ___,0,$000
 dn E_4,1,$000
 dn ___,0,$C00
 dn E_4,1,$000
 dn ___,0,$000
 dn C_5,1,$000
 dn ___,0,$000
 dn E_4,1,$000
 dn ___,0,$C00
 dn E_4,1,$000
 dn ___,0,$000
 dn C_4,1,$000
 dn ___,0,$000
 dn E_4,1,$000
 dn ___,0,$C00
 dn E_4,1,$000
 dn ___,0,$000
 dn C_5,1,$000
 dn ___,0,$000
 dn E_4,1,$000
 dn ___,0,$C00
 dn E_4,1,$000
 dn ___,0,$000
 dn D_4,1,$000
 dn ___,0,$000
 dn E_4,1,$000
 dn ___,0,$C00
 dn G_4,1,$000
 dn ___,0,$000
 dn D_5,1,$000
 dn ___,0,$000
 dn E_4,1,$000
 dn ___,0,$C00
 dn G_4,1,$000
 dn ___,0,$000
 dn D_4,1,$000
 dn ___,0,$000
 dn E_4,1,$000
 dn ___,0,$C00
 dn G_4,1,$000
 dn ___,0,$000
 dn D_5,1,$000
 dn ___,0,$000
 dn E_4,1,$000
 dn ___,0,$C00
 dn G_4,1,$000
 dn ___,0,$000
 dn ___,0,$000
 dn ___,0,$000
 dn ___,0,$000
 dn ___,0,$000
 dn ___,0,$000
 dn ___,0,$000
 dn ___,0,$000
 dn ___,0,$000
 dn ___,0,$000
 dn ___,0,$000
 dn ___,0,$000
 dn ___,0,$000
 dn ___,0,$000
 dn ___,0,$000
 dn ___,0,$000
 dn ___,0,$000

P32:
 dn G_6,1,$000
 dn ___,0,$000
 dn A#6,4,$000
 dn ___,0,$000
 dn A#6,4,$000
 dn ___,0,$000
 dn A#6,3,$000
 dn ___,0,$000
 dn A#6,4,$000
 dn ___,0,$000
 dn A#6,4,$000
 dn ___,0,$000
 dn G_6,1,$000
 dn ___,0,$000
 dn A#6,4,$000
 dn ___,0,$000
 dn A#6,4,$000
 dn ___,0,$000
 dn A#6,3,$000
 dn ___,0,$000
 dn A#6,4,$000
 dn ___,0,$000
 dn A#6,4,$000
 dn ___,0,$000
 dn G_6,1,$000
 dn ___,0,$000
 dn A#6,4,$000
 dn ___,0,$000
 dn A#6,4,$000
 dn ___,0,$000
 dn A#6,3,$000
 dn ___,0,$000
 dn A#6,4,$000
 dn ___,0,$000
 dn A#6,4,$000
 dn ___,0,$000
 dn A#6,3,$000
 dn ___,0,$000
 dn A#6,3,$000
 dn ___,0,$000
 dn A#6,3,$000
 dn ___,0,$000
 dn A#6,3,$000
 dn ___,0,$000
 dn A#6,3,$000
 dn ___,0,$000
 dn A#6,3,$000
 dn ___,0,$D01
 dn ___,0,$000
 dn ___,0,$000
 dn ___,0,$000
 dn ___,0,$000
 dn ___,0,$000
 dn ___,0,$000
 dn ___,0,$000
 dn ___,0,$000
 dn ___,0,$000
 dn ___,0,$000
 dn ___,0,$000
 dn ___,0,$000
 dn ___,0,$000
 dn ___,0,$000
 dn ___,0,$000
 dn ___,0,$000

P33:
 dn A_4,6,$000
 dn ___,0,$000
 dn E_5,6,$000
 dn ___,0,$000
 dn A_5,6,$000
 dn ___,0,$000
 dn A_4,6,$000
 dn ___,0,$000
 dn E_5,6,$000
 dn ___,0,$000
 dn A_4,6,$000
 dn ___,0,$000
 dn E_5,6,$000
 dn ___,0,$000
 dn G_5,6,$000
 dn ___,0,$000
 dn A_4,6,$000
 dn ___,0,$000
 dn E_5,6,$000
 dn ___,0,$000
 dn E_4,6,$000
 dn ___,0,$000
 dn E_5,6,$000
 dn ___,0,$000
 dn G_5,6,$000
 dn ___,0,$000
 dn E_4,6,$000
 dn ___,0,$000
 dn E_5,6,$000
 dn ___,0,$000
 dn D_4,6,$000
 dn ___,0,$000
 dn E_5,6,$000
 dn ___,0,$000
 dn G_5,6,$000
 dn ___,0,$000
 dn D_4,6,$000
 dn ___,0,$000
 dn E_5,6,$000
 dn ___,0,$000
 dn ___,0,$000
 dn ___,0,$000
 dn ___,0,$000
 dn ___,0,$000
 dn ___,0,$000
 dn ___,0,$000
 dn ___,0,$000
 dn ___,0,$000
 dn ___,0,$000
 dn ___,0,$000
 dn ___,0,$000
 dn ___,0,$000
 dn ___,0,$000
 dn ___,0,$000
 dn ___,0,$000
 dn ___,0,$000
 dn ___,0,$000
 dn ___,0,$000
 dn ___,0,$000
 dn ___,0,$000
 dn ___,0,$000
 dn ___,0,$000
 dn ___,0,$000
 dn ___,0,$000

P34:
 dn ___,0,$E00
 dn ___,0,$000
 dn A_5,6,$000
 dn ___,0,$000
 dn C_6,6,$000
 dn ___,0,$000
 dn ___,0,$000
 dn ___,0,$000
 dn G_5,6,$000
 dn ___,0,$000
 dn ___,0,$000
 dn ___,0,$000
 dn A_5,6,$000
 dn ___,0,$000
 dn B_5,6,$000
 dn ___,0,$000
 dn ___,0,$000
 dn ___,0,$000
 dn G_5,6,$000
 dn ___,0,$000
 dn ___,0,$000
 dn ___,0,$000
 dn A_5,6,$000
 dn ___,0,$000
 dn B_5,6,$000
 dn ___,0,$000
 dn ___,0,$000
 dn ___,0,$000
 dn G_5,6,$000
 dn ___,0,$000
 dn ___,0,$000
 dn ___,0,$000
 dn A_5,6,$000
 dn ___,0,$000
 dn C_6,6,$000
 dn ___,0,$000
 dn ___,0,$000
 dn ___,0,$000
 dn G_5,6,$000
 dn ___,0,$000
 dn ___,0,$000
 dn ___,0,$000
 dn ___,0,$000
 dn ___,0,$000
 dn ___,0,$000
 dn ___,0,$000
 dn ___,0,$000
 dn ___,0,$000
 dn ___,0,$000
 dn ___,0,$000
 dn ___,0,$000
 dn ___,0,$000
 dn ___,0,$000
 dn ___,0,$000
 dn ___,0,$000
 dn ___,0,$000
 dn ___,0,$000
 dn ___,0,$000
 dn ___,0,$000
 dn ___,0,$000
 dn ___,0,$000
 dn ___,0,$000
 dn ___,0,$000
 dn ___,0,$000

P35:
 dn C_7,7,$000
 dn ___,0,$000
 dn ___,0,$000
 dn ___,0,$000
 dn ___,0,$000
 dn ___,0,$000
 dn ___,0,$000
 dn ___,0,$000
 dn ___,0,$000
 dn ___,0,$000
 dn G_7,7,$000
 dn ___,0,$000
 dn ___,0,$000
 dn ___,0,$000
 dn ___,0,$000
 dn ___,0,$000
 dn ___,0,$000
 dn ___,0,$000
 dn ___,0,$000
 dn ___,0,$000
 dn E_7,7,$000
 dn ___,0,$000
 dn ___,0,$000
 dn ___,0,$000
 dn ___,0,$000
 dn ___,0,$000
 dn ___,0,$000
 dn ___,0,$000
 dn ___,0,$000
 dn ___,0,$000
 dn B_6,7,$000
 dn ___,0,$000
 dn ___,0,$000
 dn ___,0,$000
 dn ___,0,$000
 dn ___,0,$000
 dn ___,0,$000
 dn ___,0,$000
 dn ___,0,$000
 dn ___,0,$000
 dn ___,0,$000
 dn ___,0,$000
 dn ___,0,$000
 dn ___,0,$000
 dn ___,0,$000
 dn ___,0,$000
 dn ___,0,$000
 dn ___,0,$000
 dn ___,0,$000
 dn ___,0,$000
 dn ___,0,$000
 dn ___,0,$000
 dn ___,0,$000
 dn ___,0,$000
 dn ___,0,$000
 dn ___,0,$000
 dn ___,0,$000
 dn ___,0,$000
 dn ___,0,$000
 dn ___,0,$000
 dn ___,0,$000
 dn ___,0,$000
 dn ___,0,$000
 dn ___,0,$000

P36:
 dn ___,0,$000
 dn ___,0,$000
 dn ___,0,$000
 dn ___,0,$000
 dn ___,0,$000
 dn ___,0,$000
 dn ___,0,$000
 dn ___,0,$000
 dn ___,0,$000
 dn ___,0,$000
 dn ___,0,$000
 dn ___,0,$000
 dn ___,0,$000
 dn ___,0,$000
 dn ___,0,$000
 dn ___,0,$000
 dn ___,0,$000
 dn ___,0,$000
 dn ___,0,$000
 dn ___,0,$000
 dn ___,0,$000
 dn ___,0,$000
 dn ___,0,$000
 dn ___,0,$000
 dn ___,0,$000
 dn ___,0,$000
 dn ___,0,$000
 dn ___,0,$000
 dn ___,0,$000
 dn ___,0,$000
 dn ___,0,$000
 dn ___,0,$000
 dn ___,0,$000
 dn ___,0,$000
 dn ___,0,$000
 dn ___,0,$000
 dn ___,0,$000
 dn ___,0,$000
 dn ___,0,$000
 dn ___,0,$D01
 dn ___,0,$000
 dn ___,0,$000
 dn ___,0,$000
 dn ___,0,$000
 dn ___,0,$000
 dn ___,0,$000
 dn ___,0,$000
 dn ___,0,$000
 dn ___,0,$000
 dn ___,0,$000
 dn ___,0,$000
 dn ___,0,$000
 dn ___,0,$000
 dn ___,0,$000
 dn ___,0,$000
 dn ___,0,$000
 dn ___,0,$000
 dn ___,0,$000
 dn ___,0,$000
 dn ___,0,$000
 dn ___,0,$000
 dn ___,0,$000
 dn ___,0,$000
 dn ___,0,$000

P37:
 dn A_4,6,$000
 dn ___,0,$000
 dn E_5,6,$000
 dn ___,0,$000
 dn A_5,6,$000
 dn ___,0,$000
 dn A_4,6,$000
 dn ___,0,$000
 dn E_5,6,$000
 dn ___,0,$000
 dn B_4,6,$000
 dn ___,0,$000
 dn E_5,6,$000
 dn ___,0,$000
 dn A_5,6,$000
 dn ___,0,$000
 dn B_4,6,$000
 dn ___,0,$000
 dn E_5,6,$000
 dn ___,0,$000
 dn C_5,6,$000
 dn ___,0,$000
 dn E_5,6,$000
 dn ___,0,$000
 dn A_5,6,$000
 dn ___,0,$000
 dn C_5,6,$000
 dn ___,0,$000
 dn E_5,6,$000
 dn ___,0,$000
 dn B_4,6,$000
 dn ___,0,$000
 dn E_5,6,$000
 dn ___,0,$000
 dn A_5,6,$000
 dn ___,0,$000
 dn B_4,6,$000
 dn ___,0,$000
 dn E_5,6,$000
 dn ___,0,$000
 dn ___,0,$000
 dn ___,0,$000
 dn ___,0,$000
 dn ___,0,$000
 dn ___,0,$000
 dn ___,0,$000
 dn ___,0,$000
 dn ___,0,$000
 dn ___,0,$000
 dn ___,0,$000
 dn ___,0,$000
 dn ___,0,$000
 dn ___,0,$000
 dn ___,0,$000
 dn ___,0,$000
 dn ___,0,$000
 dn ___,0,$000
 dn ___,0,$000
 dn ___,0,$000
 dn ___,0,$000
 dn ___,0,$000
 dn ___,0,$000
 dn ___,0,$000
 dn ___,0,$000

P38:
 dn ___,0,$000
 dn ___,0,$000
 dn A_5,6,$000
 dn ___,0,$000
 dn C_6,6,$000
 dn ___,0,$000
 dn ___,0,$000
 dn ___,0,$000
 dn G_5,6,$000
 dn ___,0,$000
 dn ___,0,$000
 dn ___,0,$000
 dn A_5,6,$000
 dn ___,0,$000
 dn B_5,6,$000
 dn ___,0,$000
 dn ___,0,$000
 dn ___,0,$000
 dn G_5,6,$000
 dn ___,0,$000
 dn ___,0,$000
 dn ___,0,$000
 dn A_5,6,$000
 dn ___,0,$000
 dn C_6,6,$000
 dn ___,0,$000
 dn ___,0,$000
 dn ___,0,$000
 dn G_5,6,$000
 dn ___,0,$000
 dn ___,0,$000
 dn ___,0,$000
 dn A_5,6,$000
 dn ___,0,$000
 dn D_6,6,$000
 dn ___,0,$000
 dn ___,0,$000
 dn ___,0,$000
 dn G_5,6,$000
 dn ___,0,$000
 dn ___,0,$000
 dn ___,0,$000
 dn ___,0,$000
 dn ___,0,$000
 dn ___,0,$000
 dn ___,0,$000
 dn ___,0,$000
 dn ___,0,$000
 dn ___,0,$000
 dn ___,0,$000
 dn ___,0,$000
 dn ___,0,$000
 dn ___,0,$000
 dn ___,0,$000
 dn ___,0,$000
 dn ___,0,$000
 dn ___,0,$000
 dn ___,0,$000
 dn ___,0,$000
 dn ___,0,$000
 dn ___,0,$000
 dn ___,0,$000
 dn ___,0,$000
 dn ___,0,$000

P39:
 dn D_7,7,$000
 dn ___,0,$000
 dn ___,0,$000
 dn ___,0,$000
 dn ___,0,$000
 dn ___,0,$000
 dn ___,0,$000
 dn ___,0,$000
 dn ___,0,$000
 dn ___,0,$000
 dn G_7,7,$000
 dn ___,0,$000
 dn ___,0,$000
 dn ___,0,$000
 dn ___,0,$000
 dn ___,0,$000
 dn ___,0,$000
 dn ___,0,$000
 dn ___,0,$000
 dn ___,0,$000
 dn E_7,7,$000
 dn ___,0,$000
 dn ___,0,$000
 dn ___,0,$000
 dn ___,0,$000
 dn ___,0,$000
 dn ___,0,$000
 dn ___,0,$000
 dn ___,0,$000
 dn ___,0,$000
 dn D_7,7,$000
 dn ___,0,$000
 dn ___,0,$000
 dn ___,0,$000
 dn ___,0,$000
 dn ___,0,$000
 dn ___,0,$000
 dn ___,0,$000
 dn ___,0,$000
 dn ___,0,$000
 dn ___,0,$000
 dn ___,0,$000
 dn ___,0,$000
 dn ___,0,$000
 dn ___,0,$000
 dn ___,0,$000
 dn ___,0,$000
 dn ___,0,$000
 dn ___,0,$000
 dn ___,0,$000
 dn ___,0,$000
 dn ___,0,$000
 dn ___,0,$000
 dn ___,0,$000
 dn ___,0,$000
 dn ___,0,$000
 dn ___,0,$000
 dn ___,0,$000
 dn ___,0,$000
 dn ___,0,$000
 dn ___,0,$000
 dn ___,0,$000
 dn ___,0,$000
 dn ___,0,$000

P40:
 dn G_6,1,$000
 dn ___,0,$000
 dn ___,0,$000
 dn ___,0,$000
 dn ___,0,$000
 dn ___,0,$000
 dn ___,0,$000
 dn ___,0,$000
 dn ___,0,$000
 dn ___,0,$000
 dn G_6,1,$000
 dn ___,0,$000
 dn ___,0,$000
 dn ___,0,$000
 dn ___,0,$000
 dn ___,0,$000
 dn ___,0,$000
 dn ___,0,$000
 dn ___,0,$000
 dn ___,0,$000
 dn G_6,1,$000
 dn ___,0,$000
 dn ___,0,$000
 dn ___,0,$000
 dn ___,0,$000
 dn ___,0,$000
 dn ___,0,$000
 dn ___,0,$000
 dn G_6,1,$000
 dn ___,0,$000
 dn A#6,4,$000
 dn ___,0,$000
 dn A#6,4,$000
 dn ___,0,$000
 dn A#6,4,$000
 dn ___,0,$000
 dn A#6,4,$000
 dn ___,0,$000
 dn A#6,4,$000
 dn ___,0,$D01
 dn ___,0,$000
 dn ___,0,$000
 dn ___,0,$000
 dn ___,0,$000
 dn ___,0,$000
 dn ___,0,$000
 dn ___,0,$000
 dn ___,0,$000
 dn ___,0,$000
 dn ___,0,$000
 dn ___,0,$000
 dn ___,0,$000
 dn ___,0,$000
 dn ___,0,$000
 dn ___,0,$000
 dn ___,0,$000
 dn ___,0,$000
 dn ___,0,$000
 dn ___,0,$000
 dn ___,0,$000
 dn ___,0,$000
 dn ___,0,$000
 dn ___,0,$000
 dn ___,0,$000

P54:
 dn D_7,7,$000
 dn ___,0,$000
 dn ___,0,$000
 dn ___,0,$000
 dn ___,0,$000
 dn ___,0,$000
 dn ___,0,$000
 dn ___,0,$000
 dn ___,0,$000
 dn ___,0,$000
 dn G_7,7,$000
 dn ___,0,$000
 dn ___,0,$000
 dn ___,0,$000
 dn ___,0,$000
 dn ___,0,$000
 dn ___,0,$000
 dn ___,0,$000
 dn ___,0,$000
 dn ___,0,$000
 dn A_7,7,$000
 dn ___,0,$000
 dn ___,0,$000
 dn ___,0,$000
 dn ___,0,$000
 dn ___,0,$000
 dn ___,0,$000
 dn ___,0,$000
 dn ___,0,$000
 dn ___,0,$000
 dn D_8,7,$000
 dn ___,0,$000
 dn ___,0,$000
 dn ___,0,$000
 dn ___,0,$000
 dn ___,0,$000
 dn ___,0,$000
 dn ___,0,$000
 dn ___,0,$000
 dn ___,0,$000
 dn ___,0,$000
 dn ___,0,$000
 dn ___,0,$000
 dn ___,0,$000
 dn ___,0,$000
 dn ___,0,$000
 dn ___,0,$000
 dn ___,0,$000
 dn ___,0,$000
 dn ___,0,$000
 dn ___,0,$000
 dn ___,0,$000
 dn ___,0,$000
 dn ___,0,$000
 dn ___,0,$000
 dn ___,0,$000
 dn ___,0,$000
 dn ___,0,$000
 dn ___,0,$000
 dn ___,0,$000
 dn ___,0,$000
 dn ___,0,$000
 dn ___,0,$000
 dn ___,0,$000

P55:
 dn C_6,2,$000
 dn ___,0,$000
 dn E_6,4,$000
 dn ___,0,$000
 dn E_6,2,$000
 dn ___,0,$000
 dn C_6,4,$000
 dn ___,0,$000
 dn G_6,2,$000
 dn ___,0,$000
 dn E_6,4,$000
 dn ___,0,$000
 dn C_7,2,$000
 dn ___,0,$000
 dn G_6,4,$000
 dn ___,0,$000
 dn G_6,2,$000
 dn ___,0,$000
 dn C_7,4,$000
 dn ___,0,$000
 dn E_6,2,$000
 dn ___,0,$000
 dn G_6,4,$000
 dn ___,0,$000
 dn C_6,2,$000
 dn ___,0,$000
 dn E_6,4,$000
 dn ___,0,$000
 dn E_6,2,$000
 dn ___,0,$000
 dn C_6,4,$000
 dn ___,0,$000
 dn B_5,2,$000
 dn ___,0,$000
 dn E_6,4,$000
 dn ___,0,$000
 dn E_6,2,$000
 dn ___,0,$000
 dn B_5,4,$000
 dn ___,0,$000
 dn G_6,2,$000
 dn ___,0,$000
 dn E_6,4,$000
 dn ___,0,$000
 dn B_6,2,$000
 dn ___,0,$000
 dn G_6,4,$000
 dn ___,0,$000
 dn G_6,2,$000
 dn ___,0,$000
 dn B_6,4,$000
 dn ___,0,$000
 dn E_6,2,$000
 dn ___,0,$000
 dn G_6,4,$000
 dn ___,0,$000
 dn B_5,2,$000
 dn ___,0,$000
 dn E_6,4,$000
 dn ___,0,$000
 dn E_6,2,$000
 dn ___,0,$000
 dn B_5,4,$000
 dn ___,0,$000

P56:
 dn C_6,5,$000
 dn ___,0,$000
 dn ___,0,$000
 dn ___,0,$000
 dn G_6,5,$305
 dn ___,0,$308
 dn ___,0,$30F
 dn ___,0,$318
 dn ___,0,$433
 dn ___,0,$433
 dn ___,0,$433
 dn ___,0,$433
 dn E_6,5,$000
 dn ___,0,$000
 dn ___,0,$000
 dn ___,0,$000
 dn ___,0,$000
 dn ___,0,$000
 dn ___,0,$000
 dn ___,0,$000
 dn ___,0,$433
 dn ___,0,$433
 dn ___,0,$433
 dn ___,0,$433
 dn C_6,5,$000
 dn ___,0,$000
 dn ___,0,$000
 dn ___,0,$000
 dn ___,0,$207
 dn ___,0,$208
 dn ___,0,$20D
 dn ___,0,$211
 dn B_5,5,$000
 dn ___,0,$000
 dn ___,0,$000
 dn ___,0,$000
 dn ___,0,$000
 dn ___,0,$000
 dn G_6,5,$305
 dn ___,0,$308
 dn ___,0,$30F
 dn ___,0,$318
 dn ___,0,$433
 dn ___,0,$433
 dn E_6,5,$000
 dn ___,0,$000
 dn ___,0,$000
 dn ___,0,$000
 dn ___,0,$000
 dn ___,0,$000
 dn ___,0,$000
 dn ___,0,$000
 dn ___,0,$207
 dn ___,0,$208
 dn ___,0,$20D
 dn ___,0,$211
 dn D_6,5,$000
 dn ___,0,$000
 dn ___,0,$000
 dn ___,0,$000
 dn ___,0,$000
 dn ___,0,$000
 dn ___,0,$000
 dn ___,0,$000

P57:
 dn C_4,1,$000
 dn ___,0,$000
 dn ___,0,$C00
 dn ___,0,$000
 dn C_4,1,$000
 dn ___,0,$000
 dn C_6,8,$000
 dn ___,0,$000
 dn E_6,8,$000
 dn ___,0,$000
 dn G_6,8,$000
 dn ___,0,$000
 dn C_4,1,$000
 dn ___,0,$C00
 dn C_4,1,$000
 dn ___,0,$C00
 dn C_4,1,$000
 dn ___,0,$000
 dn C_6,8,$000
 dn ___,0,$000
 dn C_4,1,$000
 dn ___,0,$000
 dn ___,0,$C00
 dn ___,0,$000
 dn E_6,8,$000
 dn ___,0,$000
 dn G_6,8,$000
 dn ___,0,$000
 dn C_4,1,$000
 dn ___,0,$000
 dn ___,0,$C00
 dn ___,0,$000
 dn G_4,1,$000
 dn ___,0,$000
 dn ___,0,$C00
 dn ___,0,$000
 dn G_4,1,$000
 dn ___,0,$000
 dn B_5,8,$000
 dn ___,0,$000
 dn E_6,8,$000
 dn ___,0,$000
 dn G_6,8,$000
 dn ___,0,$000
 dn G_4,1,$000
 dn ___,0,$C00
 dn G_4,1,$000
 dn ___,0,$C00
 dn G_4,1,$000
 dn ___,0,$000
 dn B_5,8,$000
 dn ___,0,$000
 dn E_6,8,$000
 dn ___,0,$000
 dn G_4,1,$000
 dn ___,0,$000
 dn G_6,8,$000
 dn ___,0,$000
 dn ___,0,$C00
 dn ___,0,$000
 dn G_4,1,$000
 dn ___,0,$000
 dn ___,0,$C00
 dn ___,0,$000

P58:
 dn A#6,3,$F03
 dn ___,0,$000
 dn ___,0,$000
 dn ___,0,$000
 dn A#6,4,$000
 dn ___,0,$000
 dn ___,0,$000
 dn ___,0,$000
 dn G_6,1,$000
 dn ___,0,$000
 dn G_6,1,$000
 dn ___,0,$000
 dn A#6,4,$000
 dn ___,0,$000
 dn ___,0,$000
 dn ___,0,$000
 dn G_6,1,$000
 dn ___,0,$000
 dn G_6,1,$000
 dn ___,0,$000
 dn A#6,4,$000
 dn ___,0,$000
 dn ___,0,$000
 dn ___,0,$000
 dn G_6,1,$000
 dn ___,0,$000
 dn G_6,1,$000
 dn ___,0,$000
 dn A#6,4,$000
 dn ___,0,$000
 dn ___,0,$000
 dn ___,0,$000
 dn G_6,1,$000
 dn ___,0,$000
 dn ___,0,$000
 dn ___,0,$000
 dn A#6,4,$000
 dn ___,0,$000
 dn ___,0,$000
 dn ___,0,$000
 dn G_6,1,$000
 dn ___,0,$000
 dn G_6,1,$000
 dn ___,0,$000
 dn A#6,4,$000
 dn ___,0,$000
 dn G_6,1,$000
 dn ___,0,$000
 dn G_6,1,$000
 dn ___,0,$000
 dn ___,0,$000
 dn ___,0,$000
 dn A#6,4,$000
 dn ___,0,$000
 dn ___,0,$000
 dn ___,0,$000
 dn G_6,1,$000
 dn ___,0,$000
 dn G_6,1,$000
 dn ___,0,$000
 dn A#6,4,$000
 dn ___,0,$000
 dn ___,0,$000
 dn ___,0,$000

P60:
 dn A_5,2,$000
 dn ___,0,$000
 dn C_6,4,$000
 dn ___,0,$000
 dn C_6,2,$000
 dn ___,0,$000
 dn A_5,4,$000
 dn ___,0,$000
 dn E_6,2,$000
 dn ___,0,$000
 dn C_6,4,$000
 dn ___,0,$000
 dn A_6,2,$000
 dn ___,0,$000
 dn E_6,4,$000
 dn ___,0,$000
 dn E_6,2,$000
 dn ___,0,$000
 dn A_6,4,$000
 dn ___,0,$000
 dn C_6,2,$000
 dn ___,0,$000
 dn E_6,4,$000
 dn ___,0,$000
 dn A_5,2,$000
 dn ___,0,$000
 dn C_6,4,$000
 dn ___,0,$000
 dn C_6,2,$000
 dn ___,0,$000
 dn A_5,4,$000
 dn ___,0,$000
 dn G_5,2,$000
 dn ___,0,$000
 dn C_6,4,$000
 dn ___,0,$000
 dn B_5,2,$000
 dn ___,0,$000
 dn G_5,4,$000
 dn ___,0,$000
 dn D_6,2,$000
 dn ___,0,$000
 dn B_5,4,$000
 dn ___,0,$000
 dn G_6,2,$000
 dn ___,0,$000
 dn D_6,4,$000
 dn ___,0,$000
 dn D_6,2,$000
 dn ___,0,$000
 dn G_6,4,$000
 dn ___,0,$000
 dn B_5,2,$000
 dn ___,0,$000
 dn D_6,4,$000
 dn ___,0,$000
 dn G_5,2,$000
 dn ___,0,$000
 dn B_5,4,$000
 dn ___,0,$000
 dn B_5,2,$000
 dn ___,0,$000
 dn G_5,4,$000
 dn ___,0,$000

P61:
 dn A_5,5,$000
 dn ___,0,$000
 dn ___,0,$000
 dn ___,0,$000
 dn ___,0,$000
 dn ___,0,$000
 dn E_6,5,$308
 dn ___,0,$30F
 dn ___,0,$318
 dn ___,0,$433
 dn ___,0,$433
 dn ___,0,$433
 dn D_6,5,$000
 dn ___,0,$000
 dn ___,0,$000
 dn ___,0,$000
 dn ___,0,$000
 dn ___,0,$000
 dn ___,0,$000
 dn ___,0,$000
 dn ___,0,$000
 dn ___,0,$000
 dn ___,0,$000
 dn ___,0,$000
 dn ___,0,$433
 dn ___,0,$433
 dn ___,0,$433
 dn ___,0,$433
 dn F_5,5,$000
 dn ___,0,$000
 dn ___,0,$000
 dn ___,0,$000
 dn G_5,5,$304
 dn ___,0,$304
 dn ___,0,$304
 dn ___,0,$304
 dn ___,0,$304
 dn ___,0,$304
 dn ___,0,$304
 dn ___,0,$304
 dn ___,0,$304
 dn ___,0,$304
 dn ___,0,$304
 dn ___,0,$304
 dn ___,0,$304
 dn ___,0,$304
 dn ___,0,$304
 dn ___,0,$304
 dn ___,0,$304
 dn ___,0,$304
 dn ___,0,$304
 dn ___,0,$304
 dn ___,0,$304
 dn ___,0,$304
 dn ___,0,$304
 dn ___,0,$304
 dn ___,0,$304
 dn ___,0,$304
 dn ___,0,$000
 dn ___,0,$000
 dn ___,0,$000
 dn ___,0,$000
 dn ___,0,$000
 dn ___,0,$000

P62:
 dn A_3,1,$000
 dn ___,0,$000
 dn ___,0,$C00
 dn ___,0,$000
 dn A_3,1,$000
 dn ___,0,$000
 dn A_5,8,$000
 dn ___,0,$000
 dn C_6,8,$000
 dn ___,0,$000
 dn E_6,8,$000
 dn ___,0,$000
 dn A_3,1,$000
 dn ___,0,$C00
 dn A_3,1,$000
 dn ___,0,$C00
 dn A_3,1,$000
 dn ___,0,$000
 dn ___,0,$C00
 dn ___,0,$000
 dn A_5,8,$000
 dn ___,0,$000
 dn A_3,1,$000
 dn ___,0,$000
 dn C_6,8,$000
 dn ___,0,$000
 dn E_6,8,$000
 dn ___,0,$000
 dn A_3,1,$000
 dn ___,0,$000
 dn ___,0,$C00
 dn ___,0,$000
 dn G_3,1,$000
 dn ___,0,$000
 dn ___,0,$C00
 dn ___,0,$000
 dn ___,0,$000
 dn ___,0,$000
 dn G_3,1,$000
 dn ___,0,$000
 dn G_5,8,$000
 dn ___,0,$000
 dn B_5,8,$000
 dn ___,0,$000
 dn G_3,1,$000
 dn ___,0,$000
 dn D_6,8,$000
 dn ___,0,$000
 dn G_3,1,$000
 dn ___,0,$000
 dn ___,0,$C00
 dn ___,0,$000
 dn B_5,8,$000
 dn ___,0,$000
 dn G_3,1,$000
 dn ___,0,$000
 dn G_5,8,$000
 dn ___,0,$000
 dn ___,0,$000
 dn ___,0,$000
 dn G_3,1,$000
 dn ___,0,$000
 dn D_5,8,$000
 dn ___,0,$000

P63:
 dn G_6,1,$F03
 dn ___,0,$000
 dn ___,0,$000
 dn ___,0,$000
 dn A#6,4,$000
 dn ___,0,$000
 dn ___,0,$000
 dn ___,0,$000
 dn G_6,1,$000
 dn ___,0,$000
 dn G_6,1,$000
 dn ___,0,$000
 dn A#6,4,$000
 dn ___,0,$000
 dn ___,0,$000
 dn ___,0,$000
 dn G_6,1,$000
 dn ___,0,$000
 dn G_6,1,$000
 dn ___,0,$000
 dn A#6,4,$000
 dn ___,0,$000
 dn ___,0,$000
 dn ___,0,$000
 dn G_6,1,$000
 dn ___,0,$000
 dn G_6,1,$000
 dn ___,0,$000
 dn A#6,4,$000
 dn ___,0,$000
 dn ___,0,$000
 dn ___,0,$000
 dn G_6,1,$000
 dn ___,0,$000
 dn ___,0,$000
 dn ___,0,$000
 dn A#6,4,$000
 dn ___,0,$000
 dn ___,0,$000
 dn ___,0,$000
 dn G_6,1,$000
 dn ___,0,$000
 dn G_6,1,$000
 dn ___,0,$000
 dn A#6,4,$000
 dn ___,0,$000
 dn G_6,1,$000
 dn ___,0,$000
 dn G_6,1,$000
 dn ___,0,$000
 dn ___,0,$000
 dn ___,0,$000
 dn A#6,4,$000
 dn ___,0,$000
 dn ___,0,$000
 dn ___,0,$000
 dn G_6,1,$000
 dn ___,0,$000
 dn G_6,1,$000
 dn ___,0,$000
 dn A#6,4,$000
 dn ___,0,$000
 dn ___,0,$000
 dn ___,0,$000

P64:
 dn F_5,2,$000
 dn ___,0,$000
 dn A_5,4,$000
 dn ___,0,$000
 dn A_5,2,$000
 dn ___,0,$000
 dn F_5,4,$000
 dn ___,0,$000
 dn C_6,2,$000
 dn ___,0,$000
 dn A_5,4,$000
 dn ___,0,$000
 dn F_6,2,$000
 dn ___,0,$000
 dn C_6,4,$000
 dn ___,0,$000
 dn C_6,2,$000
 dn ___,0,$000
 dn F_6,4,$000
 dn ___,0,$000
 dn A_5,2,$000
 dn ___,0,$000
 dn C_6,4,$000
 dn ___,0,$000
 dn F_5,2,$000
 dn ___,0,$000
 dn A_5,4,$000
 dn ___,0,$000
 dn A_5,2,$000
 dn ___,0,$000
 dn F_5,4,$000
 dn ___,0,$000
 dn C_3,5,$000
 dn ___,0,$000
 dn ___,0,$000
 dn ___,0,$000
 dn ___,0,$000
 dn ___,0,$000
 dn ___,0,$000
 dn ___,0,$000
 dn ___,0,$000
 dn ___,0,$000
 dn ___,0,$000
 dn ___,0,$000
 dn ___,0,$000
 dn ___,0,$000
 dn ___,0,$000
 dn ___,0,$000
 dn C_5,5,$31B
 dn ___,0,$31B
 dn ___,0,$31B
 dn ___,0,$31B
 dn ___,0,$31B
 dn ___,0,$31B
 dn ___,0,$31B
 dn ___,0,$31B
 dn ___,0,$31B
 dn ___,0,$31B
 dn ___,0,$31B
 dn ___,0,$31B
 dn ___,0,$31B
 dn ___,0,$31B
 dn ___,0,$31B
 dn ___,0,$31B

P65:
 dn A_5,5,$000
 dn ___,0,$000
 dn ___,0,$000
 dn ___,0,$000
 dn E_6,5,$308
 dn ___,0,$30F
 dn ___,0,$318
 dn ___,0,$433
 dn ___,0,$433
 dn ___,0,$433
 dn ___,0,$433
 dn ___,0,$433
 dn D_6,5,$000
 dn ___,0,$000
 dn ___,0,$000
 dn ___,0,$000
 dn ___,0,$000
 dn ___,0,$000
 dn ___,0,$000
 dn ___,0,$000
 dn ___,0,$000
 dn ___,0,$000
 dn ___,0,$000
 dn ___,0,$000
 dn ___,0,$433
 dn ___,0,$433
 dn ___,0,$433
 dn ___,0,$433
 dn C_6,5,$000
 dn ___,0,$000
 dn ___,0,$C1A
 dn ___,0,$000
 dn C_6,5,$000
 dn ___,0,$000
 dn ___,0,$000
 dn ___,0,$000
 dn ___,0,$000
 dn ___,0,$000
 dn ___,0,$000
 dn ___,0,$000
 dn ___,0,$000
 dn ___,0,$000
 dn ___,0,$000
 dn ___,0,$000
 dn ___,0,$000
 dn ___,0,$000
 dn ___,0,$000
 dn ___,0,$000
 dn ___,0,$000
 dn ___,0,$000
 dn ___,0,$000
 dn ___,0,$000
 dn ___,0,$000
 dn ___,0,$000
 dn ___,0,$000
 dn ___,0,$000
 dn ___,0,$000
 dn ___,0,$000
 dn ___,0,$000
 dn ___,0,$000
 dn ___,0,$000
 dn ___,0,$000
 dn ___,0,$000
 dn ___,0,$000

P66:
 dn F_4,1,$000
 dn ___,0,$000
 dn ___,0,$C00
 dn ___,0,$000
 dn F_4,1,$000
 dn ___,0,$000
 dn F_5,8,$000
 dn ___,0,$000
 dn A_5,8,$000
 dn ___,0,$000
 dn C_6,8,$000
 dn ___,0,$000
 dn F_4,1,$000
 dn ___,0,$C00
 dn F_4,1,$000
 dn ___,0,$C00
 dn F_4,1,$000
 dn ___,0,$000
 dn ___,0,$C00
 dn ___,0,$000
 dn F_4,1,$000
 dn ___,0,$000
 dn F_5,8,$000
 dn ___,0,$000
 dn A_5,8,$000
 dn ___,0,$000
 dn C_6,8,$000
 dn ___,0,$000
 dn F_4,1,$000
 dn ___,0,$000
 dn ___,0,$C00
 dn ___,0,$000
 dn F_4,1,$000
 dn ___,0,$000
 dn ___,0,$000
 dn ___,0,$000
 dn ___,0,$000
 dn ___,0,$000
 dn ___,0,$000
 dn ___,0,$000
 dn ___,0,$000
 dn ___,0,$000
 dn ___,0,$000
 dn ___,0,$000
 dn ___,0,$000
 dn ___,0,$000
 dn ___,0,$000
 dn ___,0,$000
 dn E_4,1,$000
 dn ___,0,$000
 dn ___,0,$000
 dn ___,0,$000
 dn ___,0,$000
 dn ___,0,$000
 dn ___,0,$000
 dn ___,0,$000
 dn ___,0,$000
 dn ___,0,$000
 dn ___,0,$000
 dn ___,0,$000
 dn ___,0,$000
 dn ___,0,$000
 dn ___,0,$000
 dn ___,0,$000

P67:
 dn A#6,3,$F03
 dn ___,0,$000
 dn ___,0,$000
 dn ___,0,$000
 dn A#6,4,$000
 dn ___,0,$000
 dn ___,0,$000
 dn ___,0,$000
 dn G_6,1,$000
 dn ___,0,$000
 dn G_6,1,$000
 dn ___,0,$000
 dn A#6,4,$000
 dn ___,0,$000
 dn ___,0,$000
 dn ___,0,$000
 dn G_6,1,$000
 dn ___,0,$000
 dn G_6,1,$000
 dn ___,0,$000
 dn A#6,4,$000
 dn ___,0,$000
 dn ___,0,$000
 dn ___,0,$000
 dn G_6,1,$000
 dn ___,0,$000
 dn G_6,1,$000
 dn ___,0,$000
 dn A#6,4,$000
 dn ___,0,$000
 dn ___,0,$000
 dn ___,0,$000
 dn A#6,3,$000
 dn ___,0,$000
 dn ___,0,$000
 dn ___,0,$000
 dn A#6,4,$000
 dn ___,0,$000
 dn A#6,4,$000
 dn ___,0,$000
 dn A#6,4,$000
 dn ___,0,$000
 dn ___,0,$000
 dn ___,0,$000
 dn A#6,4,$000
 dn ___,0,$000
 dn A#6,4,$000
 dn ___,0,$000
 dn A#6,4,$000
 dn ___,0,$000
 dn ___,0,$000
 dn ___,0,$000
 dn ___,0,$000
 dn ___,0,$000
 dn ___,0,$000
 dn ___,0,$000
 dn A#6,4,$000
 dn ___,0,$000
 dn ___,0,$000
 dn ___,0,$000
 dn ___,0,$000
 dn ___,0,$000
 dn ___,0,$000
 dn ___,0,$000

P68:
 dn G_6,1,$F03
 dn ___,0,$000
 dn ___,0,$000
 dn ___,0,$000
 dn A#6,4,$000
 dn ___,0,$000
 dn ___,0,$000
 dn ___,0,$000
 dn G_6,1,$000
 dn ___,0,$000
 dn G_6,1,$000
 dn ___,0,$000
 dn A#6,4,$000
 dn ___,0,$000
 dn ___,0,$000
 dn ___,0,$000
 dn G_6,1,$000
 dn ___,0,$000
 dn G_6,1,$000
 dn ___,0,$000
 dn A#6,4,$000
 dn ___,0,$000
 dn ___,0,$000
 dn ___,0,$000
 dn G_6,1,$000
 dn ___,0,$000
 dn G_6,1,$000
 dn ___,0,$000
 dn A#6,4,$000
 dn ___,0,$000
 dn ___,0,$000
 dn ___,0,$000
 dn A#6,3,$000
 dn ___,0,$000
 dn ___,0,$000
 dn ___,0,$000
 dn A#6,4,$000
 dn ___,0,$000
 dn A#6,4,$000
 dn ___,0,$000
 dn A#6,4,$000
 dn ___,0,$000
 dn ___,0,$000
 dn ___,0,$000
 dn A#6,4,$000
 dn ___,0,$000
 dn A#6,4,$000
 dn ___,0,$000
 dn ___,0,$000
 dn ___,0,$000
 dn A#6,4,$000
 dn A#6,4,$000
 dn A#6,4,$000
 dn ___,0,$000
 dn A#6,4,$000
 dn ___,0,$000
 dn A#6,4,$000
 dn ___,0,$000
 dn A#6,4,$000
 dn ___,0,$000
 dn A#6,4,$000
 dn A#6,4,$000
 dn A#6,4,$000
 dn A#6,4,$000

P69:
 dn F_4,1,$000
 dn ___,0,$000
 dn ___,0,$C00
 dn ___,0,$000
 dn F_4,1,$000
 dn ___,0,$000
 dn F_5,8,$000
 dn ___,0,$000
 dn A_5,8,$000
 dn ___,0,$000
 dn C_6,8,$000
 dn ___,0,$000
 dn F_4,1,$000
 dn ___,0,$C00
 dn F_4,1,$000
 dn ___,0,$C00
 dn F_4,1,$000
 dn ___,0,$000
 dn ___,0,$C00
 dn ___,0,$000
 dn F_4,1,$000
 dn ___,0,$000
 dn F_5,8,$000
 dn ___,0,$000
 dn A_5,8,$000
 dn ___,0,$000
 dn C_6,8,$000
 dn ___,0,$000
 dn F_4,1,$000
 dn ___,0,$000
 dn ___,0,$C00
 dn ___,0,$000
 dn E_4,1,$000
 dn ___,0,$000
 dn ___,0,$C00
 dn ___,0,$000
 dn E_4,1,$000
 dn ___,0,$C00
 dn E_4,1,$000
 dn ___,0,$C00
 dn E_4,1,$000
 dn ___,0,$000
 dn E_5,8,$000
 dn ___,0,$000
 dn E_4,1,$000
 dn ___,0,$000
 dn G_5,8,$000
 dn ___,0,$000
 dn E_5,1,$000
 dn ___,0,$000
 dn ___,0,$000
 dn ___,0,$000
 dn E_3,1,$31B
 dn ___,0,$31B
 dn ___,0,$31B
 dn ___,0,$31B
 dn ___,0,$31B
 dn ___,0,$31B
 dn ___,0,$31B
 dn ___,0,$31B
 dn ___,0,$31B
 dn ___,0,$31B
 dn ___,0,$31B
 dn ___,0,$31B

P70:
 dn C_6,5,$000
 dn ___,0,$000
 dn ___,0,$000
 dn ___,0,$000
 dn G_6,5,$305
 dn ___,0,$308
 dn ___,0,$30F
 dn ___,0,$318
 dn ___,0,$433
 dn ___,0,$433
 dn ___,0,$433
 dn ___,0,$433
 dn E_6,5,$000
 dn ___,0,$000
 dn ___,0,$000
 dn ___,0,$000
 dn ___,0,$000
 dn ___,0,$000
 dn ___,0,$000
 dn ___,0,$000
 dn ___,0,$433
 dn ___,0,$433
 dn ___,0,$433
 dn ___,0,$433
 dn C_6,5,$000
 dn ___,0,$000
 dn ___,0,$000
 dn ___,0,$000
 dn ___,0,$207
 dn ___,0,$208
 dn ___,0,$20D
 dn ___,0,$211
 dn D_6,5,$000
 dn ___,0,$000
 dn ___,0,$000
 dn ___,0,$000
 dn ___,0,$000
 dn ___,0,$000
 dn G_6,5,$305
 dn ___,0,$308
 dn ___,0,$30F
 dn ___,0,$318
 dn ___,0,$433
 dn ___,0,$433
 dn E_6,5,$000
 dn ___,0,$000
 dn ___,0,$000
 dn ___,0,$000
 dn ___,0,$000
 dn ___,0,$000
 dn ___,0,$000
 dn ___,0,$000
 dn ___,0,$207
 dn ___,0,$208
 dn ___,0,$20D
 dn ___,0,$211
 dn D_6,5,$000
 dn ___,0,$000
 dn ___,0,$000
 dn ___,0,$000
 dn ___,0,$000
 dn ___,0,$000
 dn ___,0,$000
 dn ___,0,$000

P71:
 dn A_5,5,$000
 dn ___,0,$000
 dn ___,0,$000
 dn ___,0,$000
 dn E_6,5,$000
 dn ___,0,$000
 dn ___,0,$000
 dn ___,0,$000
 dn ___,0,$000
 dn ___,0,$000
 dn ___,0,$000
 dn ___,0,$000
 dn C_6,5,$000
 dn ___,0,$000
 dn ___,0,$000
 dn ___,0,$000
 dn ___,0,$000
 dn ___,0,$000
 dn ___,0,$000
 dn ___,0,$000
 dn ___,0,$433
 dn ___,0,$433
 dn ___,0,$433
 dn ___,0,$433
 dn G_5,5,$000
 dn ___,0,$000
 dn ___,0,$000
 dn ___,0,$000
 dn ___,0,$207
 dn ___,0,$208
 dn ___,0,$20D
 dn ___,0,$211
 dn B_5,5,$000
 dn ___,0,$000
 dn ___,0,$000
 dn ___,0,$000
 dn ___,0,$C1A
 dn ___,0,$000
 dn B_5,5,$000
 dn ___,0,$000
 dn ___,0,$000
 dn ___,0,$000
 dn ___,0,$433
 dn ___,0,$433
 dn C_6,5,$000
 dn ___,0,$000
 dn ___,0,$000
 dn ___,0,$000
 dn ___,0,$000
 dn ___,0,$000
 dn ___,0,$000
 dn ___,0,$000
 dn ___,0,$207
 dn ___,0,$208
 dn ___,0,$20D
 dn ___,0,$211
 dn B_5,5,$000
 dn ___,0,$000
 dn ___,0,$000
 dn ___,0,$000
 dn ___,0,$000
 dn ___,0,$000
 dn ___,0,$000
 dn ___,0,$000

P72:
 dn C_3,5,$000
 dn ___,0,$000
 dn ___,0,$000
 dn ___,0,$000
 dn C_5,5,$31B
 dn ___,0,$31B
 dn ___,0,$31B
 dn ___,0,$31B
 dn ___,0,$31B
 dn ___,0,$31B
 dn ___,0,$31B
 dn ___,0,$31B
 dn ___,0,$31B
 dn ___,0,$31B
 dn ___,0,$31B
 dn ___,0,$31B
 dn ___,0,$000
 dn ___,0,$000
 dn ___,0,$000
 dn ___,0,$000
 dn ___,0,$000
 dn ___,0,$000
 dn ___,0,$000
 dn ___,0,$000
 dn ___,0,$000
 dn ___,0,$000
 dn ___,0,$000
 dn ___,0,$000
 dn ___,0,$000
 dn ___,0,$000
 dn ___,0,$000
 dn ___,0,$000
 dn ___,0,$000
 dn ___,0,$000
 dn ___,0,$000
 dn ___,0,$000
 dn ___,0,$000
 dn ___,0,$000
 dn ___,0,$000
 dn ___,0,$000
 dn ___,0,$000
 dn ___,0,$000
 dn ___,0,$000
 dn ___,0,$000
 dn ___,0,$000
 dn ___,0,$000
 dn ___,0,$000
 dn ___,0,$000
 dn ___,0,$000
 dn ___,0,$000
 dn ___,0,$000
 dn ___,0,$000
 dn ___,0,$000
 dn ___,0,$000
 dn ___,0,$000
 dn ___,0,$000
 dn ___,0,$000
 dn ___,0,$000
 dn ___,0,$000
 dn ___,0,$000
 dn ___,0,$000
 dn ___,0,$000
 dn ___,0,$000
 dn ___,0,$000

P73:
 dn G_3,5,$000
 dn ___,0,$000
 dn ___,0,$000
 dn ___,0,$000
 dn G_5,5,$31B
 dn ___,0,$31B
 dn ___,0,$31B
 dn ___,0,$31B
 dn ___,0,$31B
 dn ___,0,$31B
 dn ___,0,$31B
 dn ___,0,$31B
 dn ___,0,$31B
 dn ___,0,$31B
 dn ___,0,$31B
 dn ___,0,$31B
 dn ___,0,$000
 dn ___,0,$000
 dn ___,0,$000
 dn ___,0,$000
 dn ___,0,$000
 dn ___,0,$000
 dn ___,0,$000
 dn ___,0,$000
 dn ___,0,$000
 dn ___,0,$000
 dn ___,0,$000
 dn ___,0,$000
 dn ___,0,$000
 dn ___,0,$000
 dn ___,0,$000
 dn ___,0,$000
 dn ___,0,$000
 dn ___,0,$000
 dn ___,0,$000
 dn ___,0,$000
 dn ___,0,$000
 dn ___,0,$000
 dn ___,0,$000
 dn ___,0,$000
 dn ___,0,$000
 dn ___,0,$000
 dn ___,0,$000
 dn ___,0,$000
 dn ___,0,$000
 dn ___,0,$000
 dn ___,0,$000
 dn ___,0,$000
 dn ___,0,$000
 dn ___,0,$000
 dn ___,0,$000
 dn ___,0,$000
 dn ___,0,$000
 dn ___,0,$000
 dn ___,0,$000
 dn ___,0,$000
 dn ___,0,$000
 dn ___,0,$000
 dn ___,0,$000
 dn ___,0,$000
 dn ___,0,$000
 dn ___,0,$000
 dn ___,0,$000
 dn ___,0,$000

P74:
 dn ___,0,$000
 dn ___,0,$000
 dn ___,0,$000
 dn ___,0,$000
 dn ___,0,$000
 dn ___,0,$000
 dn ___,0,$000
 dn ___,0,$000
 dn ___,0,$000
 dn ___,0,$000
 dn ___,0,$000
 dn ___,0,$000
 dn ___,0,$000
 dn ___,0,$000
 dn ___,0,$000
 dn ___,0,$000
 dn ___,0,$000
 dn ___,0,$000
 dn ___,0,$000
 dn ___,0,$000
 dn ___,0,$000
 dn ___,0,$000
 dn ___,0,$000
 dn ___,0,$000
 dn ___,0,$000
 dn ___,0,$000
 dn ___,0,$000
 dn ___,0,$000
 dn ___,0,$000
 dn ___,0,$000
 dn ___,0,$000
 dn ___,0,$000
 dn ___,0,$000
 dn ___,0,$000
 dn ___,0,$000
 dn ___,0,$000
 dn ___,0,$000
 dn ___,0,$000
 dn ___,0,$000
 dn ___,0,$000
 dn ___,0,$000
 dn ___,0,$000
 dn ___,0,$000
 dn ___,0,$000
 dn ___,0,$000
 dn ___,0,$000
 dn ___,0,$000
 dn ___,0,$000
 dn ___,0,$000
 dn ___,0,$000
 dn ___,0,$000
 dn ___,0,$000
 dn ___,0,$000
 dn ___,0,$000
 dn ___,0,$000
 dn ___,0,$000
 dn ___,0,$000
 dn ___,0,$000
 dn ___,0,$000
 dn ___,0,$000
 dn ___,0,$000
 dn ___,0,$000
 dn ___,0,$000
 dn ___,0,$000

P75:
 dn A#6,4,$F03
 dn ___,0,$000
 dn A#6,4,$000
 dn ___,0,$000
 dn A#6,4,$000
 dn ___,0,$000
 dn A#6,4,$000
 dn ___,0,$000
 dn A#6,4,$000
 dn A#6,4,$000
 dn A#6,4,$000
 dn ___,0,$000
 dn A#6,4,$000
 dn ___,0,$D01
 dn ___,0,$000
 dn ___,0,$000
 dn ___,0,$000
 dn ___,0,$000
 dn ___,0,$000
 dn ___,0,$000
 dn ___,0,$000
 dn ___,0,$000
 dn ___,0,$000
 dn ___,0,$000
 dn ___,0,$000
 dn ___,0,$000
 dn ___,0,$000
 dn ___,0,$000
 dn ___,0,$000
 dn ___,0,$000
 dn ___,0,$000
 dn ___,0,$000
 dn ___,0,$000
 dn ___,0,$000
 dn ___,0,$000
 dn ___,0,$000
 dn ___,0,$000
 dn ___,0,$000
 dn ___,0,$000
 dn ___,0,$000
 dn ___,0,$000
 dn ___,0,$000
 dn ___,0,$000
 dn ___,0,$000
 dn ___,0,$000
 dn ___,0,$000
 dn ___,0,$000
 dn ___,0,$000
 dn ___,0,$000
 dn ___,0,$000
 dn ___,0,$000
 dn ___,0,$000
 dn ___,0,$000
 dn ___,0,$000
 dn ___,0,$000
 dn ___,0,$000
 dn ___,0,$000
 dn ___,0,$000
 dn ___,0,$000
 dn ___,0,$000
 dn ___,0,$000
 dn ___,0,$000
 dn ___,0,$000
 dn ___,0,$000

P76:
 dn A_5,5,$000
 dn ___,0,$000
 dn ___,0,$000
 dn ___,0,$000
 dn E_6,5,$000
 dn ___,0,$000
 dn ___,0,$000
 dn ___,0,$000
 dn ___,0,$000
 dn ___,0,$000
 dn ___,0,$000
 dn ___,0,$000
 dn C_6,5,$000
 dn ___,0,$000
 dn ___,0,$000
 dn ___,0,$000
 dn ___,0,$000
 dn ___,0,$000
 dn ___,0,$000
 dn ___,0,$000
 dn ___,0,$433
 dn ___,0,$433
 dn ___,0,$433
 dn ___,0,$433
 dn G_5,5,$000
 dn ___,0,$000
 dn ___,0,$000
 dn ___,0,$000
 dn ___,0,$207
 dn ___,0,$208
 dn ___,0,$20D
 dn ___,0,$211
 dn E_5,5,$000
 dn ___,0,$000
 dn ___,0,$000
 dn ___,0,$000
 dn ___,0,$C1A
 dn ___,0,$000
 dn E_5,5,$000
 dn ___,0,$000
 dn ___,0,$000
 dn ___,0,$000
 dn ___,0,$433
 dn ___,0,$433
 dn C_6,5,$000
 dn ___,0,$000
 dn ___,0,$000
 dn ___,0,$000
 dn ___,0,$000
 dn ___,0,$000
 dn ___,0,$000
 dn ___,0,$000
 dn ___,0,$207
 dn ___,0,$208
 dn ___,0,$20D
 dn ___,0,$211
 dn B_5,5,$000
 dn ___,0,$000
 dn ___,0,$000
 dn ___,0,$000
 dn ___,0,$000
 dn ___,0,$000
 dn ___,0,$000
 dn ___,0,$000

P80:
 dn F_5,5,$000
 dn ___,0,$000
 dn ___,0,$000
 dn ___,0,$000
 dn ___,0,$000
 dn ___,0,$000
 dn A_5,5,$308
 dn ___,0,$30F
 dn ___,0,$318
 dn ___,0,$433
 dn ___,0,$433
 dn ___,0,$433
 dn G_5,5,$000
 dn ___,0,$000
 dn ___,0,$000
 dn ___,0,$000
 dn ___,0,$000
 dn ___,0,$000
 dn ___,0,$000
 dn ___,0,$000
 dn ___,0,$000
 dn ___,0,$000
 dn ___,0,$000
 dn ___,0,$000
 dn ___,0,$433
 dn ___,0,$433
 dn ___,0,$433
 dn ___,0,$433
 dn D_5,5,$000
 dn ___,0,$000
 dn ___,0,$C1A
 dn ___,0,$000
 dn D_5,5,$000
 dn ___,0,$000
 dn ___,0,$000
 dn ___,0,$000
 dn ___,0,$000
 dn ___,0,$000
 dn ___,0,$000
 dn ___,0,$000
 dn ___,0,$000
 dn ___,0,$000
 dn ___,0,$000
 dn ___,0,$000
 dn ___,0,$000
 dn ___,0,$000
 dn ___,0,$000
 dn ___,0,$000
 dn ___,0,$000
 dn ___,0,$000
 dn ___,0,$000
 dn ___,0,$000
 dn ___,0,$000
 dn ___,0,$000
 dn ___,0,$000
 dn ___,0,$000
 dn ___,0,$000
 dn ___,0,$000
 dn ___,0,$000
 dn ___,0,$000
 dn ___,0,$000
 dn ___,0,$000
 dn ___,0,$000
 dn ___,0,$000

P89:
 dn F_5,5,$000
 dn ___,0,$000
 dn ___,0,$000
 dn ___,0,$000
 dn ___,0,$000
 dn ___,0,$000
 dn A_5,5,$308
 dn ___,0,$30F
 dn ___,0,$318
 dn ___,0,$433
 dn ___,0,$433
 dn ___,0,$433
 dn B_5,5,$000
 dn ___,0,$000
 dn ___,0,$000
 dn ___,0,$000
 dn ___,0,$000
 dn ___,0,$000
 dn ___,0,$000
 dn ___,0,$000
 dn ___,0,$000
 dn ___,0,$000
 dn ___,0,$000
 dn ___,0,$000
 dn ___,0,$433
 dn ___,0,$433
 dn ___,0,$433
 dn ___,0,$433
 dn G_5,5,$000
 dn ___,0,$000
 dn ___,0,$C1A
 dn ___,0,$000
 dn G_5,5,$000
 dn ___,0,$000
 dn ___,0,$000
 dn ___,0,$000
 dn ___,0,$000
 dn ___,0,$000
 dn ___,0,$000
 dn ___,0,$000
 dn ___,0,$000
 dn ___,0,$000
 dn ___,0,$000
 dn ___,0,$000
 dn ___,0,$000
 dn ___,0,$000
 dn ___,0,$000
 dn ___,0,$000
 dn ___,0,$000
 dn ___,0,$000
 dn ___,0,$000
 dn ___,0,$000
 dn ___,0,$000
 dn ___,0,$000
 dn ___,0,$000
 dn ___,0,$000
 dn ___,0,$000
 dn ___,0,$000
 dn ___,0,$000
 dn ___,0,$000
 dn ___,0,$000
 dn ___,0,$000
 dn ___,0,$000
 dn ___,0,$000

P94:
 dn C_6,2,$000
 dn E_6,4,$000
 dn E_6,2,$000
 dn C_6,4,$000
 dn G_6,2,$000
 dn E_6,4,$000
 dn C_7,2,$000
 dn G_6,4,$000
 dn E_6,2,$000
 dn C_7,4,$000
 dn G_6,2,$000
 dn E_6,4,$000
 dn C_7,2,$000
 dn G_6,4,$000
 dn E_6,2,$000
 dn C_7,4,$000
 dn B_5,2,$000
 dn E_6,4,$000
 dn E_6,2,$000
 dn B_5,4,$000
 dn G_6,2,$000
 dn E_6,4,$000
 dn B_6,2,$000
 dn G_6,4,$000
 dn E_6,2,$000
 dn B_6,4,$000
 dn G_6,2,$000
 dn E_6,4,$000
 dn B_6,2,$000
 dn G_6,4,$000
 dn E_6,2,$000
 dn B_6,4,$000
 dn A_5,2,$000
 dn A_6,4,$000
 dn E_6,2,$000
 dn A_5,4,$000
 dn A_6,2,$000
 dn E_6,4,$000
 dn C_7,2,$000
 dn A_6,4,$000
 dn E_6,2,$000
 dn C_7,4,$000
 dn A_6,2,$000
 dn E_6,4,$000
 dn C_7,2,$000
 dn A_6,4,$000
 dn C_6,2,$000
 dn C_7,4,$000
 dn G_5,2,$000
 dn B_5,4,$000
 dn B_5,2,$000
 dn G_5,4,$000
 dn D_6,2,$000
 dn B_5,4,$000
 dn G_6,2,$000
 dn D_6,4,$000
 dn B_5,2,$000
 dn G_6,4,$000
 dn D_6,2,$000
 dn B_5,4,$000
 dn G_6,2,$000
 dn D_6,4,$000
 dn B_5,2,$000
 dn G_6,4,$000

P95:
 dn C_6,5,$000
 dn ___,0,$000
 dn ___,0,$000
 dn ___,0,$000
 dn ___,0,$000
 dn ___,0,$000
 dn G_5,5,$000
 dn ___,0,$000
 dn ___,0,$000
 dn ___,0,$000
 dn ___,0,$000
 dn ___,0,$000
 dn E_5,5,$000
 dn ___,0,$000
 dn ___,0,$000
 dn ___,0,$000
 dn B_5,5,$000
 dn ___,0,$000
 dn ___,0,$000
 dn ___,0,$000
 dn ___,0,$000
 dn ___,0,$000
 dn G_5,5,$000
 dn ___,0,$000
 dn ___,0,$000
 dn ___,0,$000
 dn ___,0,$000
 dn ___,0,$000
 dn E_5,5,$000
 dn ___,0,$000
 dn ___,0,$000
 dn ___,0,$000
 dn A_5,5,$000
 dn ___,0,$000
 dn ___,0,$000
 dn ___,0,$000
 dn ___,0,$000
 dn ___,0,$000
 dn C_6,5,$000
 dn ___,0,$000
 dn ___,0,$000
 dn ___,0,$000
 dn ___,0,$000
 dn ___,0,$000
 dn A_5,5,$000
 dn ___,0,$000
 dn ___,0,$000
 dn ___,0,$000
 dn G_5,5,$000
 dn ___,0,$000
 dn ___,0,$000
 dn ___,0,$000
 dn ___,0,$000
 dn ___,0,$000
 dn D_5,5,$000
 dn ___,0,$000
 dn ___,0,$000
 dn ___,0,$000
 dn ___,0,$000
 dn ___,0,$000
 dn E_5,5,$000
 dn ___,0,$000
 dn ___,0,$000
 dn ___,0,$000

P96:
 dn C_5,1,$000
 dn ___,0,$000
 dn ___,0,$C00
 dn ___,0,$000
 dn C_5,1,$000
 dn ___,0,$000
 dn ___,0,$C00
 dn ___,0,$000
 dn ___,0,$000
 dn ___,0,$000
 dn ___,0,$000
 dn ___,0,$000
 dn C_5,1,$000
 dn ___,0,$C00
 dn C_5,1,$000
 dn ___,0,$C00
 dn B_4,1,$000
 dn ___,0,$000
 dn ___,0,$000
 dn ___,0,$C00
 dn B_4,1,$000
 dn ___,0,$000
 dn ___,0,$C00
 dn ___,0,$000
 dn ___,0,$000
 dn ___,0,$000
 dn ___,0,$000
 dn ___,0,$000
 dn B_4,1,$000
 dn ___,0,$000
 dn ___,0,$000
 dn ___,0,$000
 dn A_4,1,$000
 dn ___,0,$000
 dn ___,0,$C00
 dn ___,0,$000
 dn A_4,1,$000
 dn ___,0,$000
 dn ___,0,$C00
 dn ___,0,$000
 dn ___,0,$000
 dn ___,0,$000
 dn ___,0,$000
 dn ___,0,$000
 dn A_4,1,$000
 dn ___,0,$C00
 dn A_4,1,$000
 dn ___,0,$C00
 dn B_4,1,$000
 dn ___,0,$000
 dn ___,0,$000
 dn ___,0,$C00
 dn B_4,1,$000
 dn ___,0,$000
 dn ___,0,$C00
 dn ___,0,$000
 dn ___,0,$000
 dn ___,0,$000
 dn ___,0,$000
 dn ___,0,$000
 dn B_4,1,$000
 dn ___,0,$000
 dn ___,0,$000
 dn ___,0,$000

P98:
 dn F_5,2,$000
 dn A_5,4,$000
 dn A_5,2,$000
 dn F_5,4,$000
 dn C_6,2,$000
 dn A_5,4,$000
 dn F_6,2,$000
 dn C_6,4,$000
 dn A_5,2,$000
 dn F_6,4,$000
 dn C_6,2,$000
 dn A_5,4,$000
 dn F_6,2,$000
 dn C_6,4,$000
 dn A_5,2,$000
 dn F_6,4,$000
 dn F_5,2,$000
 dn A_5,4,$000
 dn A_5,2,$000
 dn F_5,4,$000
 dn C_6,2,$000
 dn A_5,4,$000
 dn F_6,2,$000
 dn C_6,4,$000
 dn A_5,2,$000
 dn F_6,4,$000
 dn C_6,2,$000
 dn A_5,4,$000
 dn F_6,2,$000
 dn C_6,4,$000
 dn A_5,2,$000
 dn F_6,4,$000
 dn F_5,2,$000
 dn G#5,4,$000
 dn G#5,2,$000
 dn F_5,4,$000
 dn C_6,2,$000
 dn G#5,4,$000
 dn F_6,2,$000
 dn C_6,4,$000
 dn G#5,2,$000
 dn F_6,4,$000
 dn C_6,2,$000
 dn G#5,4,$000
 dn F_6,2,$000
 dn C_6,4,$000
 dn G#5,2,$000
 dn F_6,4,$000
 dn F_5,2,$000
 dn G#5,4,$000
 dn G#5,2,$000
 dn F_5,4,$000
 dn C_6,2,$000
 dn G#5,4,$000
 dn F_6,2,$000
 dn C_6,4,$000
 dn G#5,2,$000
 dn F_6,4,$000
 dn C_6,2,$000
 dn G#5,4,$000
 dn F_6,2,$000
 dn C_6,4,$000
 dn G#5,2,$000
 dn F_6,4,$000

P99:
 dn F_5,5,$000
 dn ___,0,$000
 dn ___,0,$000
 dn ___,0,$000
 dn ___,0,$000
 dn ___,0,$000
 dn C_6,5,$000
 dn ___,0,$000
 dn ___,0,$000
 dn ___,0,$000
 dn ___,0,$000
 dn ___,0,$000
 dn A_5,5,$000
 dn ___,0,$000
 dn ___,0,$000
 dn ___,0,$000
 dn F_5,5,$000
 dn ___,0,$000
 dn ___,0,$000
 dn ___,0,$000
 dn G_5,5,$000
 dn ___,0,$000
 dn ___,0,$000
 dn ___,0,$000
 dn A_5,5,$000
 dn ___,0,$000
 dn ___,0,$000
 dn ___,0,$000
 dn C_6,5,$000
 dn ___,0,$000
 dn ___,0,$000
 dn ___,0,$000
 dn F_5,5,$000
 dn ___,0,$000
 dn ___,0,$000
 dn ___,0,$000
 dn ___,0,$000
 dn ___,0,$000
 dn C_6,5,$000
 dn ___,0,$000
 dn ___,0,$000
 dn ___,0,$000
 dn ___,0,$000
 dn ___,0,$000
 dn G#5,5,$000
 dn ___,0,$000
 dn ___,0,$000
 dn ___,0,$000
 dn F_5,5,$000
 dn ___,0,$000
 dn ___,0,$000
 dn ___,0,$000
 dn G#5,5,$000
 dn ___,0,$000
 dn ___,0,$000
 dn ___,0,$000
 dn B_5,5,$000
 dn ___,0,$000
 dn ___,0,$000
 dn ___,0,$000
 dn ___,0,$000
 dn ___,0,$000
 dn ___,0,$000
 dn ___,0,$000

P100:
 dn F_4,1,$000
 dn ___,0,$000
 dn ___,0,$C00
 dn ___,0,$000
 dn F_4,1,$000
 dn ___,0,$000
 dn ___,0,$C00
 dn ___,0,$000
 dn ___,0,$000
 dn ___,0,$000
 dn ___,0,$000
 dn ___,0,$000
 dn F_4,1,$000
 dn ___,0,$C00
 dn F_4,1,$000
 dn ___,0,$C00
 dn F_4,1,$000
 dn ___,0,$000
 dn ___,0,$000
 dn ___,0,$C00
 dn F_4,1,$000
 dn ___,0,$000
 dn ___,0,$C00
 dn ___,0,$000
 dn ___,0,$000
 dn ___,0,$000
 dn ___,0,$000
 dn ___,0,$000
 dn F_4,1,$000
 dn ___,0,$000
 dn ___,0,$000
 dn ___,0,$000
 dn F_4,1,$000
 dn ___,0,$000
 dn ___,0,$C00
 dn ___,0,$000
 dn F_4,1,$000
 dn ___,0,$000
 dn ___,0,$C00
 dn ___,0,$000
 dn ___,0,$000
 dn ___,0,$000
 dn ___,0,$000
 dn ___,0,$000
 dn F_4,1,$000
 dn ___,0,$C00
 dn F_4,1,$000
 dn ___,0,$C00
 dn F_4,1,$000
 dn ___,0,$000
 dn ___,0,$000
 dn ___,0,$C00
 dn F_4,1,$000
 dn ___,0,$000
 dn ___,0,$C00
 dn ___,0,$000
 dn ___,0,$000
 dn ___,0,$000
 dn ___,0,$000
 dn ___,0,$000
 dn F_4,1,$000
 dn ___,0,$000
 dn ___,0,$000
 dn ___,0,$000

P106:
 dn F_5,2,$000
 dn A_5,4,$000
 dn A_5,2,$000
 dn F_5,4,$000
 dn C_6,2,$000
 dn A_5,4,$000
 dn F_6,2,$000
 dn C_6,4,$000
 dn A_5,2,$000
 dn F_6,4,$000
 dn C_6,2,$000
 dn A_5,4,$000
 dn F_6,2,$000
 dn C_6,4,$000
 dn A_5,2,$000
 dn F_6,4,$000
 dn G_5,2,$000
 dn B_5,4,$000
 dn B_5,2,$000
 dn G_5,4,$000
 dn D_6,2,$000
 dn B_5,4,$000
 dn G_6,2,$000
 dn D_6,4,$000
 dn B_5,2,$000
 dn G_6,4,$000
 dn D_6,2,$000
 dn B_5,4,$000
 dn G_6,2,$000
 dn D_6,4,$000
 dn B_5,2,$000
 dn G_6,4,$000
 dn A_5,2,$000
 dn D_6,4,$000
 dn D_6,2,$000
 dn A_5,4,$000
 dn E_6,2,$000
 dn D_6,4,$000
 dn A_6,2,$000
 dn E_6,4,$000
 dn D_6,2,$000
 dn A_6,4,$000
 dn E_6,2,$000
 dn D_6,4,$000
 dn A_6,2,$000
 dn E_6,4,$000
 dn D_6,2,$000
 dn A_6,4,$000
 dn A_5,2,$000
 dn C#6,4,$000
 dn C#6,2,$000
 dn A_5,4,$000
 dn E_6,2,$000
 dn C#6,4,$000
 dn A_6,2,$000
 dn E_6,4,$000
 dn C#6,2,$000
 dn A_6,4,$000
 dn E_6,2,$000
 dn C#6,4,$000
 dn A_6,2,$000
 dn E_6,4,$000
 dn C#6,2,$000
 dn A_6,4,$B03

P107:
 dn A_5,5,$000
 dn ___,0,$000
 dn ___,0,$000
 dn ___,0,$000
 dn ___,0,$000
 dn ___,0,$000
 dn F_5,5,$000
 dn ___,0,$000
 dn ___,0,$000
 dn ___,0,$000
 dn ___,0,$000
 dn ___,0,$000
 dn A_5,5,$000
 dn ___,0,$000
 dn ___,0,$000
 dn ___,0,$000
 dn B_5,5,$000
 dn ___,0,$000
 dn ___,0,$000
 dn ___,0,$000
 dn ___,0,$000
 dn ___,0,$000
 dn G_5,5,$000
 dn ___,0,$000
 dn ___,0,$000
 dn ___,0,$000
 dn ___,0,$000
 dn ___,0,$000
 dn B_5,5,$000
 dn ___,0,$000
 dn ___,0,$000
 dn ___,0,$000
 dn D_6,5,$000
 dn ___,0,$000
 dn ___,0,$000
 dn ___,0,$000
 dn ___,0,$000
 dn ___,0,$000
 dn E_6,5,$000
 dn ___,0,$000
 dn ___,0,$000
 dn ___,0,$000
 dn ___,0,$000
 dn ___,0,$000
 dn D_6,5,$000
 dn ___,0,$000
 dn ___,0,$000
 dn ___,0,$000
 dn C#6,5,$000
 dn ___,0,$000
 dn ___,0,$000
 dn ___,0,$000
 dn ___,0,$000
 dn ___,0,$000
 dn ___,0,$000
 dn ___,0,$000
 dn ___,0,$000
 dn ___,0,$000
 dn ___,0,$000
 dn ___,0,$000
 dn ___,0,$000
 dn ___,0,$000
 dn ___,0,$000
 dn ___,0,$000

P108:
 dn F_4,1,$000
 dn ___,0,$000
 dn ___,0,$C00
 dn ___,0,$000
 dn F_4,1,$000
 dn ___,0,$000
 dn ___,0,$C00
 dn ___,0,$000
 dn ___,0,$000
 dn ___,0,$000
 dn ___,0,$000
 dn ___,0,$000
 dn F_4,1,$000
 dn ___,0,$C00
 dn F_4,1,$000
 dn ___,0,$C00
 dn G_4,1,$000
 dn ___,0,$000
 dn ___,0,$C00
 dn ___,0,$000
 dn ___,0,$000
 dn ___,0,$000
 dn G_4,1,$000
 dn ___,0,$000
 dn ___,0,$C00
 dn ___,0,$000
 dn ___,0,$000
 dn ___,0,$000
 dn G_4,1,$000
 dn ___,0,$000
 dn ___,0,$C00
 dn ___,0,$000
 dn A_4,1,$000
 dn ___,0,$000
 dn ___,0,$C00
 dn ___,0,$000
 dn ___,0,$000
 dn ___,0,$000
 dn A_4,1,$000
 dn ___,0,$000
 dn ___,0,$C00
 dn ___,0,$000
 dn ___,0,$000
 dn ___,0,$000
 dn A_4,1,$000
 dn ___,0,$000
 dn ___,0,$C00
 dn ___,0,$000
 dn A_4,1,$000
 dn ___,0,$000
 dn ___,0,$000
 dn ___,0,$000
 dn ___,0,$000
 dn ___,0,$000
 dn ___,0,$000
 dn ___,0,$000
 dn ___,0,$000
 dn ___,0,$000
 dn ___,0,$000
 dn ___,0,$000
 dn ___,0,$000
 dn ___,0,$000
 dn ___,0,$000
 dn ___,0,$000

itWaveSP7:
 dn ___,0,$000
 dn ___,0,$000
 dn ___,0,$902
 dn ___,0,$000
 dn ___,0,$C08
 dn ___,0,$000
 dn ___,0,$000
 dn ___,0,$000
 dn ___,0,$000
 dn ___,0,$000
 dn ___,0,$000
 dn ___,0,$000
 dn ___,0,$000
 dn ___,0,$000
 dn ___,0,$C04
 dn ___,0,$000
 dn ___,0,$000
 dn ___,0,$000
 dn ___,0,$000
 dn ___,0,$000
 dn ___,0,$000
 dn ___,0,$000
 dn ___,0,$000
 dn ___,0,$000
 dn ___,0,$000
 dn ___,0,$000
 dn ___,0,$C00
 dn ___,0,$000
 dn ___,0,$000
 dn ___,0,$000
 dn ___,0,$000
 dn ___,31,$000

itWaveSP8:
 dn ___,0,$000
 dn ___,0,$000
 dn ___,0,$000
 dn ___,0,$C08
 dn ___,0,$000
 dn ___,0,$000
 dn ___,0,$C04
 dn ___,0,$000
 dn ___,0,$000
 dn ___,0,$C00
 dn ___,0,$000
 dn ___,0,$000
 dn ___,0,$000
 dn ___,0,$000
 dn ___,0,$000
 dn ___,0,$000
 dn ___,0,$000
 dn ___,0,$000
 dn ___,0,$000
 dn ___,0,$000
 dn ___,0,$000
 dn ___,0,$000
 dn ___,0,$000
 dn ___,0,$000
 dn ___,0,$000
 dn ___,0,$000
 dn ___,0,$000
 dn ___,0,$000
 dn ___,0,$000
 dn ___,0,$000
 dn ___,0,$000
 dn ___,1,$000

itNoiseSP1:
 dn 36,0,$000
 dn 30,0,$000
 dn 26,0,$000
 dn ___,0,$000
 dn ___,0,$000
 dn ___,0,$000
 dn ___,0,$000
 dn ___,0,$000
 dn ___,0,$000
 dn ___,0,$000
 dn ___,0,$000
 dn ___,0,$000
 dn ___,0,$000
 dn ___,0,$000
 dn ___,0,$000
 dn ___,0,$000
 dn ___,0,$000
 dn ___,0,$000
 dn ___,0,$000
 dn ___,0,$000
 dn ___,0,$000
 dn ___,0,$000
 dn ___,0,$000
 dn ___,0,$000
 dn ___,0,$000
 dn ___,0,$000
 dn ___,0,$000
 dn ___,0,$000
 dn ___,0,$000
 dn ___,0,$000
 dn ___,0,$000
 dn ___,1,$000

itNoiseSP2:
 dn 45,0,$000
 dn 47,1,$000
 dn ___,0,$000
 dn ___,0,$000
 dn ___,0,$000
 dn ___,0,$000
 dn ___,0,$000
 dn ___,0,$000
 dn ___,0,$000
 dn ___,0,$000
 dn ___,0,$000
 dn ___,0,$000
 dn ___,0,$000
 dn ___,0,$000
 dn ___,0,$000
 dn ___,0,$000
 dn ___,0,$000
 dn ___,0,$000
 dn ___,0,$000
 dn ___,0,$000
 dn ___,0,$000
 dn ___,0,$000
 dn ___,0,$000
 dn ___,0,$000
 dn ___,0,$000
 dn ___,0,$000
 dn ___,0,$000
 dn ___,0,$000
 dn ___,0,$000
 dn ___,0,$000
 dn ___,0,$000
 dn ___,1,$000

itNoiseSP3:
 dn 33,0,$000
 dn 27,0,$000
 dn 24,0,$000
 dn 39,0,$900
 dn ___,0,$000
 dn ___,0,$000
 dn ___,0,$000
 dn ___,0,$000
 dn ___,0,$000
 dn ___,0,$000
 dn ___,0,$000
 dn ___,0,$000
 dn ___,0,$000
 dn ___,0,$000
 dn ___,0,$000
 dn ___,0,$000
 dn ___,0,$000
 dn ___,0,$000
 dn ___,0,$000
 dn ___,0,$000
 dn ___,0,$000
 dn ___,0,$000
 dn ___,0,$000
 dn ___,0,$000
 dn ___,0,$000
 dn ___,0,$000
 dn ___,0,$000
 dn ___,0,$000
 dn ___,0,$000
 dn ___,0,$000
 dn ___,0,$000
 dn ___,31,$000

itNoiseSP4:
 dn 33,0,$000
 dn 27,0,$000
 dn 24,0,$000
 dn 39,0,$900
 dn ___,0,$000
 dn ___,0,$000
 dn ___,0,$000
 dn ___,0,$000
 dn ___,0,$000
 dn ___,0,$000
 dn ___,0,$000
 dn ___,0,$000
 dn ___,0,$000
 dn ___,0,$000
 dn ___,0,$000
 dn ___,0,$000
 dn ___,0,$000
 dn ___,0,$000
 dn ___,0,$000
 dn ___,0,$000
 dn ___,0,$000
 dn ___,0,$000
 dn ___,0,$000
 dn ___,0,$000
 dn ___,0,$000
 dn ___,0,$000
 dn ___,0,$000
 dn ___,0,$000
 dn ___,0,$000
 dn ___,0,$000
 dn ___,0,$000
 dn ___,1,$000

duty_instruments:
itSquareinst1:
db 8
db 0
db 163
dw 0
db 128

itSquareinst2:
db 8
db 64
db 163
dw 0
db 128

itSquareinst3:
db 8
db 128
db 163
dw 0
db 128

itSquareinst4:
db 8
db 64
db 83
dw 0
db 128

itSquareinst5:
db 8
db 128
db 176
dw 0
db 128

itSquareinst6:
db 8
db 64
db 70
dw 0
db 128

itSquareinst7:
db 8
db 128
db 241
dw 0
db 128

itSquareinst8:
db 8
db 192
db 241
dw 0
db 128

itSquareinst9:
db 8
db 128
db 240
dw 0
db 128

itSquareinst10:
db 8
db 128
db 240
dw 0
db 128

itSquareinst11:
db 8
db 128
db 240
dw 0
db 128

itSquareinst12:
db 8
db 128
db 240
dw 0
db 128

itSquareinst13:
db 8
db 128
db 240
dw 0
db 128

itSquareinst14:
db 8
db 128
db 240
dw 0
db 128

itSquareinst15:
db 8
db 128
db 240
dw 0
db 128



wave_instruments:
itWaveinst1:
db 0
db 32
db 0
dw 0
db 128

itWaveinst2:
db 0
db 32
db 1
dw 0
db 128

itWaveinst3:
db 0
db 32
db 2
dw 0
db 128

itWaveinst4:
db 0
db 32
db 1
dw 0
db 128

itWaveinst5:
db 0
db 64
db 1
dw 0
db 128

itWaveinst6:
db 0
db 96
db 1
dw 0
db 128

itWaveinst7:
db 0
db 32
db 1
dw itWaveSP7
db 128

itWaveinst8:
db 0
db 32
db 3
dw itWaveSP8
db 128

itWaveinst9:
db 0
db 32
db 8
dw 0
db 128

itWaveinst10:
db 0
db 32
db 9
dw 0
db 128

itWaveinst11:
db 0
db 32
db 10
dw 0
db 128

itWaveinst12:
db 0
db 32
db 11
dw 0
db 128

itWaveinst13:
db 0
db 32
db 12
dw 0
db 128

itWaveinst14:
db 0
db 32
db 13
dw 0
db 128

itWaveinst15:
db 0
db 32
db 14
dw 0
db 128



noise_instruments:
itNoiseinst1:
db 241
dw itNoiseSP1
db 111
ds 2

itNoiseinst2:
db 130
dw itNoiseSP2
db 0
ds 2

itNoiseinst3:
db 247
dw itNoiseSP3
db 128
ds 2

itNoiseinst4:
db 193
dw itNoiseSP4
db 128
ds 2

itNoiseinst5:
db 240
dw 0
db 0
ds 2

itNoiseinst6:
db 240
dw 0
db 0
ds 2

itNoiseinst7:
db 240
dw 0
db 0
ds 2

itNoiseinst8:
db 240
dw 0
db 0
ds 2

itNoiseinst9:
db 240
dw 0
db 0
ds 2

itNoiseinst10:
db 240
dw 0
db 0
ds 2

itNoiseinst11:
db 240
dw 0
db 0
ds 2

itNoiseinst12:
db 240
dw 0
db 0
ds 2

itNoiseinst13:
db 240
dw 0
db 0
ds 2

itNoiseinst14:
db 240
dw 0
db 0
ds 2

itNoiseinst15:
db 240
dw 0
db 0
ds 2



routines:
__hUGE_Routine_0:

__end_hUGE_Routine_0:
ret

__hUGE_Routine_1:

__end_hUGE_Routine_1:
ret

__hUGE_Routine_2:

__end_hUGE_Routine_2:
ret

__hUGE_Routine_3:

__end_hUGE_Routine_3:
ret

__hUGE_Routine_4:

__end_hUGE_Routine_4:
ret

__hUGE_Routine_5:

__end_hUGE_Routine_5:
ret

__hUGE_Routine_6:

__end_hUGE_Routine_6:
ret

__hUGE_Routine_7:

__end_hUGE_Routine_7:
ret

__hUGE_Routine_8:

__end_hUGE_Routine_8:
ret

__hUGE_Routine_9:

__end_hUGE_Routine_9:
ret

__hUGE_Routine_10:

__end_hUGE_Routine_10:
ret

__hUGE_Routine_11:

__end_hUGE_Routine_11:
ret

__hUGE_Routine_12:

__end_hUGE_Routine_12:
ret

__hUGE_Routine_13:

__end_hUGE_Routine_13:
ret

__hUGE_Routine_14:

__end_hUGE_Routine_14:
ret

__hUGE_Routine_15:

__end_hUGE_Routine_15:
ret

waves:
wave0: db 15,255,248,66,16,22,255,255,238,208,1,155,84,16,3,33
wave1: db 254,201,117,68,83,16,20,84,33,36,67,71,135,155,156,239
wave2: db 255,253,183,102,120,119,101,33,1,33,33,18,53,121,170,206
wave3: db 0,0,0,0,0,0,0,0,11,187,187,187,187,187,187,187
wave4: db 0,1,18,35,52,69,86,103,120,137,154,171,188,205,222,239
wave5: db 254,220,186,152,118,84,50,16,18,52,86,120,154,188,222,255
wave6: db 122,205,219,117,33,19,104,189,220,151,65,1,71,156,221,184
wave7: db 15,15,15,15,15,15,15,15,15,15,15,15,15,15,15,15
wave8: db 254,252,250,248,246,244,242,240,242,244,246,248,250,252,254,255
wave9: db 254,221,204,187,170,153,136,119,138,189,241,36,87,138,189,238
wave10: db 132,17,97,237,87,71,90,173,206,163,23,121,221,32,3,71
wave11: db 112,227,108,57,6,163,39,51,80,85,49,81,83,77,178,170
wave12: db 180,212,105,227,139,134,109,84,118,69,19,210,229,201,137,135
wave13: db 109,137,44,233,13,196,163,194,71,163,100,14,25,237,156,206
wave14: db 4,203,198,198,96,131,48,7,37,176,216,114,180,55,83,156
wave15: db 235,112,187,35,85,136,90,72,197,116,206,180,4,90,199,214

