include "include/hUGE.inc"

SECTION "xCrystalwoodMusic", ROMX

xCrystalwoodMusic::
db 7
dw order_cnt
dw order1, order2, order3, order4
dw duty_instruments, wave_instruments, noise_instruments
dw routines
dw waves

order_cnt: db 32
order1: dw P0,P1,P1,P1,P1,P9,P9,P9,P9,P16,P20,P59,P63,P67,P67,P76
order2: dw P1,P5,P6,P5,P7,P10,P14,P10,P15,P17,P21,P60,P64,P68,P72,P77
order3: dw P2,P2,P2,P2,P8,P11,P11,P11,P11,P18,P22,P61,P65,P69,P69,P78
order4: dw P3,P4,P4,P4,P13,P12,P12,P12,P12,P19,P19,P62,P66,P70,P70,P79

P0:
 dn ___,0,$E00
 dn ___,0,$000
 dn ___,0,$000
 dn ___,0,$000
 dn ___,0,$000
 dn ___,0,$000
 dn ___,0,$000
 dn ___,0,$000
 dn ___,0,$000
 dn ___,0,$000
 dn ___,0,$000
 dn ___,0,$000
 dn ___,0,$000
 dn ___,0,$000
 dn ___,0,$000
 dn ___,0,$000
 dn ___,0,$000
 dn ___,0,$000
 dn ___,0,$000
 dn ___,0,$000
 dn ___,0,$000
 dn ___,0,$000
 dn ___,0,$000
 dn ___,0,$000
 dn ___,0,$000
 dn ___,0,$000
 dn ___,0,$000
 dn ___,0,$000
 dn ___,0,$000
 dn ___,0,$000
 dn ___,0,$000
 dn ___,0,$000
 dn ___,0,$000
 dn ___,0,$000
 dn ___,0,$000
 dn ___,0,$000
 dn ___,0,$000
 dn ___,0,$000
 dn ___,0,$000
 dn ___,0,$000
 dn ___,0,$000
 dn ___,0,$000
 dn ___,0,$000
 dn ___,0,$000
 dn ___,0,$000
 dn ___,0,$000
 dn ___,0,$000
 dn ___,0,$000
 dn ___,0,$000
 dn ___,0,$000
 dn ___,0,$000
 dn ___,0,$000
 dn ___,0,$000
 dn ___,0,$000
 dn ___,0,$000
 dn ___,0,$000
 dn ___,0,$000
 dn ___,0,$000
 dn ___,0,$000
 dn ___,0,$000
 dn ___,0,$000
 dn ___,0,$000
 dn ___,0,$000
 dn ___,0,$000

P1:
 dn C_6,2,$000
 dn C_8,4,$000
 dn E_6,2,$000
 dn C_6,4,$000
 dn G_6,2,$000
 dn E_6,4,$000
 dn B_6,2,$000
 dn G_6,4,$000
 dn C_7,2,$000
 dn B_6,4,$000
 dn E_7,2,$000
 dn C_7,4,$000
 dn G_7,2,$000
 dn E_7,4,$000
 dn B_7,2,$000
 dn G_7,4,$000
 dn C_6,2,$000
 dn B_7,4,$000
 dn E_6,2,$000
 dn C_6,4,$000
 dn G_6,2,$000
 dn E_6,4,$000
 dn B_6,2,$000
 dn G_6,4,$000
 dn C_7,2,$000
 dn B_6,4,$000
 dn E_7,2,$000
 dn C_7,4,$000
 dn G_7,2,$000
 dn E_7,4,$000
 dn B_7,2,$000
 dn G_7,4,$000
 dn C_6,2,$000
 dn B_7,4,$000
 dn E_6,2,$000
 dn C_6,4,$000
 dn A_6,2,$000
 dn E_6,4,$000
 dn B_6,2,$000
 dn A_6,4,$000
 dn C_7,2,$000
 dn B_6,4,$000
 dn E_7,2,$000
 dn C_7,4,$000
 dn A_7,2,$000
 dn E_7,4,$000
 dn C_8,2,$000
 dn A_7,4,$000
 dn C_6,2,$000
 dn C_8,4,$000
 dn E_6,2,$000
 dn C_6,4,$000
 dn A_6,2,$000
 dn E_6,4,$000
 dn B_6,2,$000
 dn A_6,4,$000
 dn C_7,2,$000
 dn B_6,4,$000
 dn E_7,2,$000
 dn C_7,4,$000
 dn A_7,2,$000
 dn E_7,4,$000
 dn C_8,2,$000
 dn A_7,4,$000

P2:
 dn C_4,1,$000
 dn ___,0,$000
 dn ___,0,$000
 dn ___,0,$C00
 dn ___,0,$000
 dn ___,0,$000
 dn C_4,1,$000
 dn ___,0,$C00
 dn ___,0,$000
 dn ___,0,$000
 dn ___,0,$000
 dn ___,0,$000
 dn ___,0,$000
 dn ___,0,$000
 dn ___,0,$000
 dn ___,0,$000
 dn ___,0,$000
 dn ___,0,$000
 dn ___,0,$000
 dn ___,0,$000
 dn ___,0,$000
 dn ___,0,$000
 dn ___,0,$000
 dn ___,0,$000
 dn ___,0,$000
 dn ___,0,$000
 dn ___,0,$000
 dn ___,0,$000
 dn C_4,1,$000
 dn ___,0,$000
 dn ___,0,$000
 dn ___,0,$C00
 dn A_3,1,$000
 dn ___,0,$000
 dn ___,0,$000
 dn ___,0,$C00
 dn ___,0,$000
 dn ___,0,$000
 dn A_3,1,$000
 dn ___,0,$C00
 dn ___,0,$000
 dn ___,0,$000
 dn ___,0,$000
 dn ___,0,$000
 dn ___,0,$000
 dn ___,0,$000
 dn ___,0,$000
 dn ___,0,$000
 dn ___,0,$000
 dn ___,0,$000
 dn ___,0,$000
 dn ___,0,$000
 dn ___,0,$000
 dn ___,0,$000
 dn ___,0,$000
 dn ___,0,$000
 dn ___,0,$000
 dn ___,0,$000
 dn ___,0,$000
 dn ___,0,$000
 dn A_3,1,$000
 dn ___,0,$000
 dn ___,0,$000
 dn ___,0,$C00

P3:
 dn ___,0,$000
 dn ___,0,$000
 dn ___,0,$000
 dn ___,0,$000
 dn ___,0,$000
 dn ___,0,$000
 dn ___,0,$000
 dn ___,0,$000
 dn ___,0,$000
 dn ___,0,$000
 dn ___,0,$000
 dn ___,0,$000
 dn ___,0,$000
 dn ___,0,$000
 dn ___,0,$000
 dn ___,0,$000
 dn ___,0,$000
 dn ___,0,$000
 dn ___,0,$000
 dn ___,0,$000
 dn ___,0,$000
 dn ___,0,$000
 dn ___,0,$000
 dn ___,0,$000
 dn ___,0,$000
 dn ___,0,$000
 dn ___,0,$000
 dn ___,0,$000
 dn ___,0,$000
 dn ___,0,$000
 dn ___,0,$000
 dn ___,0,$000
 dn ___,0,$000
 dn ___,0,$000
 dn ___,0,$000
 dn ___,0,$000
 dn ___,0,$000
 dn ___,0,$000
 dn ___,0,$000
 dn ___,0,$000
 dn ___,0,$000
 dn ___,0,$000
 dn ___,0,$000
 dn ___,0,$000
 dn ___,0,$000
 dn ___,0,$000
 dn ___,0,$000
 dn ___,0,$000
 dn ___,0,$000
 dn ___,0,$000
 dn ___,0,$000
 dn ___,0,$000
 dn ___,0,$000
 dn ___,0,$000
 dn ___,0,$000
 dn ___,0,$000
 dn ___,0,$000
 dn ___,0,$000
 dn ___,0,$000
 dn ___,0,$000
 dn ___,0,$000
 dn ___,0,$000
 dn ___,0,$000
 dn ___,0,$000

P4:
 dn ___,0,$000
 dn ___,0,$000
 dn ___,0,$000
 dn ___,0,$000
 dn ___,0,$000
 dn ___,0,$000
 dn ___,0,$000
 dn ___,0,$000
 dn ___,0,$000
 dn ___,0,$000
 dn ___,0,$000
 dn ___,0,$000
 dn ___,0,$000
 dn ___,0,$000
 dn ___,0,$000
 dn ___,0,$000
 dn ___,0,$000
 dn ___,0,$000
 dn ___,0,$000
 dn ___,0,$000
 dn ___,0,$000
 dn ___,0,$000
 dn ___,0,$000
 dn ___,0,$000
 dn ___,0,$000
 dn ___,0,$000
 dn ___,0,$000
 dn ___,0,$000
 dn ___,0,$000
 dn ___,0,$000
 dn ___,0,$000
 dn ___,0,$000
 dn ___,0,$000
 dn ___,0,$000
 dn ___,0,$000
 dn ___,0,$000
 dn ___,0,$000
 dn ___,0,$000
 dn ___,0,$000
 dn ___,0,$000
 dn ___,0,$000
 dn ___,0,$000
 dn ___,0,$000
 dn ___,0,$000
 dn ___,0,$000
 dn ___,0,$000
 dn ___,0,$000
 dn ___,0,$000
 dn ___,0,$000
 dn ___,0,$000
 dn ___,0,$000
 dn ___,0,$000
 dn ___,0,$000
 dn ___,0,$000
 dn ___,0,$000
 dn ___,0,$000
 dn ___,0,$000
 dn ___,0,$000
 dn ___,0,$000
 dn ___,0,$000
 dn ___,0,$000
 dn ___,0,$000
 dn ___,0,$000
 dn ___,0,$000

P5:
 dn C_5,1,$000
 dn ___,0,$000
 dn ___,0,$000
 dn ___,0,$000
 dn B_5,1,$000
 dn ___,0,$000
 dn ___,0,$000
 dn ___,0,$000
 dn E_5,1,$000
 dn ___,0,$000
 dn ___,0,$000
 dn ___,0,$000
 dn G_5,1,$000
 dn ___,0,$000
 dn ___,0,$000
 dn ___,0,$000
 dn ___,0,$000
 dn ___,0,$000
 dn ___,0,$000
 dn ___,0,$000
 dn ___,0,$000
 dn ___,0,$000
 dn ___,0,$C76
 dn ___,0,$000
 dn B_5,1,$000
 dn ___,0,$000
 dn A#5,1,$000
 dn ___,0,$000
 dn ___,0,$000
 dn ___,0,$000
 dn A_5,1,$000
 dn G_5,1,$000
 dn A_5,1,$000
 dn ___,0,$000
 dn ___,0,$000
 dn ___,0,$000
 dn ___,0,$000
 dn ___,0,$000
 dn ___,0,$000
 dn ___,0,$000
 dn ___,0,$000
 dn ___,0,$000
 dn ___,0,$000
 dn ___,0,$000
 dn ___,0,$000
 dn ___,0,$000
 dn ___,0,$000
 dn ___,0,$000
 dn ___,0,$C76
 dn ___,0,$000
 dn ___,0,$000
 dn ___,0,$000
 dn ___,0,$000
 dn ___,0,$000
 dn ___,0,$000
 dn ___,0,$000
 dn ___,0,$000
 dn ___,0,$000
 dn ___,0,$000
 dn ___,0,$000
 dn ___,0,$000
 dn ___,0,$000
 dn ___,0,$000
 dn ___,0,$000

P6:
 dn C_5,1,$000
 dn ___,0,$000
 dn ___,0,$000
 dn ___,0,$000
 dn B_5,1,$000
 dn ___,0,$000
 dn ___,0,$000
 dn ___,0,$000
 dn E_5,1,$000
 dn ___,0,$000
 dn ___,0,$000
 dn ___,0,$000
 dn G_5,1,$000
 dn ___,0,$000
 dn ___,0,$000
 dn ___,0,$000
 dn ___,0,$C76
 dn ___,0,$000
 dn ___,0,$000
 dn ___,0,$000
 dn G_5,1,$000
 dn ___,0,$000
 dn ___,0,$000
 dn ___,0,$000
 dn D_5,1,$000
 dn ___,0,$000
 dn ___,0,$000
 dn ___,0,$C76
 dn ___,0,$000
 dn ___,0,$000
 dn D_5,1,$000
 dn ___,0,$000
 dn E_5,1,$000
 dn ___,0,$000
 dn ___,0,$000
 dn ___,0,$000
 dn ___,0,$000
 dn ___,0,$000
 dn ___,0,$000
 dn ___,0,$000
 dn ___,0,$000
 dn ___,0,$000
 dn ___,0,$000
 dn ___,0,$000
 dn ___,0,$000
 dn ___,0,$000
 dn ___,0,$000
 dn ___,0,$000
 dn ___,0,$C76
 dn ___,0,$000
 dn ___,0,$000
 dn ___,0,$000
 dn ___,0,$000
 dn ___,0,$000
 dn ___,0,$000
 dn ___,0,$000
 dn ___,0,$000
 dn ___,0,$000
 dn ___,0,$000
 dn ___,0,$000
 dn ___,0,$000
 dn ___,0,$000
 dn ___,0,$000
 dn ___,0,$000

P7:
 dn C_5,1,$000
 dn ___,0,$000
 dn ___,0,$000
 dn ___,0,$000
 dn B_5,1,$000
 dn ___,0,$000
 dn ___,0,$000
 dn ___,0,$000
 dn D_6,1,$000
 dn ___,0,$000
 dn ___,0,$000
 dn ___,0,$000
 dn D_6,1,$000
 dn ___,0,$000
 dn ___,0,$000
 dn ___,0,$000
 dn ___,0,$C76
 dn ___,0,$000
 dn ___,0,$000
 dn ___,0,$000
 dn D_6,1,$000
 dn ___,0,$000
 dn ___,0,$000
 dn ___,0,$000
 dn A_5,1,$000
 dn ___,0,$000
 dn ___,0,$000
 dn ___,0,$C76
 dn ___,0,$000
 dn ___,0,$000
 dn A_5,1,$000
 dn G_5,1,$000
 dn E_5,1,$000
 dn ___,0,$000
 dn ___,0,$000
 dn ___,0,$000
 dn ___,0,$000
 dn ___,0,$000
 dn ___,0,$000
 dn ___,0,$000
 dn ___,0,$000
 dn ___,0,$000
 dn ___,0,$000
 dn ___,0,$000
 dn ___,0,$000
 dn ___,0,$000
 dn ___,0,$000
 dn ___,0,$000
 dn ___,0,$C76
 dn ___,0,$000
 dn ___,0,$000
 dn ___,0,$000
 dn ___,0,$000
 dn ___,0,$000
 dn ___,0,$000
 dn ___,0,$000
 dn ___,0,$000
 dn ___,0,$000
 dn ___,0,$000
 dn ___,0,$000
 dn ___,0,$000
 dn ___,0,$000
 dn ___,0,$000
 dn ___,0,$000

P8:
 dn C_4,1,$000
 dn ___,0,$000
 dn ___,0,$000
 dn ___,0,$C00
 dn ___,0,$000
 dn ___,0,$000
 dn C_4,1,$000
 dn ___,0,$C00
 dn ___,0,$000
 dn ___,0,$000
 dn ___,0,$000
 dn ___,0,$000
 dn ___,0,$000
 dn ___,0,$000
 dn ___,0,$000
 dn ___,0,$000
 dn ___,0,$000
 dn ___,0,$000
 dn ___,0,$000
 dn ___,0,$000
 dn ___,0,$000
 dn ___,0,$000
 dn ___,0,$000
 dn ___,0,$000
 dn ___,0,$000
 dn ___,0,$000
 dn ___,0,$000
 dn ___,0,$000
 dn C_4,1,$000
 dn ___,0,$000
 dn ___,0,$000
 dn ___,0,$C00
 dn A_3,1,$000
 dn ___,0,$000
 dn ___,0,$000
 dn ___,0,$C00
 dn ___,0,$000
 dn ___,0,$000
 dn A_3,1,$000
 dn ___,0,$C00
 dn ___,0,$000
 dn ___,0,$000
 dn A_3,1,$000
 dn ___,0,$000
 dn ___,0,$000
 dn ___,0,$C00
 dn ___,0,$000
 dn ___,0,$000
 dn A_3,1,$000
 dn ___,0,$C00
 dn ___,0,$000
 dn ___,0,$000
 dn A_3,1,$000
 dn ___,0,$E03
 dn A_3,1,$000
 dn ___,0,$C00
 dn A_3,1,$000
 dn ___,0,$E03
 dn A_3,1,$000
 dn ___,0,$C00
 dn A_4,1,$000
 dn A_3,0,$362
 dn ___,0,$000
 dn ___,0,$000

P9:
 dn C_6,2,$000
 dn C_8,2,$000
 dn E_6,2,$000
 dn C_6,2,$000
 dn G_6,2,$000
 dn E_6,2,$000
 dn B_6,2,$000
 dn G_6,2,$000
 dn C_7,2,$000
 dn B_6,2,$000
 dn E_7,2,$000
 dn C_7,2,$000
 dn G_7,2,$000
 dn E_7,2,$000
 dn B_7,2,$000
 dn G_7,2,$000
 dn C_6,2,$000
 dn B_7,2,$000
 dn E_6,2,$000
 dn C_6,2,$000
 dn G_6,2,$000
 dn E_6,2,$000
 dn B_6,2,$000
 dn G_6,2,$000
 dn C_7,2,$000
 dn B_6,2,$000
 dn E_7,2,$000
 dn C_7,2,$000
 dn G_7,2,$000
 dn E_7,2,$000
 dn B_7,2,$000
 dn G_7,2,$000
 dn C_6,2,$000
 dn B_7,2,$000
 dn E_6,2,$000
 dn C_6,2,$000
 dn A_6,2,$000
 dn E_6,2,$000
 dn B_6,2,$000
 dn A_6,2,$000
 dn C_7,2,$000
 dn B_6,2,$000
 dn E_7,2,$000
 dn C_7,2,$000
 dn A_7,2,$000
 dn E_7,2,$000
 dn C_8,2,$000
 dn A_7,2,$000
 dn C_6,2,$000
 dn C_8,2,$000
 dn E_6,2,$000
 dn C_6,2,$000
 dn A_6,2,$000
 dn E_6,2,$000
 dn B_6,2,$000
 dn A_6,2,$000
 dn C_7,2,$000
 dn B_6,2,$000
 dn E_7,2,$000
 dn C_7,2,$000
 dn A_7,2,$000
 dn E_7,2,$000
 dn C_8,2,$000
 dn A_7,2,$000

P10:
 dn C_5,5,$000
 dn ___,0,$000
 dn ___,0,$253
 dn ___,0,$253
 dn B_5,5,$3FF
 dn ___,0,$000
 dn ___,0,$41F
 dn ___,0,$41F
 dn E_5,5,$000
 dn ___,0,$000
 dn ___,0,$000
 dn ___,0,$000
 dn G_5,5,$303
 dn ___,0,$303
 dn ___,0,$303
 dn ___,0,$303
 dn ___,0,$303
 dn ___,0,$303
 dn ___,0,$000
 dn ___,0,$000
 dn ___,0,$000
 dn ___,0,$C7F
 dn ___,0,$253
 dn ___,0,$253
 dn B_5,5,$000
 dn ___,0,$000
 dn A#5,5,$000
 dn ___,0,$000
 dn ___,0,$000
 dn ___,0,$000
 dn A_5,5,$000
 dn G_5,5,$000
 dn A_5,5,$000
 dn ___,0,$000
 dn ___,0,$000
 dn ___,0,$000
 dn ___,0,$000
 dn ___,0,$000
 dn ___,0,$000
 dn ___,0,$000
 dn ___,0,$000
 dn ___,0,$000
 dn ___,0,$000
 dn ___,0,$000
 dn ___,0,$000
 dn ___,0,$000
 dn ___,0,$000
 dn ___,0,$000
 dn ___,0,$C76
 dn ___,0,$000
 dn ___,0,$000
 dn ___,0,$000
 dn ___,0,$000
 dn ___,0,$000
 dn ___,0,$000
 dn ___,0,$000
 dn ___,0,$000
 dn ___,0,$000
 dn ___,0,$000
 dn ___,0,$000
 dn ___,0,$000
 dn ___,0,$000
 dn ___,0,$000
 dn ___,0,$000

P11:
 dn C_4,1,$000
 dn ___,0,$C00
 dn C_5,1,$000
 dn C_4,1,$000
 dn ___,0,$C00
 dn ___,0,$000
 dn C_4,1,$000
 dn ___,0,$C00
 dn C_5,1,$000
 dn C_4,1,$000
 dn ___,0,$C00
 dn ___,0,$000
 dn C_4,1,$000
 dn ___,0,$000
 dn C_5,1,$000
 dn ___,0,$000
 dn C_4,1,$000
 dn ___,0,$C00
 dn C_5,1,$000
 dn C_4,1,$000
 dn ___,0,$C00
 dn ___,0,$000
 dn E_4,1,$000
 dn C_4,1,$000
 dn C_5,1,$000
 dn E_5,1,$000
 dn ___,0,$C00
 dn ___,0,$000
 dn D_5,1,$000
 dn ___,0,$000
 dn B_4,1,$000
 dn ___,0,$000
 dn A_3,1,$000
 dn ___,0,$C00
 dn A_4,1,$000
 dn A_3,1,$000
 dn ___,0,$C00
 dn ___,0,$000
 dn A_3,1,$E05
 dn A_3,1,$E05
 dn A_4,1,$000
 dn A_3,1,$000
 dn ___,0,$C00
 dn ___,0,$000
 dn A_3,1,$E05
 dn A_3,1,$E05
 dn A_4,1,$E05
 dn A_4,1,$E05
 dn A_3,1,$000
 dn ___,0,$C00
 dn A_4,1,$000
 dn A_3,1,$000
 dn ___,0,$C00
 dn ___,0,$000
 dn A_3,1,$000
 dn ___,0,$C00
 dn A_4,1,$000
 dn C_5,1,$000
 dn ___,0,$C00
 dn ___,0,$000
 dn E_5,1,$000
 dn ___,0,$000
 dn B_4,1,$000
 dn ___,0,$000

P12:
 dn F_6,3,$000
 dn ___,0,$000
 dn A#6,2,$000
 dn A#6,2,$000
 dn A#6,1,$000
 dn ___,0,$000
 dn A#6,2,$000
 dn ___,0,$000
 dn F_6,3,$000
 dn A#6,2,$000
 dn ___,0,$000
 dn A#6,2,$000
 dn A#6,1,$000
 dn ___,0,$000
 dn A#6,2,$000
 dn ___,0,$000
 dn F_6,3,$000
 dn ___,0,$000
 dn A#6,2,$000
 dn A#6,2,$000
 dn A#6,1,$000
 dn ___,0,$000
 dn A#6,2,$000
 dn ___,0,$000
 dn A#6,1,$000
 dn A#6,2,$000
 dn ___,0,$000
 dn A#6,1,$000
 dn A#6,1,$000
 dn ___,0,$000
 dn A#6,1,$000
 dn ___,0,$000
 dn F_6,3,$000
 dn ___,0,$000
 dn A#6,2,$000
 dn A#6,2,$000
 dn A#6,1,$000
 dn ___,0,$000
 dn A#6,2,$000
 dn ___,0,$000
 dn F_6,3,$000
 dn A#6,2,$000
 dn ___,0,$000
 dn A#6,2,$000
 dn A#6,1,$000
 dn ___,0,$000
 dn A#6,2,$000
 dn ___,0,$000
 dn F_6,3,$000
 dn ___,0,$000
 dn A#6,2,$000
 dn A#6,2,$000
 dn A#6,1,$000
 dn ___,0,$000
 dn A#6,2,$000
 dn ___,0,$000
 dn A#6,1,$000
 dn A#6,2,$000
 dn A#6,2,$000
 dn A#6,1,$000
 dn A#6,2,$000
 dn A#6,2,$000
 dn A#6,1,$000
 dn ___,0,$000

P13:
 dn ___,0,$000
 dn ___,0,$000
 dn ___,0,$000
 dn ___,0,$000
 dn ___,0,$000
 dn ___,0,$000
 dn ___,0,$000
 dn ___,0,$000
 dn ___,0,$000
 dn ___,0,$000
 dn ___,0,$000
 dn ___,0,$000
 dn ___,0,$000
 dn ___,0,$000
 dn ___,0,$000
 dn ___,0,$000
 dn ___,0,$000
 dn ___,0,$000
 dn ___,0,$000
 dn ___,0,$000
 dn ___,0,$000
 dn ___,0,$000
 dn ___,0,$000
 dn ___,0,$000
 dn ___,0,$000
 dn ___,0,$000
 dn ___,0,$000
 dn ___,0,$000
 dn ___,0,$000
 dn ___,0,$000
 dn ___,0,$000
 dn ___,0,$000
 dn F_6,3,$000
 dn ___,0,$000
 dn ___,0,$000
 dn ___,0,$000
 dn ___,0,$000
 dn ___,0,$000
 dn ___,0,$000
 dn ___,0,$000
 dn F_6,3,$000
 dn D_6,1,$CF1
 dn F_6,1,$CF3
 dn A_6,1,$CF5
 dn C_7,1,$CF7
 dn E_7,1,$CF9
 dn G_7,1,$CFB
 dn B_7,1,$CFD
 dn A#6,1,$000
 dn ___,0,$000
 dn A#6,2,$000
 dn A#6,2,$000
 dn A#6,1,$000
 dn ___,0,$000
 dn A#6,1,$000
 dn ___,0,$000
 dn ___,0,$000
 dn A#6,2,$000
 dn A#6,1,$000
 dn ___,0,$000
 dn A#6,1,$000
 dn A#6,1,$000
 dn A#6,1,$000
 dn A#6,1,$000

P14:
 dn C_5,5,$000
 dn ___,0,$000
 dn ___,0,$253
 dn ___,0,$253
 dn B_5,5,$3FF
 dn ___,0,$000
 dn ___,0,$41F
 dn ___,0,$41F
 dn E_5,5,$000
 dn ___,0,$000
 dn ___,0,$000
 dn ___,0,$000
 dn G_5,5,$303
 dn ___,0,$303
 dn ___,0,$303
 dn ___,0,$303
 dn ___,0,$C5F
 dn ___,0,$000
 dn ___,0,$000
 dn ___,0,$000
 dn G_5,5,$000
 dn ___,0,$000
 dn ___,0,$000
 dn ___,0,$000
 dn D_5,5,$000
 dn ___,0,$000
 dn ___,0,$000
 dn ___,0,$C7F
 dn ___,0,$253
 dn ___,0,$253
 dn D_5,5,$000
 dn ___,0,$41F
 dn E_5,5,$000
 dn ___,0,$000
 dn ___,0,$000
 dn ___,0,$000
 dn ___,0,$000
 dn ___,0,$000
 dn ___,0,$000
 dn ___,0,$000
 dn ___,0,$000
 dn ___,0,$000
 dn ___,0,$000
 dn ___,0,$000
 dn ___,0,$000
 dn ___,0,$000
 dn ___,0,$000
 dn ___,0,$000
 dn ___,0,$C76
 dn ___,0,$000
 dn ___,0,$000
 dn ___,0,$000
 dn ___,0,$000
 dn ___,0,$000
 dn ___,0,$000
 dn ___,0,$000
 dn ___,0,$000
 dn ___,0,$000
 dn ___,0,$000
 dn ___,0,$000
 dn ___,0,$000
 dn ___,0,$000
 dn ___,0,$000
 dn ___,0,$000

P15:
 dn C_5,5,$000
 dn ___,0,$000
 dn ___,0,$253
 dn ___,0,$253
 dn B_5,5,$3FF
 dn ___,0,$000
 dn ___,0,$41F
 dn ___,0,$41F
 dn D_6,5,$000
 dn ___,0,$C3F
 dn ___,0,$000
 dn A_5,5,$706
 dn D_6,5,$30B
 dn ___,0,$30B
 dn ___,0,$000
 dn ___,0,$000
 dn ___,0,$C7F
 dn ___,0,$000
 dn ___,0,$000
 dn ___,0,$000
 dn D_6,5,$000
 dn ___,0,$000
 dn ___,0,$000
 dn ___,0,$000
 dn A_5,5,$000
 dn ___,0,$000
 dn ___,0,$C7F
 dn ___,0,$253
 dn ___,0,$253
 dn ___,0,$253
 dn A_5,5,$000
 dn G_5,5,$000
 dn E_5,5,$000
 dn ___,0,$000
 dn ___,0,$000
 dn ___,0,$000
 dn ___,0,$000
 dn ___,0,$000
 dn ___,0,$000
 dn ___,0,$000
 dn ___,0,$000
 dn ___,0,$000
 dn ___,0,$000
 dn ___,0,$000
 dn ___,0,$000
 dn ___,0,$000
 dn ___,0,$000
 dn ___,0,$000
 dn ___,0,$C76
 dn ___,0,$000
 dn ___,0,$000
 dn ___,0,$000
 dn ___,0,$000
 dn ___,0,$000
 dn ___,0,$000
 dn ___,0,$000
 dn ___,0,$000
 dn ___,0,$000
 dn ___,0,$000
 dn ___,0,$000
 dn ___,0,$000
 dn ___,0,$000
 dn ___,0,$000
 dn ___,0,$000

P16:
 dn C_7,2,$000
 dn B_6,2,$000
 dn G_6,2,$000
 dn E_6,2,$000
 dn C_7,2,$000
 dn B_6,2,$000
 dn G_6,2,$000
 dn E_6,2,$000
 dn C_7,2,$000
 dn B_6,2,$000
 dn G_6,2,$000
 dn E_6,2,$000
 dn C_7,2,$000
 dn B_6,2,$000
 dn G_6,2,$000
 dn E_6,2,$000
 dn D_7,2,$000
 dn A_6,2,$000
 dn F#6,2,$000
 dn E_6,2,$000
 dn D_7,2,$000
 dn A_6,2,$000
 dn F#6,2,$000
 dn E_6,2,$000
 dn D_7,2,$000
 dn A_6,2,$000
 dn F#6,2,$000
 dn E_6,2,$000
 dn D_7,2,$000
 dn A_6,2,$000
 dn F#6,2,$000
 dn E_6,2,$000
 dn D_7,2,$000
 dn B_6,2,$000
 dn F#6,2,$000
 dn D_6,2,$000
 dn D_7,2,$000
 dn B_6,2,$000
 dn F#6,2,$000
 dn D_6,2,$000
 dn D_7,2,$000
 dn B_6,2,$000
 dn F#6,2,$000
 dn D_6,2,$000
 dn D_7,2,$000
 dn B_6,2,$000
 dn F#6,2,$000
 dn A_6,2,$000
 dn E_7,2,$000
 dn B_6,2,$000
 dn G_6,2,$000
 dn E_6,2,$000
 dn E_7,2,$000
 dn B_6,2,$000
 dn G_6,2,$000
 dn E_6,2,$000
 dn D_7,2,$000
 dn A_6,2,$000
 dn F#6,2,$000
 dn D_6,2,$000
 dn D_7,2,$000
 dn A_6,2,$000
 dn F#6,2,$000
 dn D_6,2,$000

P17:
 dn C_5,5,$000
 dn ___,0,$000
 dn ___,0,$253
 dn ___,0,$253
 dn B_5,5,$3FF
 dn ___,0,$000
 dn G_5,5,$000
 dn ___,0,$000
 dn E_5,5,$000
 dn ___,0,$000
 dn ___,0,$000
 dn ___,0,$000
 dn C_5,5,$000
 dn ___,0,$000
 dn ___,0,$000
 dn ___,0,$000
 dn D_5,5,$303
 dn ___,0,$303
 dn ___,0,$303
 dn ___,0,$303
 dn A_5,5,$000
 dn ___,0,$000
 dn F#5,5,$000
 dn ___,0,$000
 dn D_5,5,$000
 dn ___,0,$000
 dn ___,0,$253
 dn ___,0,$253
 dn C_5,5,$000
 dn ___,0,$000
 dn C#5,5,$000
 dn ___,0,$000
 dn D_5,5,$000
 dn ___,0,$000
 dn B_5,5,$000
 dn ___,0,$000
 dn ___,0,$41F
 dn ___,0,$41F
 dn B_5,5,$000
 dn F#5,5,$000
 dn D_5,5,$000
 dn ___,0,$000
 dn ___,0,$000
 dn ___,0,$000
 dn D_5,5,$000
 dn ___,0,$000
 dn D#5,5,$000
 dn ___,0,$000
 dn E_5,5,$000
 dn ___,0,$253
 dn B_5,5,$000
 dn ___,0,$000
 dn ___,0,$41F
 dn ___,0,$41F
 dn B_5,5,$000
 dn G_5,5,$000
 dn D_5,5,$000
 dn ___,0,$253
 dn A_5,5,$000
 dn ___,0,$000
 dn ___,0,$41F
 dn ___,0,$41F
 dn F#5,5,$000
 dn D_5,5,$000

P18:
 dn C_4,1,$000
 dn ___,0,$C00
 dn C_5,1,$000
 dn C_4,1,$000
 dn ___,0,$C00
 dn ___,0,$000
 dn C_5,1,$000
 dn ___,0,$000
 dn ___,0,$000
 dn ___,0,$000
 dn C_4,1,$000
 dn ___,0,$C00
 dn C_4,1,$000
 dn ___,0,$000
 dn C#4,1,$000
 dn ___,0,$41F
 dn D_4,1,$000
 dn ___,0,$C00
 dn D_5,1,$000
 dn D_4,1,$000
 dn ___,0,$C00
 dn D_4,1,$000
 dn F#5,1,$000
 dn ___,0,$000
 dn ___,0,$41F
 dn ___,0,$41F
 dn D_5,1,$000
 dn ___,0,$C00
 dn A_4,1,$000
 dn ___,0,$000
 dn F#4,1,$000
 dn ___,0,$C00
 dn D_4,1,$000
 dn ___,0,$000
 dn B_5,1,$000
 dn B_4,1,$000
 dn ___,0,$C00
 dn ___,0,$000
 dn B_5,1,$000
 dn ___,0,$C00
 dn B_5,1,$000
 dn ___,0,$C00
 dn B_4,1,$E04
 dn B_4,1,$E04
 dn B_4,1,$000
 dn ___,0,$000
 dn B_5,1,$000
 dn ___,0,$C00
 dn E_4,1,$000
 dn ___,0,$000
 dn E_5,1,$000
 dn ___,0,$C00
 dn E_4,1,$000
 dn ___,0,$000
 dn E_5,1,$000
 dn ___,0,$C00
 dn D_4,1,$000
 dn ___,0,$000
 dn D_5,1,$000
 dn ___,0,$C00
 dn D_4,1,$E04
 dn D_4,1,$E04
 dn D_5,1,$E04
 dn D_5,1,$E04

P19:
 dn F_6,3,$000
 dn ___,0,$000
 dn A#6,2,$000
 dn ___,0,$000
 dn A#6,1,$000
 dn ___,0,$000
 dn A#6,2,$000
 dn A#6,2,$000
 dn F_6,3,$000
 dn ___,0,$000
 dn A#6,2,$000
 dn A#6,2,$000
 dn F_6,3,$000
 dn ___,0,$000
 dn A#6,2,$000
 dn ___,0,$000
 dn F_6,3,$000
 dn ___,0,$000
 dn A#6,2,$000
 dn ___,0,$000
 dn A#6,1,$000
 dn ___,0,$000
 dn F_6,3,$000
 dn F_6,3,$000
 dn A#6,1,$000
 dn ___,0,$000
 dn A#6,2,$000
 dn A#6,2,$000
 dn F_6,3,$000
 dn ___,0,$000
 dn F_6,3,$000
 dn ___,0,$000
 dn F_6,3,$000
 dn ___,0,$000
 dn A#6,2,$000
 dn A#6,2,$000
 dn A#6,1,$000
 dn ___,0,$000
 dn A#6,2,$000
 dn A#6,2,$000
 dn A#6,1,$000
 dn ___,0,$000
 dn A#6,2,$000
 dn A#6,2,$000
 dn F_6,3,$000
 dn ___,0,$000
 dn F_6,3,$000
 dn A#6,2,$000
 dn F_6,3,$000
 dn ___,0,$000
 dn A#6,2,$000
 dn ___,0,$000
 dn A#6,1,$000
 dn ___,0,$000
 dn A#6,2,$000
 dn A#6,2,$000
 dn F_6,3,$000
 dn A#6,2,$000
 dn A#6,2,$000
 dn A#6,2,$000
 dn A#6,1,$000
 dn A#6,2,$000
 dn A#6,2,$000
 dn A#6,2,$000

P20:
 dn C_7,2,$000
 dn B_6,2,$000
 dn G_6,2,$000
 dn E_6,2,$000
 dn C_7,2,$000
 dn B_6,2,$000
 dn G_6,2,$000
 dn E_6,2,$000
 dn C_7,2,$000
 dn B_6,2,$000
 dn G_6,2,$000
 dn E_6,2,$000
 dn C_7,2,$000
 dn B_6,2,$000
 dn G_6,2,$000
 dn E_6,2,$000
 dn D_7,2,$000
 dn B_6,2,$000
 dn F#6,2,$000
 dn D_6,2,$000
 dn D_7,2,$000
 dn B_6,2,$000
 dn F#6,2,$000
 dn D_6,2,$000
 dn D_7,2,$000
 dn B_6,2,$000
 dn F#6,2,$000
 dn D_6,2,$000
 dn D_7,2,$000
 dn B_6,2,$000
 dn F#6,2,$000
 dn A_6,2,$000
 dn E_7,2,$000
 dn B_6,2,$000
 dn A_6,2,$000
 dn E_6,2,$000
 dn E_7,2,$000
 dn B_6,2,$000
 dn A_6,2,$000
 dn E_6,2,$000
 dn E_7,2,$000
 dn B_6,2,$000
 dn A_6,2,$000
 dn E_6,2,$000
 dn E_7,2,$000
 dn B_6,2,$000
 dn A_6,2,$000
 dn E_6,2,$000
 dn E_7,2,$000
 dn B_6,2,$000
 dn G#6,2,$000
 dn E_6,2,$000
 dn E_7,2,$000
 dn B_6,2,$000
 dn G#6,2,$000
 dn E_6,2,$000
 dn E_7,2,$000
 dn B_6,2,$000
 dn G#6,2,$000
 dn E_6,2,$000
 dn E_7,2,$000
 dn B_6,2,$000
 dn G#6,2,$000
 dn E_6,2,$000

P21:
 dn C_5,5,$000
 dn ___,0,$000
 dn ___,0,$000
 dn ___,0,$000
 dn B_4,5,$000
 dn ___,0,$000
 dn G_5,5,$000
 dn ___,0,$000
 dn E_5,5,$000
 dn ___,0,$000
 dn ___,0,$000
 dn ___,0,$000
 dn C_5,5,$000
 dn ___,0,$000
 dn ___,0,$000
 dn ___,0,$000
 dn D_5,5,$000
 dn ___,0,$000
 dn B_5,5,$000
 dn ___,0,$000
 dn ___,0,$41F
 dn ___,0,$41F
 dn F#5,5,$000
 dn ___,0,$000
 dn D_5,5,$000
 dn ___,0,$000
 dn ___,0,$000
 dn ___,0,$000
 dn D#5,5,$302
 dn ___,0,$302
 dn ___,0,$302
 dn ___,0,$302
 dn E_5,5,$000
 dn ___,0,$000
 dn ___,0,$000
 dn ___,0,$000
 dn ___,0,$000
 dn ___,0,$000
 dn ___,0,$000
 dn ___,0,$000
 dn ___,0,$412
 dn ___,0,$412
 dn ___,0,$412
 dn ___,0,$416
 dn ___,0,$416
 dn ___,0,$416
 dn ___,0,$418
 dn ___,0,$418
 dn ___,0,$418
 dn ___,0,$41C
 dn ___,0,$41C
 dn ___,0,$41C
 dn ___,0,$41E
 dn ___,0,$41E
 dn ___,0,$41F
 dn ___,0,$41F
 dn ___,0,$410
 dn ___,0,$C7B
 dn ___,0,$000
 dn ___,0,$000
 dn ___,0,$000
 dn ___,0,$000
 dn ___,0,$000
 dn ___,0,$000

P22:
 dn C_4,1,$000
 dn ___,0,$C00
 dn C_5,1,$000
 dn C_4,1,$000
 dn ___,0,$C00
 dn ___,0,$000
 dn C_5,1,$000
 dn ___,0,$000
 dn ___,0,$000
 dn ___,0,$000
 dn C_4,1,$000
 dn ___,0,$C00
 dn C_4,1,$000
 dn ___,0,$000
 dn C#4,1,$000
 dn ___,0,$000
 dn D_4,1,$000
 dn ___,0,$000
 dn B_5,1,$000
 dn B_4,1,$000
 dn ___,0,$C00
 dn ___,0,$000
 dn B_5,1,$000
 dn ___,0,$C00
 dn B_5,1,$000
 dn ___,0,$C00
 dn B_4,1,$E04
 dn B_4,1,$E04
 dn B_4,1,$000
 dn ___,0,$000
 dn B_5,1,$000
 dn ___,0,$C00
 dn E_4,1,$000
 dn ___,0,$000
 dn E_5,1,$000
 dn ___,0,$C00
 dn E_4,1,$000
 dn ___,0,$000
 dn E_5,1,$000
 dn ___,0,$C00
 dn E_4,1,$000
 dn ___,0,$000
 dn E_5,1,$000
 dn ___,0,$C00
 dn E_4,1,$000
 dn ___,0,$000
 dn E_5,1,$000
 dn ___,0,$C00
 dn E_4,1,$000
 dn ___,0,$000
 dn E_5,1,$000
 dn ___,0,$C00
 dn E_4,1,$000
 dn ___,0,$000
 dn E_5,1,$000
 dn ___,0,$E00
 dn E_4,1,$E04
 dn E_4,1,$E04
 dn E_5,1,$E04
 dn E_5,1,$E04
 dn E_4,1,$E04
 dn E_4,1,$E04
 dn E_5,1,$E04
 dn E_5,1,$E04

P59:
 dn C_6,2,$000
 dn ___,0,$000
 dn ___,0,$000
 dn ___,0,$000
 dn E_6,2,$000
 dn ___,0,$000
 dn C_6,4,$000
 dn ___,0,$000
 dn G_6,2,$000
 dn ___,0,$000
 dn E_6,4,$000
 dn ___,0,$000
 dn B_6,2,$000
 dn ___,0,$000
 dn G_6,4,$000
 dn ___,0,$000
 dn ___,0,$000
 dn ___,0,$000
 dn B_6,4,$000
 dn ___,0,$000
 dn E_6,2,$000
 dn ___,0,$000
 dn ___,0,$000
 dn ___,0,$000
 dn G_6,2,$000
 dn ___,0,$000
 dn E_6,4,$000
 dn ___,0,$000
 dn B_6,2,$000
 dn ___,0,$000
 dn G_6,4,$000
 dn ___,0,$000
 dn A_5,2,$000
 dn ___,0,$000
 dn B_6,4,$000
 dn ___,0,$000
 dn C_6,2,$000
 dn ___,0,$000
 dn A_5,4,$000
 dn ___,0,$000
 dn E_6,2,$000
 dn ___,0,$000
 dn C_6,4,$000
 dn ___,0,$000
 dn G_6,2,$000
 dn ___,0,$000
 dn E_6,4,$000
 dn ___,0,$000
 dn ___,0,$000
 dn ___,0,$000
 dn G_6,4,$000
 dn ___,0,$000
 dn C_6,2,$000
 dn ___,0,$000
 dn ___,0,$000
 dn ___,0,$000
 dn E_6,2,$000
 dn ___,0,$000
 dn C_6,4,$000
 dn ___,0,$000
 dn G_6,2,$000
 dn ___,0,$000
 dn E_6,4,$000
 dn ___,0,$000

P60:
 dn B_5,5,$000
 dn ___,0,$000
 dn ___,0,$000
 dn ___,0,$000
 dn ___,0,$000
 dn ___,0,$000
 dn ___,0,$000
 dn ___,0,$000
 dn ___,0,$000
 dn ___,0,$000
 dn ___,0,$000
 dn ___,0,$000
 dn ___,0,$000
 dn ___,0,$000
 dn ___,0,$000
 dn ___,0,$000
 dn C_6,5,$000
 dn ___,0,$000
 dn ___,0,$000
 dn ___,0,$000
 dn ___,0,$000
 dn ___,0,$000
 dn B_5,5,$000
 dn ___,0,$000
 dn ___,0,$000
 dn ___,0,$000
 dn ___,0,$000
 dn ___,0,$000
 dn A_5,5,$000
 dn ___,0,$000
 dn ___,0,$000
 dn ___,0,$000
 dn E_5,5,$000
 dn ___,0,$000
 dn ___,0,$000
 dn ___,0,$000
 dn ___,0,$000
 dn ___,0,$000
 dn ___,0,$000
 dn ___,0,$000
 dn ___,0,$000
 dn ___,0,$000
 dn ___,0,$000
 dn ___,0,$000
 dn A_4,5,$000
 dn ___,0,$000
 dn ___,0,$000
 dn ___,0,$000
 dn E_5,5,$000
 dn ___,0,$000
 dn ___,0,$000
 dn ___,0,$000
 dn C_5,5,$000
 dn ___,0,$000
 dn ___,0,$000
 dn ___,0,$000
 dn A_4,5,$000
 dn ___,0,$000
 dn ___,0,$000
 dn ___,0,$000
 dn E_5,5,$000
 dn ___,0,$000
 dn ___,0,$000
 dn ___,0,$000

P61:
 dn C_4,2,$901
 dn ___,0,$000
 dn ___,0,$000
 dn ___,0,$000
 dn ___,0,$902
 dn ___,0,$000
 dn ___,0,$000
 dn ___,0,$000
 dn ___,0,$903
 dn ___,0,$000
 dn ___,0,$000
 dn ___,0,$000
 dn ___,0,$904
 dn ___,0,$000
 dn ___,0,$000
 dn ___,0,$000
 dn ___,0,$905
 dn ___,0,$000
 dn ___,0,$000
 dn ___,0,$000
 dn ___,0,$904
 dn ___,0,$000
 dn ___,0,$000
 dn ___,0,$000
 dn ___,0,$903
 dn ___,0,$000
 dn ___,0,$000
 dn ___,0,$000
 dn ___,0,$902
 dn ___,0,$000
 dn ___,0,$000
 dn ___,0,$000
 dn A_3,2,$901
 dn ___,0,$000
 dn ___,0,$000
 dn ___,0,$000
 dn ___,0,$902
 dn ___,0,$000
 dn ___,0,$000
 dn ___,0,$000
 dn ___,0,$903
 dn ___,0,$000
 dn ___,0,$000
 dn ___,0,$000
 dn ___,0,$904
 dn ___,0,$000
 dn ___,0,$000
 dn ___,0,$000
 dn ___,0,$905
 dn ___,0,$000
 dn ___,0,$000
 dn ___,0,$000
 dn ___,0,$904
 dn ___,0,$000
 dn ___,0,$000
 dn ___,0,$000
 dn ___,0,$903
 dn ___,0,$000
 dn ___,0,$000
 dn ___,0,$000
 dn ___,0,$902
 dn ___,0,$000
 dn ___,0,$000
 dn ___,0,$000

P62:
 dn A#6,4,$000
 dn ___,0,$000
 dn ___,0,$000
 dn ___,0,$000
 dn ___,0,$000
 dn ___,0,$000
 dn A#6,2,$000
 dn A#6,2,$000
 dn A#6,2,$000
 dn ___,0,$000
 dn A#6,2,$000
 dn A#6,2,$000
 dn A#6,2,$000
 dn ___,0,$000
 dn A#6,2,$000
 dn A#6,2,$000
 dn A#6,5,$000
 dn ___,0,$000
 dn A#6,2,$000
 dn A#6,2,$000
 dn A#6,2,$000
 dn ___,0,$000
 dn A#6,2,$000
 dn A#6,2,$000
 dn A#6,2,$000
 dn ___,0,$000
 dn A#6,2,$000
 dn A#6,2,$000
 dn A#6,5,$000
 dn ___,0,$000
 dn A#6,2,$000
 dn ___,0,$000
 dn A#6,2,$000
 dn ___,0,$000
 dn A#6,2,$000
 dn A#6,2,$000
 dn A#6,2,$000
 dn ___,0,$000
 dn A#6,2,$000
 dn A#6,2,$000
 dn A#6,2,$000
 dn ___,0,$000
 dn A#6,2,$000
 dn A#6,2,$000
 dn A#6,2,$000
 dn ___,0,$000
 dn A#6,2,$000
 dn A#6,2,$000
 dn A#6,5,$000
 dn ___,0,$000
 dn A#6,2,$000
 dn A#6,2,$000
 dn A#6,5,$000
 dn ___,0,$000
 dn A#6,2,$000
 dn A#6,2,$000
 dn A#6,5,$000
 dn ___,0,$000
 dn A#6,2,$000
 dn A#6,2,$000
 dn A#6,5,$000
 dn ___,0,$000
 dn A#6,2,$000
 dn ___,0,$000

P63:
 dn E_5,2,$000
 dn ___,0,$000
 dn ___,0,$000
 dn ___,0,$000
 dn G_5,2,$000
 dn ___,0,$000
 dn E_5,4,$000
 dn ___,0,$000
 dn B_5,2,$000
 dn ___,0,$000
 dn G_5,4,$000
 dn ___,0,$000
 dn D#6,2,$000
 dn ___,0,$000
 dn B_5,4,$000
 dn ___,0,$000
 dn ___,0,$000
 dn ___,0,$000
 dn D#6,4,$000
 dn ___,0,$000
 dn G_5,2,$000
 dn ___,0,$000
 dn ___,0,$000
 dn ___,0,$000
 dn B_5,2,$000
 dn ___,0,$000
 dn G_5,4,$000
 dn ___,0,$000
 dn D#6,2,$000
 dn ___,0,$000
 dn B_5,4,$000
 dn ___,0,$000
 dn G_5,2,$000
 dn ___,0,$000
 dn ___,0,$000
 dn ___,0,$000
 dn B_5,2,$000
 dn ___,0,$000
 dn G_5,4,$000
 dn ___,0,$000
 dn D_6,2,$000
 dn ___,0,$000
 dn B_5,4,$000
 dn ___,0,$000
 dn G_6,2,$000
 dn ___,0,$000
 dn D_6,4,$000
 dn ___,0,$000
 dn ___,0,$000
 dn ___,0,$000
 dn G_6,4,$000
 dn ___,0,$000
 dn B_5,2,$000
 dn ___,0,$000
 dn ___,0,$000
 dn ___,0,$000
 dn D_6,2,$000
 dn ___,0,$000
 dn B_5,4,$000
 dn ___,0,$000
 dn G_6,2,$000
 dn ___,0,$000
 dn D_6,4,$000
 dn ___,0,$000

P64:
 dn B_4,5,$000
 dn ___,0,$000
 dn ___,0,$000
 dn ___,0,$000
 dn ___,0,$000
 dn ___,0,$000
 dn ___,0,$000
 dn ___,0,$000
 dn ___,0,$000
 dn ___,0,$000
 dn ___,0,$000
 dn ___,0,$000
 dn ___,0,$000
 dn ___,0,$000
 dn ___,0,$000
 dn ___,0,$000
 dn E_5,5,$000
 dn ___,0,$000
 dn ___,0,$000
 dn ___,0,$000
 dn ___,0,$000
 dn ___,0,$000
 dn D#5,5,$000
 dn ___,0,$000
 dn ___,0,$000
 dn ___,0,$000
 dn ___,0,$000
 dn ___,0,$000
 dn G_5,5,$000
 dn ___,0,$000
 dn ___,0,$000
 dn ___,0,$000
 dn G_5,5,$000
 dn ___,0,$000
 dn ___,0,$000
 dn ___,0,$000
 dn B_5,5,$000
 dn ___,0,$000
 dn ___,0,$000
 dn ___,0,$000
 dn G_5,5,$000
 dn ___,0,$000
 dn ___,0,$000
 dn ___,0,$000
 dn D_5,5,$000
 dn ___,0,$000
 dn ___,0,$000
 dn ___,0,$000
 dn B_5,5,$000
 dn ___,0,$000
 dn ___,0,$000
 dn ___,0,$000
 dn ___,0,$000
 dn ___,0,$000
 dn ___,0,$000
 dn ___,0,$000
 dn ___,0,$000
 dn ___,0,$000
 dn ___,0,$000
 dn ___,0,$000
 dn ___,0,$000
 dn ___,0,$000
 dn ___,0,$000
 dn ___,0,$000

P65:
 dn E_3,2,$901
 dn ___,0,$000
 dn ___,0,$000
 dn ___,0,$000
 dn ___,0,$902
 dn ___,0,$000
 dn ___,0,$000
 dn ___,0,$000
 dn ___,0,$903
 dn ___,0,$000
 dn ___,0,$000
 dn ___,0,$000
 dn ___,0,$904
 dn ___,0,$000
 dn ___,0,$000
 dn ___,0,$000
 dn ___,0,$905
 dn ___,0,$000
 dn ___,0,$000
 dn ___,0,$000
 dn ___,0,$904
 dn ___,0,$000
 dn ___,0,$000
 dn ___,0,$000
 dn ___,0,$903
 dn ___,0,$000
 dn ___,0,$000
 dn ___,0,$000
 dn ___,0,$902
 dn ___,0,$000
 dn ___,0,$000
 dn ___,0,$000
 dn G_3,2,$901
 dn ___,0,$000
 dn ___,0,$000
 dn ___,0,$000
 dn ___,0,$902
 dn ___,0,$000
 dn ___,0,$000
 dn ___,0,$000
 dn ___,0,$903
 dn ___,0,$000
 dn ___,0,$000
 dn ___,0,$000
 dn ___,0,$904
 dn ___,0,$000
 dn ___,0,$000
 dn ___,0,$000
 dn ___,0,$905
 dn ___,0,$000
 dn ___,0,$000
 dn ___,0,$000
 dn ___,0,$904
 dn ___,0,$000
 dn ___,0,$000
 dn ___,0,$000
 dn ___,0,$903
 dn ___,0,$000
 dn ___,0,$000
 dn ___,0,$000
 dn ___,0,$902
 dn ___,0,$000
 dn ___,0,$000
 dn ___,0,$000

P66:
 dn A#6,2,$000
 dn ___,0,$000
 dn A#6,2,$000
 dn A#6,2,$000
 dn A#6,2,$000
 dn ___,0,$000
 dn A#6,2,$000
 dn A#6,2,$000
 dn A#6,2,$000
 dn ___,0,$000
 dn A#6,2,$000
 dn A#6,2,$000
 dn A#6,2,$000
 dn ___,0,$000
 dn A#6,2,$000
 dn A#6,2,$000
 dn A#6,5,$000
 dn ___,0,$000
 dn A#6,2,$000
 dn A#6,2,$000
 dn A#6,2,$000
 dn ___,0,$000
 dn A#6,2,$000
 dn A#6,2,$000
 dn A#6,2,$000
 dn ___,0,$000
 dn A#6,2,$000
 dn A#6,2,$000
 dn A#6,5,$000
 dn ___,0,$000
 dn A#6,2,$000
 dn ___,0,$000
 dn A#6,2,$000
 dn ___,0,$000
 dn A#6,2,$000
 dn A#6,2,$000
 dn A#6,2,$000
 dn ___,0,$000
 dn A#6,2,$000
 dn A#6,2,$000
 dn A#6,2,$000
 dn ___,0,$000
 dn A#6,2,$000
 dn A#6,2,$000
 dn A#6,2,$000
 dn ___,0,$000
 dn A#6,2,$000
 dn A#6,2,$000
 dn A#6,1,$000
 dn ___,0,$000
 dn A#6,2,$000
 dn A#6,2,$000
 dn A#6,1,$000
 dn ___,0,$000
 dn A#6,2,$000
 dn A#6,2,$000
 dn A#6,1,$000
 dn ___,0,$000
 dn A#6,2,$000
 dn A#6,2,$000
 dn A#6,1,$000
 dn A#6,1,$000
 dn A#6,1,$000
 dn A#6,1,$000

P67:
 dn A_6,2,$000
 dn C_7,2,$000
 dn E_7,2,$000
 dn G_7,2,$000
 dn A_6,2,$000
 dn C_7,2,$000
 dn E_7,2,$000
 dn G_7,2,$000
 dn A_6,2,$000
 dn C_7,2,$000
 dn E_7,2,$000
 dn G_7,2,$000
 dn A_6,2,$000
 dn C_7,2,$000
 dn E_7,2,$000
 dn G_7,2,$000
 dn A_6,2,$000
 dn C_7,2,$000
 dn E_7,2,$000
 dn G_7,2,$000
 dn A_6,2,$000
 dn C_7,2,$000
 dn E_7,2,$000
 dn G_7,2,$000
 dn A_6,2,$000
 dn C_7,2,$000
 dn E_7,2,$000
 dn G_7,2,$000
 dn A_7,2,$000
 dn G_7,2,$000
 dn E_7,2,$000
 dn C_7,2,$000
 dn F_6,2,$000
 dn A_6,2,$000
 dn C_7,2,$000
 dn E_7,2,$000
 dn F_6,2,$000
 dn A_6,2,$000
 dn C_7,2,$000
 dn E_7,2,$000
 dn F_6,2,$000
 dn A_6,2,$000
 dn C_7,2,$000
 dn E_7,2,$000
 dn F_6,2,$000
 dn A_6,2,$000
 dn C_7,2,$000
 dn E_7,2,$000
 dn G_6,2,$000
 dn B_6,2,$000
 dn D_7,2,$000
 dn G_7,2,$000
 dn G_6,2,$000
 dn B_6,2,$000
 dn D_7,2,$000
 dn G_7,2,$000
 dn G_6,2,$000
 dn B_6,2,$000
 dn D_7,2,$000
 dn G_7,2,$000
 dn B_7,2,$000
 dn G_7,2,$000
 dn D_7,2,$000
 dn B_6,2,$000

P68:
 dn C_7,5,$000
 dn A_6,5,$000
 dn G_6,5,$000
 dn E_6,5,$000
 dn C_6,5,$000
 dn E_6,5,$000
 dn G_6,5,$000
 dn E_6,5,$000
 dn C_7,5,$000
 dn A_6,5,$000
 dn G_6,5,$000
 dn E_6,5,$000
 dn C_6,5,$000
 dn ___,0,$000
 dn E_6,5,$000
 dn ___,0,$000
 dn C_7,5,$000
 dn ___,0,$000
 dn A_6,5,$000
 dn ___,0,$000
 dn E_6,5,$000
 dn ___,0,$000
 dn G_6,5,$000
 dn A_6,5,$000
 dn C_7,5,$000
 dn A_6,5,$000
 dn G_6,5,$000
 dn E_7,5,$000
 dn A_6,5,$000
 dn G_6,5,$000
 dn C_7,5,$000
 dn G_6,5,$000
 dn F_6,5,$000
 dn A_6,5,$000
 dn C_7,5,$000
 dn A_6,5,$000
 dn F_6,5,$000
 dn A_6,5,$000
 dn D_7,5,$000
 dn A_6,5,$000
 dn F_6,5,$000
 dn A_6,5,$000
 dn E_7,5,$000
 dn A_6,5,$000
 dn F_6,5,$000
 dn A_6,5,$000
 dn D_7,5,$000
 dn A_6,5,$000
 dn A_7,5,$000
 dn ___,0,$000
 dn ___,0,$000
 dn ___,0,$000
 dn G_7,5,$000
 dn D_7,5,$000
 dn B_6,5,$000
 dn G_6,5,$000
 dn D_6,5,$000
 dn ___,0,$000
 dn ___,0,$000
 dn ___,0,$000
 dn G_5,5,$000
 dn ___,0,$000
 dn ___,0,$000
 dn ___,0,$000

P69:
 dn A_4,2,$901
 dn A_4,3,$204
 dn ___,0,$208
 dn ___,0,$210
 dn A_3,2,$000
 dn A_4,2,$000
 dn ___,0,$C00
 dn A_3,2,$000
 dn A_4,2,$000
 dn A_3,2,$000
 dn A_3,2,$000
 dn A_4,2,$903
 dn A_3,2,$903
 dn A_3,2,$903
 dn A_4,2,$901
 dn A_3,2,$901
 dn A_4,2,$901
 dn A_4,3,$204
 dn ___,0,$208
 dn ___,0,$210
 dn A_3,2,$000
 dn A_4,2,$000
 dn ___,0,$C00
 dn A_3,2,$000
 dn A_3,2,$000
 dn E_4,2,$904
 dn G_4,2,$903
 dn A_4,2,$902
 dn C_5,2,$901
 dn A_4,2,$902
 dn G_4,2,$903
 dn E_4,2,$904
 dn F_4,2,$901
 dn F_4,3,$204
 dn ___,0,$208
 dn ___,0,$210
 dn F_3,2,$000
 dn F_4,2,$000
 dn ___,0,$C00
 dn F_3,2,$000
 dn F_4,2,$000
 dn F_3,2,$000
 dn F_3,2,$000
 dn F_4,2,$903
 dn F_3,2,$903
 dn F_3,2,$903
 dn F_4,2,$901
 dn F_3,2,$901
 dn G_4,2,$901
 dn G_4,3,$204
 dn ___,0,$208
 dn ___,0,$210
 dn G_3,2,$000
 dn G_4,2,$000
 dn ___,0,$C00
 dn G_3,2,$000
 dn G_3,2,$000
 dn D_4,2,$904
 dn F_4,2,$903
 dn G_4,2,$902
 dn B_4,2,$902
 dn ___,0,$000
 dn D_5,2,$901
 dn ___,0,$000

P70:
 dn A#6,1,$000
 dn ___,0,$000
 dn A#6,2,$000
 dn A#6,2,$000
 dn A#6,1,$000
 dn ___,0,$000
 dn A#6,2,$000
 dn A#6,2,$000
 dn A#6,1,$000
 dn A#6,2,$000
 dn A#6,2,$000
 dn A#6,2,$000
 dn A#6,1,$000
 dn ___,0,$000
 dn A#6,5,$000
 dn ___,0,$000
 dn A#6,1,$000
 dn A#6,2,$000
 dn A#6,2,$000
 dn A#6,2,$000
 dn A#6,1,$000
 dn A#6,2,$000
 dn A#6,2,$000
 dn A#6,2,$000
 dn A#6,1,$000
 dn A#6,2,$000
 dn A#6,2,$000
 dn A#6,5,$000
 dn A#6,1,$000
 dn A#6,2,$000
 dn A#6,1,$000
 dn A#6,5,$000
 dn A#6,1,$000
 dn ___,0,$000
 dn A#6,2,$000
 dn A#6,2,$000
 dn A#6,1,$000
 dn ___,0,$000
 dn A#6,2,$000
 dn A#6,2,$000
 dn A#6,1,$000
 dn A#6,2,$000
 dn A#6,2,$000
 dn A#6,2,$000
 dn A#6,1,$000
 dn ___,0,$000
 dn A#6,2,$000
 dn A#6,2,$000
 dn A#6,1,$000
 dn ___,0,$000
 dn A#6,2,$000
 dn A#6,2,$000
 dn A#6,1,$000
 dn ___,0,$000
 dn A#6,2,$000
 dn A#6,5,$000
 dn A#6,1,$000
 dn ___,0,$000
 dn A#6,2,$000
 dn A#6,2,$000
 dn A#6,1,$000
 dn A#6,5,$000
 dn A#6,1,$000
 dn ___,0,$000

P72:
 dn C_6,5,$000
 dn ___,0,$000
 dn ___,0,$000
 dn ___,0,$000
 dn B_5,5,$000
 dn C_6,5,$000
 dn ___,0,$000
 dn B_5,5,$000
 dn C_6,5,$000
 dn B_5,5,$000
 dn G_5,5,$000
 dn D_6,5,$000
 dn ___,0,$000
 dn C_6,5,$000
 dn ___,0,$000
 dn B_5,5,$000
 dn A_5,5,$000
 dn ___,0,$000
 dn ___,0,$000
 dn ___,0,$000
 dn G_5,5,$000
 dn ___,0,$000
 dn A_5,5,$000
 dn ___,0,$000
 dn E_6,5,$000
 dn C_6,5,$000
 dn A_5,5,$000
 dn G_5,5,$000
 dn E_5,5,$000
 dn ___,0,$000
 dn D_5,5,$000
 dn ___,0,$000
 dn C_5,5,$000
 dn ___,0,$000
 dn F_5,5,$000
 dn ___,0,$000
 dn C_5,5,$000
 dn ___,0,$000
 dn G_5,5,$000
 dn ___,0,$000
 dn C_5,5,$000
 dn ___,0,$000
 dn A_5,5,$000
 dn ___,0,$000
 dn C_5,5,$000
 dn ___,0,$000
 dn B_5,5,$000
 dn ___,0,$000
 dn D_6,5,$000
 dn ___,0,$000
 dn B_5,5,$000
 dn G_5,5,$000
 dn D_6,5,$000
 dn ___,0,$000
 dn B_5,5,$000
 dn G_5,5,$000
 dn E_6,5,$000
 dn ___,0,$000
 dn ___,0,$000
 dn ___,0,$000
 dn F_6,5,$000
 dn ___,0,$000
 dn ___,0,$000
 dn ___,0,$000

P76:
 dn E_6,7,$037
 dn ___,0,$037
 dn ___,0,$037
 dn ___,0,$037
 dn ___,0,$037
 dn ___,0,$037
 dn ___,0,$037
 dn ___,0,$037
 dn ___,0,$037
 dn ___,0,$037
 dn ___,0,$037
 dn ___,0,$037
 dn ___,0,$037
 dn ___,0,$037
 dn ___,0,$037
 dn ___,0,$037
 dn ___,0,$037
 dn ___,0,$037
 dn ___,0,$037
 dn ___,0,$037
 dn ___,0,$037
 dn ___,0,$037
 dn ___,0,$037
 dn ___,0,$037
 dn ___,0,$037
 dn ___,0,$037
 dn ___,0,$037
 dn ___,0,$037
 dn ___,0,$037
 dn ___,0,$037
 dn ___,0,$037
 dn ___,0,$037
 dn ___,0,$000
 dn ___,0,$000
 dn ___,0,$000
 dn ___,0,$000
 dn ___,0,$000
 dn ___,0,$000
 dn ___,0,$000
 dn ___,0,$000
 dn ___,0,$000
 dn ___,0,$000
 dn ___,0,$000
 dn ___,0,$000
 dn ___,0,$000
 dn ___,0,$000
 dn ___,0,$000
 dn ___,0,$000
 dn ___,0,$000
 dn ___,0,$000
 dn ___,0,$000
 dn ___,0,$000
 dn ___,0,$000
 dn ___,0,$000
 dn ___,0,$000
 dn ___,0,$000
 dn ___,0,$000
 dn ___,0,$000
 dn ___,0,$000
 dn ___,0,$000
 dn ___,0,$000
 dn ___,0,$000
 dn ___,0,$000
 dn ___,0,$000

P77:
 dn E_6,5,$000
 dn ___,0,$000
 dn ___,0,$000
 dn ___,0,$000
 dn ___,0,$000
 dn ___,0,$000
 dn ___,0,$000
 dn ___,0,$000
 dn ___,0,$000
 dn ___,0,$000
 dn ___,0,$000
 dn ___,0,$000
 dn ___,0,$000
 dn ___,0,$000
 dn ___,0,$000
 dn ___,0,$000
 dn ___,0,$000
 dn ___,0,$000
 dn ___,0,$000
 dn ___,0,$000
 dn ___,0,$000
 dn ___,0,$000
 dn ___,0,$000
 dn ___,0,$000
 dn ___,0,$000
 dn ___,0,$000
 dn ___,0,$000
 dn ___,0,$000
 dn ___,0,$000
 dn ___,0,$000
 dn ___,0,$000
 dn ___,0,$000
 dn ___,0,$000
 dn ___,0,$000
 dn ___,0,$000
 dn ___,0,$000
 dn ___,0,$000
 dn ___,0,$000
 dn ___,0,$000
 dn ___,0,$000
 dn ___,0,$000
 dn ___,0,$000
 dn ___,0,$000
 dn ___,0,$000
 dn ___,0,$000
 dn ___,0,$000
 dn ___,0,$000
 dn ___,0,$000
 dn ___,0,$000
 dn ___,0,$000
 dn ___,0,$000
 dn ___,0,$000
 dn ___,0,$000
 dn ___,0,$000
 dn ___,0,$000
 dn ___,0,$000
 dn ___,0,$000
 dn ___,0,$000
 dn ___,0,$000
 dn ___,0,$000
 dn ___,0,$000
 dn ___,0,$000
 dn ___,0,$000
 dn ___,0,$000

P78:
 dn E_3,1,$000
 dn ___,0,$000
 dn ___,0,$000
 dn ___,0,$000
 dn ___,0,$000
 dn ___,0,$000
 dn ___,0,$000
 dn ___,0,$000
 dn ___,0,$000
 dn ___,0,$000
 dn ___,0,$000
 dn ___,0,$000
 dn ___,0,$000
 dn ___,0,$000
 dn ___,0,$000
 dn ___,0,$000
 dn ___,0,$000
 dn ___,0,$000
 dn ___,0,$000
 dn ___,0,$000
 dn ___,0,$000
 dn ___,0,$000
 dn ___,0,$000
 dn ___,0,$000
 dn ___,0,$000
 dn ___,0,$000
 dn ___,0,$000
 dn ___,0,$000
 dn ___,0,$000
 dn ___,0,$000
 dn ___,0,$000
 dn ___,0,$B01
 dn ___,0,$000
 dn ___,0,$000
 dn ___,0,$000
 dn ___,0,$000
 dn ___,0,$000
 dn ___,0,$000
 dn ___,0,$000
 dn ___,0,$000
 dn ___,0,$000
 dn ___,0,$000
 dn ___,0,$000
 dn ___,0,$000
 dn ___,0,$000
 dn ___,0,$000
 dn ___,0,$000
 dn ___,0,$000
 dn ___,0,$000
 dn ___,0,$000
 dn ___,0,$000
 dn ___,0,$000
 dn ___,0,$000
 dn ___,0,$000
 dn ___,0,$000
 dn ___,0,$000
 dn ___,0,$000
 dn ___,0,$000
 dn ___,0,$000
 dn ___,0,$000
 dn ___,0,$000
 dn ___,0,$000
 dn ___,0,$000
 dn ___,0,$000

P79:
 dn A#6,4,$000
 dn ___,0,$000
 dn ___,0,$000
 dn ___,0,$000
 dn ___,0,$000
 dn ___,0,$000
 dn ___,0,$000
 dn ___,0,$000
 dn ___,0,$000
 dn ___,0,$000
 dn ___,0,$000
 dn ___,0,$000
 dn ___,0,$000
 dn ___,0,$000
 dn ___,0,$000
 dn ___,0,$000
 dn ___,0,$000
 dn ___,0,$000
 dn ___,0,$000
 dn ___,0,$000
 dn ___,0,$000
 dn ___,0,$000
 dn ___,0,$000
 dn ___,0,$000
 dn ___,0,$000
 dn ___,0,$000
 dn ___,0,$000
 dn ___,0,$000
 dn ___,0,$000
 dn ___,0,$000
 dn ___,0,$000
 dn ___,0,$000
 dn ___,0,$000
 dn ___,0,$000
 dn ___,0,$000
 dn ___,0,$000
 dn ___,0,$000
 dn ___,0,$000
 dn ___,0,$000
 dn ___,0,$000
 dn ___,0,$000
 dn ___,0,$000
 dn ___,0,$000
 dn ___,0,$000
 dn ___,0,$000
 dn ___,0,$000
 dn ___,0,$000
 dn ___,0,$000
 dn ___,0,$000
 dn ___,0,$000
 dn ___,0,$000
 dn ___,0,$000
 dn ___,0,$000
 dn ___,0,$000
 dn ___,0,$000
 dn ___,0,$000
 dn ___,0,$000
 dn ___,0,$000
 dn ___,0,$000
 dn ___,0,$000
 dn ___,0,$000
 dn ___,0,$000
 dn ___,0,$000
 dn ___,0,$000

itSquareSP1:
 dn ___,0,$C4A
 dn ___,0,$000
 dn ___,0,$000
 dn ___,0,$000
 dn ___,0,$000
 dn ___,0,$000
 dn ___,0,$000
 dn ___,0,$000
 dn ___,0,$000
 dn ___,0,$000
 dn ___,0,$000
 dn ___,0,$000
 dn ___,0,$000
 dn ___,0,$000
 dn ___,0,$000
 dn ___,0,$A00
 dn ___,0,$000
 dn ___,0,$000
 dn ___,0,$000
 dn ___,0,$000
 dn ___,0,$000
 dn ___,0,$000
 dn ___,0,$000
 dn ___,0,$000
 dn ___,0,$000
 dn ___,0,$000
 dn ___,0,$000
 dn ___,0,$000
 dn ___,0,$000
 dn ___,0,$000
 dn ___,0,$4D8
 dn ___,31,$000

itSquareSP2:
 dn ___,0,$000
 dn ___,0,$000
 dn ___,0,$000
 dn ___,0,$000
 dn ___,0,$980
 dn ___,0,$000
 dn ___,0,$000
 dn ___,0,$000
 dn ___,0,$000
 dn ___,0,$000
 dn ___,0,$000
 dn ___,0,$000
 dn ___,0,$000
 dn ___,0,$000
 dn ___,0,$000
 dn ___,0,$000
 dn ___,0,$000
 dn ___,0,$000
 dn ___,0,$000
 dn ___,0,$000
 dn ___,0,$000
 dn ___,0,$000
 dn ___,0,$000
 dn ___,0,$000
 dn ___,0,$000
 dn ___,0,$000
 dn ___,0,$000
 dn ___,0,$000
 dn ___,0,$000
 dn ___,0,$000
 dn ___,0,$000
 dn ___,1,$000

itSquareSP4:
 dn ___,0,$C00
 dn ___,0,$000
 dn ___,0,$000
 dn ___,0,$C44
 dn ___,0,$000
 dn ___,0,$000
 dn ___,0,$000
 dn ___,0,$000
 dn ___,0,$000
 dn ___,0,$000
 dn ___,0,$000
 dn ___,0,$000
 dn ___,0,$000
 dn ___,0,$000
 dn ___,0,$000
 dn ___,0,$000
 dn ___,0,$000
 dn ___,0,$000
 dn ___,0,$000
 dn ___,0,$000
 dn ___,0,$000
 dn ___,0,$000
 dn ___,0,$000
 dn ___,0,$000
 dn ___,0,$000
 dn ___,0,$000
 dn ___,0,$000
 dn ___,0,$000
 dn ___,0,$000
 dn ___,0,$000
 dn ___,0,$000
 dn ___,31,$000

itSquareSP5:
 dn ___,0,$940
 dn ___,0,$000
 dn ___,0,$900
 dn ___,0,$000
 dn ___,0,$980
 dn ___,0,$000
 dn ___,0,$000
 dn ___,0,$000
 dn ___,0,$000
 dn ___,0,$000
 dn ___,0,$000
 dn ___,0,$000
 dn ___,0,$000
 dn ___,0,$000
 dn ___,0,$000
 dn ___,0,$000
 dn ___,0,$000
 dn ___,0,$000
 dn ___,0,$000
 dn ___,0,$000
 dn ___,0,$000
 dn ___,0,$000
 dn ___,0,$000
 dn ___,0,$000
 dn ___,0,$000
 dn ___,0,$000
 dn ___,0,$000
 dn ___,0,$000
 dn ___,0,$000
 dn ___,0,$000
 dn ___,0,$000
 dn ___,31,$000

itWaveSP3:
 dn ___,0,$000
 dn ___,0,$000
 dn ___,0,$902
 dn ___,0,$000
 dn ___,0,$903
 dn ___,0,$000
 dn ___,0,$904
 dn ___,0,$000
 dn ___,0,$905
 dn ___,0,$C08
 dn ___,0,$901
 dn ___,0,$000
 dn ___,0,$902
 dn ___,0,$000
 dn ___,0,$903
 dn ___,0,$000
 dn ___,0,$904
 dn ___,0,$000
 dn ___,0,$905
 dn ___,0,$C04
 dn ___,0,$901
 dn ___,0,$000
 dn ___,0,$902
 dn ___,0,$000
 dn ___,0,$903
 dn ___,0,$000
 dn ___,0,$904
 dn ___,0,$000
 dn ___,0,$905
 dn ___,0,$000
 dn ___,0,$000
 dn ___,31,$000

itNoiseSP1:
 dn 33,0,$000
 dn 27,0,$000
 dn 24,0,$000
 dn 39,0,$900
 dn ___,0,$000
 dn ___,0,$000
 dn ___,0,$000
 dn ___,0,$000
 dn ___,0,$000
 dn ___,0,$000
 dn ___,0,$000
 dn ___,0,$000
 dn ___,0,$000
 dn ___,0,$000
 dn ___,0,$000
 dn ___,0,$000
 dn ___,0,$000
 dn ___,0,$000
 dn ___,0,$000
 dn ___,0,$000
 dn ___,0,$000
 dn ___,0,$000
 dn ___,0,$000
 dn ___,0,$000
 dn ___,0,$000
 dn ___,0,$000
 dn ___,0,$000
 dn ___,0,$000
 dn ___,0,$000
 dn ___,0,$000
 dn ___,0,$000
 dn ___,1,$000

itNoiseSP2:
 dn 45,0,$000
 dn 47,1,$000
 dn ___,0,$000
 dn ___,0,$000
 dn ___,0,$000
 dn ___,0,$000
 dn ___,0,$000
 dn ___,0,$000
 dn ___,0,$000
 dn ___,0,$000
 dn ___,0,$000
 dn ___,0,$000
 dn ___,0,$000
 dn ___,0,$000
 dn ___,0,$000
 dn ___,0,$000
 dn ___,0,$000
 dn ___,0,$000
 dn ___,0,$000
 dn ___,0,$000
 dn ___,0,$000
 dn ___,0,$000
 dn ___,0,$000
 dn ___,0,$000
 dn ___,0,$000
 dn ___,0,$000
 dn ___,0,$000
 dn ___,0,$000
 dn ___,0,$000
 dn ___,0,$000
 dn ___,0,$000
 dn ___,1,$000

itNoiseSP3:
 dn 36,0,$000
 dn 30,0,$000
 dn 26,0,$000
 dn ___,0,$000
 dn ___,0,$000
 dn ___,0,$000
 dn ___,0,$000
 dn ___,0,$000
 dn ___,0,$000
 dn ___,0,$000
 dn ___,0,$000
 dn ___,0,$000
 dn ___,0,$000
 dn ___,0,$000
 dn ___,0,$000
 dn ___,0,$000
 dn ___,0,$000
 dn ___,0,$000
 dn ___,0,$000
 dn ___,0,$000
 dn ___,0,$000
 dn ___,0,$000
 dn ___,0,$000
 dn ___,0,$000
 dn ___,0,$000
 dn ___,0,$000
 dn ___,0,$000
 dn ___,0,$000
 dn ___,0,$000
 dn ___,0,$000
 dn ___,0,$000
 dn ___,1,$000

itNoiseSP4:
 dn 33,0,$000
 dn 27,0,$000
 dn 24,0,$000
 dn 39,0,$900
 dn ___,0,$000
 dn ___,0,$000
 dn ___,0,$000
 dn ___,0,$000
 dn ___,0,$000
 dn ___,0,$000
 dn ___,0,$000
 dn ___,0,$000
 dn ___,0,$000
 dn ___,0,$000
 dn ___,0,$000
 dn ___,0,$000
 dn ___,0,$000
 dn ___,0,$000
 dn ___,0,$000
 dn ___,0,$000
 dn ___,0,$000
 dn ___,0,$000
 dn ___,0,$000
 dn ___,0,$000
 dn ___,0,$000
 dn ___,0,$000
 dn ___,0,$000
 dn ___,0,$000
 dn ___,0,$000
 dn ___,0,$000
 dn ___,0,$000
 dn ___,31,$000

itNoiseSP5:
 dn 45,0,$000
 dn 47,0,$000
 dn ___,0,$000
 dn ___,0,$000
 dn ___,0,$000
 dn ___,0,$000
 dn ___,0,$000
 dn ___,0,$000
 dn ___,0,$000
 dn ___,0,$000
 dn ___,0,$000
 dn ___,0,$000
 dn ___,0,$000
 dn ___,0,$000
 dn ___,0,$000
 dn ___,0,$000
 dn ___,0,$000
 dn ___,0,$000
 dn ___,0,$000
 dn ___,0,$000
 dn ___,0,$000
 dn ___,0,$000
 dn ___,0,$000
 dn ___,0,$000
 dn ___,0,$000
 dn ___,0,$000
 dn ___,0,$000
 dn ___,0,$000
 dn ___,0,$000
 dn ___,0,$000
 dn ___,0,$000
 dn ___,1,$000

duty_instruments:
itSquareinst1:
db 8
db 128
db 160
dw itSquareSP1
db 128

itSquareinst2:
db 8
db 64
db 161
dw itSquareSP2
db 128

itSquareinst3:
db 8
db 128
db 240
dw 0
db 128

itSquareinst4:
db 8
db 128
db 0
dw itSquareSP4
db 128

itSquareinst5:
db 8
db 128
db 192
dw itSquareSP5
db 128

itSquareinst6:
db 8
db 64
db 241
dw 0
db 128

itSquareinst7:
db 8
db 64
db 247
dw 0
db 128

itSquareinst8:
db 8
db 192
db 241
dw 0
db 128

itSquareinst9:
db 8
db 128
db 240
dw 0
db 128

itSquareinst10:
db 8
db 128
db 240
dw 0
db 128

itSquareinst11:
db 8
db 128
db 240
dw 0
db 128

itSquareinst12:
db 8
db 128
db 240
dw 0
db 128

itSquareinst13:
db 8
db 128
db 240
dw 0
db 128

itSquareinst14:
db 8
db 128
db 240
dw 0
db 128

itSquareinst15:
db 8
db 128
db 240
dw 0
db 128



wave_instruments:
itWaveinst1:
db 0
db 32
db 0
dw 0
db 128

itWaveinst2:
db 0
db 32
db 5
dw 0
db 128

itWaveinst3:
db 0
db 32
db 5
dw itWaveSP3
db 128

itWaveinst4:
db 0
db 32
db 3
dw 0
db 128

itWaveinst5:
db 0
db 32
db 4
dw 0
db 128

itWaveinst6:
db 0
db 32
db 5
dw 0
db 128

itWaveinst7:
db 0
db 32
db 6
dw 0
db 128

itWaveinst8:
db 0
db 32
db 7
dw 0
db 128

itWaveinst9:
db 0
db 32
db 8
dw 0
db 128

itWaveinst10:
db 0
db 32
db 9
dw 0
db 128

itWaveinst11:
db 0
db 32
db 10
dw 0
db 128

itWaveinst12:
db 0
db 32
db 11
dw 0
db 128

itWaveinst13:
db 0
db 32
db 12
dw 0
db 128

itWaveinst14:
db 0
db 32
db 13
dw 0
db 128

itWaveinst15:
db 0
db 32
db 14
dw 0
db 128



noise_instruments:
itNoiseinst1:
db 241
dw itNoiseSP1
db 128
ds 2

itNoiseinst2:
db 129
dw itNoiseSP2
db 48
ds 2

itNoiseinst3:
db 241
dw itNoiseSP3
db 111
ds 2

itNoiseinst4:
db 247
dw itNoiseSP4
db 128
ds 2

itNoiseinst5:
db 178
dw itNoiseSP5
db 0
ds 2

itNoiseinst6:
db 240
dw 0
db 0
ds 2

itNoiseinst7:
db 240
dw 0
db 0
ds 2

itNoiseinst8:
db 240
dw 0
db 0
ds 2

itNoiseinst9:
db 240
dw 0
db 0
ds 2

itNoiseinst10:
db 240
dw 0
db 0
ds 2

itNoiseinst11:
db 240
dw 0
db 0
ds 2

itNoiseinst12:
db 240
dw 0
db 0
ds 2

itNoiseinst13:
db 240
dw 0
db 0
ds 2

itNoiseinst14:
db 240
dw 0
db 0
ds 2

itNoiseinst15:
db 240
dw 0
db 0
ds 2



routines:
__hUGE_Routine_0:

__end_hUGE_Routine_0:
ret

__hUGE_Routine_1:

__end_hUGE_Routine_1:
ret

__hUGE_Routine_2:

__end_hUGE_Routine_2:
ret

__hUGE_Routine_3:

__end_hUGE_Routine_3:
ret

__hUGE_Routine_4:

__end_hUGE_Routine_4:
ret

__hUGE_Routine_5:

__end_hUGE_Routine_5:
ret

__hUGE_Routine_6:

__end_hUGE_Routine_6:
ret

__hUGE_Routine_7:

__end_hUGE_Routine_7:
ret

__hUGE_Routine_8:

__end_hUGE_Routine_8:
ret

__hUGE_Routine_9:

__end_hUGE_Routine_9:
ret

__hUGE_Routine_10:

__end_hUGE_Routine_10:
ret

__hUGE_Routine_11:

__end_hUGE_Routine_11:
ret

__hUGE_Routine_12:

__end_hUGE_Routine_12:
ret

__hUGE_Routine_13:

__end_hUGE_Routine_13:
ret

__hUGE_Routine_14:

__end_hUGE_Routine_14:
ret

__hUGE_Routine_15:

__end_hUGE_Routine_15:
ret

waves:
wave0: db 0,5,173,255,238,2,15,254,238,221,221,238,239,255,83,33
wave1: db 1,17,17,17,17,17,17,16,0,11,157,0,0,0,0,15
wave2: db 1,17,17,17,17,1,36,106,162,204,197,0,0,14,255,255
wave3: db 0,5,135,119,113,7,168,199,64,0,0,0,239,255,255,255
wave4: db 3,68,68,1,68,68,50,0,0,0,239,255,255,255,255,255
wave5: db 3,51,51,48,51,51,51,0,28,239,255,255,255,255,255,255
wave6: db 122,205,219,117,33,19,104,189,220,151,65,1,71,156,221,184
wave7: db 15,15,15,15,15,15,15,15,15,15,15,15,15,15,15,15
wave8: db 254,252,250,248,246,244,242,240,242,244,246,248,250,252,254,255
wave9: db 254,221,204,187,170,153,136,119,138,189,241,36,87,138,189,238
wave10: db 132,17,97,237,87,71,90,173,206,163,23,121,221,32,3,71
wave11: db 99,230,81,12,137,171,109,117,70,141,13,172,164,137,105,14
wave12: db 136,82,48,209,126,216,174,106,50,203,212,195,106,162,137,181
wave13: db 154,224,14,38,183,172,43,166,9,96,188,235,80,59,138,165
wave14: db 170,115,157,224,73,17,76,157,112,237,170,232,1,124,120,225
wave15: db 105,227,97,64,125,110,16,130,25,68,136,50,220,227,86,83

