include "include/hUGE.inc"

SECTION "Song Data", ROMX

xFieldMusic::
db 4
dw order_cnt
dw order1, order2, order3, order4
dw duty_instruments, wave_instruments, noise_instruments
dw routines
dw waves

order_cnt: db 20
order1: dw P8,P13,P17,P13,P17,P22,P51,P55,P51,P63
order2: dw P9,P14,P18,P14,P18,P23,P52,P56,P52,P64
order3: dw P10,P15,P19,P15,P21,P24,P53,P57,P53,P65
order4: dw P11,P16,P20,P16,P20,P25,P54,P58,P54,P66

P8:
 dn ___,0,$000
 dn ___,0,$000
 dn ___,0,$000
 dn ___,0,$000
 dn ___,0,$000
 dn ___,0,$000
 dn ___,0,$000
 dn ___,0,$000
 dn ___,0,$000
 dn ___,0,$000
 dn ___,0,$000
 dn ___,0,$000
 dn ___,0,$000
 dn ___,0,$000
 dn ___,0,$000
 dn ___,0,$000
 dn ___,0,$000
 dn ___,0,$000
 dn ___,0,$000
 dn ___,0,$000
 dn ___,0,$000
 dn ___,0,$000
 dn ___,0,$000
 dn ___,0,$000
 dn ___,0,$000
 dn ___,0,$000
 dn ___,0,$000
 dn ___,0,$000
 dn ___,0,$000
 dn ___,0,$000
 dn ___,0,$000
 dn ___,0,$000
 dn ___,0,$000
 dn ___,0,$000
 dn ___,0,$000
 dn ___,0,$000
 dn ___,0,$000
 dn ___,0,$000
 dn ___,0,$000
 dn ___,0,$000
 dn ___,0,$000
 dn ___,0,$000
 dn ___,0,$000
 dn ___,0,$000
 dn ___,0,$000
 dn ___,0,$000
 dn ___,0,$000
 dn ___,0,$000
 dn ___,0,$000
 dn ___,0,$000
 dn ___,0,$000
 dn ___,0,$000
 dn ___,0,$000
 dn ___,0,$000
 dn ___,0,$000
 dn ___,0,$000
 dn ___,0,$000
 dn ___,0,$000
 dn ___,0,$000
 dn ___,0,$000
 dn ___,0,$000
 dn ___,0,$000
 dn ___,0,$000
 dn ___,0,$000

P9:
 dn ___,0,$000
 dn ___,0,$000
 dn ___,0,$000
 dn ___,0,$000
 dn ___,0,$000
 dn ___,0,$000
 dn ___,0,$000
 dn ___,0,$000
 dn ___,0,$000
 dn ___,0,$000
 dn ___,0,$000
 dn ___,0,$000
 dn ___,0,$000
 dn ___,0,$000
 dn ___,0,$000
 dn ___,0,$000
 dn ___,0,$000
 dn ___,0,$000
 dn ___,0,$000
 dn ___,0,$000
 dn ___,0,$000
 dn ___,0,$000
 dn ___,0,$000
 dn ___,0,$000
 dn ___,0,$000
 dn ___,0,$000
 dn ___,0,$000
 dn ___,0,$000
 dn ___,0,$000
 dn ___,0,$000
 dn ___,0,$000
 dn ___,0,$000
 dn ___,0,$000
 dn ___,0,$000
 dn ___,0,$000
 dn ___,0,$000
 dn ___,0,$000
 dn ___,0,$000
 dn ___,0,$000
 dn ___,0,$000
 dn ___,0,$000
 dn ___,0,$000
 dn ___,0,$000
 dn ___,0,$000
 dn ___,0,$000
 dn ___,0,$000
 dn ___,0,$000
 dn ___,0,$000
 dn ___,0,$000
 dn ___,0,$000
 dn ___,0,$000
 dn ___,0,$000
 dn ___,0,$000
 dn ___,0,$000
 dn ___,0,$000
 dn ___,0,$000
 dn ___,0,$000
 dn ___,0,$000
 dn ___,0,$000
 dn ___,0,$000
 dn ___,0,$000
 dn ___,0,$000
 dn ___,0,$000
 dn ___,0,$000

P10:
 dn C_4,1,$2B4
 dn ___,0,$E00
 dn ___,0,$000
 dn ___,0,$000
 dn ___,0,$000
 dn ___,0,$000
 dn ___,0,$000
 dn ___,0,$000
 dn C_4,1,$2B4
 dn ___,0,$E00
 dn ___,0,$000
 dn ___,0,$000
 dn ___,0,$000
 dn ___,0,$000
 dn ___,0,$000
 dn ___,0,$000
 dn C_4,1,$2B4
 dn ___,0,$E00
 dn ___,0,$000
 dn ___,0,$000
 dn C_4,1,$2B4
 dn ___,0,$E00
 dn C_4,1,$2B4
 dn ___,0,$E00
 dn C_4,1,$2B4
 dn ___,0,$E00
 dn ___,0,$000
 dn ___,0,$000
 dn C_4,1,$2B4
 dn ___,0,$E00
 dn ___,0,$000
 dn ___,0,$000
 dn ___,0,$000
 dn ___,0,$000
 dn ___,0,$000
 dn ___,0,$000
 dn ___,0,$000
 dn ___,0,$000
 dn ___,0,$000
 dn ___,0,$000
 dn ___,0,$000
 dn ___,0,$000
 dn ___,0,$000
 dn ___,0,$000
 dn ___,0,$000
 dn ___,0,$000
 dn ___,0,$000
 dn ___,0,$000
 dn ___,0,$000
 dn ___,0,$000
 dn ___,0,$000
 dn ___,0,$000
 dn ___,0,$000
 dn ___,0,$000
 dn ___,0,$000
 dn ___,0,$000
 dn ___,0,$000
 dn ___,0,$000
 dn ___,0,$000
 dn ___,0,$000
 dn ___,0,$000
 dn ___,0,$000
 dn ___,0,$000
 dn ___,0,$000

P11:
 dn D_6,1,$000
 dn ___,0,$000
 dn ___,0,$000
 dn ___,0,$000
 dn ___,0,$000
 dn ___,0,$000
 dn ___,0,$000
 dn ___,0,$000
 dn D_6,1,$000
 dn ___,0,$000
 dn ___,0,$000
 dn ___,0,$000
 dn ___,0,$000
 dn ___,0,$000
 dn ___,0,$000
 dn ___,0,$000
 dn D_6,1,$000
 dn ___,0,$000
 dn ___,0,$000
 dn ___,0,$000
 dn D_6,1,$000
 dn ___,0,$000
 dn D_6,1,$000
 dn ___,0,$000
 dn D_6,1,$000
 dn ___,0,$000
 dn ___,0,$000
 dn ___,0,$000
 dn D_6,1,$000
 dn ___,0,$000
 dn ___,0,$000
 dn ___,0,$D01
 dn ___,0,$000
 dn ___,0,$000
 dn ___,0,$000
 dn ___,0,$000
 dn ___,0,$000
 dn ___,0,$000
 dn ___,0,$000
 dn ___,0,$000
 dn ___,0,$000
 dn ___,0,$000
 dn ___,0,$000
 dn ___,0,$000
 dn ___,0,$000
 dn ___,0,$000
 dn ___,0,$000
 dn ___,0,$000
 dn ___,0,$000
 dn ___,0,$000
 dn ___,0,$000
 dn ___,0,$000
 dn ___,0,$000
 dn ___,0,$000
 dn ___,0,$000
 dn ___,0,$000
 dn ___,0,$000
 dn ___,0,$000
 dn ___,0,$000
 dn ___,0,$000
 dn ___,0,$000
 dn ___,0,$000
 dn ___,0,$000
 dn ___,0,$000

P13:
 dn E_4,4,$000
 dn ___,0,$000
 dn ___,0,$000
 dn ___,0,$000
 dn ___,0,$000
 dn ___,0,$000
 dn ___,0,$000
 dn ___,0,$000
 dn ___,0,$000
 dn ___,0,$000
 dn E_4,1,$000
 dn ___,0,$000
 dn C_4,1,$000
 dn ___,0,$000
 dn ___,0,$000
 dn ___,0,$000
 dn A_3,1,$000
 dn ___,0,$000
 dn ___,0,$000
 dn ___,0,$000
 dn A_3,1,$000
 dn ___,0,$000
 dn ___,0,$000
 dn ___,0,$000
 dn B_3,1,$000
 dn ___,0,$000
 dn ___,0,$000
 dn ___,0,$000
 dn A_3,1,$000
 dn ___,0,$000
 dn ___,0,$000
 dn ___,0,$000
 dn B_3,4,$000
 dn ___,0,$000
 dn ___,0,$000
 dn ___,0,$000
 dn ___,0,$000
 dn ___,0,$000
 dn ___,0,$000
 dn ___,0,$000
 dn ___,0,$000
 dn ___,0,$000
 dn ___,0,$000
 dn ___,0,$000
 dn B_3,1,$000
 dn ___,0,$000
 dn A#3,1,$000
 dn ___,0,$000
 dn B_3,4,$000
 dn ___,0,$000
 dn ___,0,$000
 dn ___,0,$000
 dn ___,0,$000
 dn ___,0,$000
 dn ___,0,$000
 dn ___,0,$000
 dn ___,0,$000
 dn ___,0,$000
 dn ___,0,$000
 dn ___,0,$000
 dn ___,0,$000
 dn ___,0,$000
 dn ___,0,$000
 dn ___,0,$000

P14:
 dn A_4,4,$000
 dn ___,0,$000
 dn ___,0,$000
 dn ___,0,$000
 dn ___,0,$000
 dn ___,0,$000
 dn ___,0,$000
 dn ___,0,$000
 dn ___,0,$000
 dn ___,0,$000
 dn B_4,1,$000
 dn ___,0,$000
 dn A_4,1,$000
 dn ___,0,$000
 dn ___,0,$000
 dn ___,0,$000
 dn E_4,1,$000
 dn ___,0,$000
 dn ___,0,$000
 dn ___,0,$000
 dn C_4,1,$000
 dn ___,0,$000
 dn ___,0,$000
 dn ___,0,$000
 dn E_4,1,$000
 dn ___,0,$000
 dn ___,0,$000
 dn ___,0,$000
 dn C_4,1,$000
 dn ___,0,$000
 dn ___,0,$000
 dn ___,0,$000
 dn D_4,4,$000
 dn ___,0,$000
 dn ___,0,$000
 dn ___,0,$000
 dn ___,0,$000
 dn ___,0,$000
 dn ___,0,$000
 dn ___,0,$000
 dn ___,0,$000
 dn ___,0,$000
 dn ___,0,$000
 dn ___,0,$000
 dn D_4,1,$000
 dn ___,0,$000
 dn D#4,1,$000
 dn ___,0,$000
 dn E_4,4,$000
 dn ___,0,$000
 dn ___,0,$000
 dn ___,0,$000
 dn ___,0,$000
 dn ___,0,$000
 dn ___,0,$000
 dn ___,0,$000
 dn ___,0,$000
 dn ___,0,$000
 dn ___,0,$000
 dn ___,0,$000
 dn G#3,1,$000
 dn ___,0,$000
 dn ___,0,$000
 dn ___,0,$000

P15:
 dn A_3,1,$000
 dn ___,0,$000
 dn ___,0,$000
 dn ___,0,$000
 dn ___,0,$000
 dn ___,0,$000
 dn ___,0,$000
 dn ___,0,$000
 dn ___,0,$000
 dn ___,0,$000
 dn ___,0,$E00
 dn ___,0,$000
 dn A_4,1,$000
 dn ___,0,$000
 dn A_3,1,$000
 dn ___,0,$000
 dn ___,0,$000
 dn ___,0,$000
 dn ___,0,$000
 dn ___,0,$000
 dn E_4,1,$000
 dn ___,0,$000
 dn ___,0,$E00
 dn ___,0,$000
 dn A_4,1,$000
 dn ___,0,$000
 dn ___,0,$43F
 dn ___,0,$43F
 dn G#4,1,$000
 dn ___,0,$000
 dn ___,0,$E00
 dn ___,0,$000
 dn F_4,1,$000
 dn ___,0,$000
 dn ___,0,$000
 dn ___,0,$000
 dn ___,0,$000
 dn ___,0,$000
 dn ___,0,$000
 dn ___,0,$000
 dn ___,0,$000
 dn ___,0,$000
 dn ___,0,$000
 dn ___,0,$000
 dn G_4,1,$000
 dn ___,0,$000
 dn F_4,1,$000
 dn ___,0,$000
 dn E_4,1,$000
 dn ___,0,$000
 dn ___,0,$000
 dn ___,0,$000
 dn ___,0,$000
 dn ___,0,$000
 dn ___,0,$000
 dn ___,0,$000
 dn G_3,1,$000
 dn ___,0,$000
 dn ___,0,$E00
 dn ___,0,$000
 dn G#3,1,$000
 dn ___,0,$000
 dn ___,0,$E00
 dn ___,0,$000

P16:
 dn D_6,1,$000
 dn ___,0,$000
 dn ___,0,$000
 dn ___,0,$000
 dn ___,0,$000
 dn ___,0,$000
 dn ___,0,$000
 dn ___,0,$000
 dn D_6,1,$000
 dn ___,0,$000
 dn D_6,1,$000
 dn ___,0,$000
 dn ___,0,$000
 dn ___,0,$000
 dn D_6,1,$000
 dn ___,0,$000
 dn D_6,1,$000
 dn ___,0,$000
 dn ___,0,$000
 dn ___,0,$000
 dn ___,0,$000
 dn ___,0,$000
 dn ___,0,$000
 dn ___,0,$000
 dn D_6,1,$000
 dn ___,0,$000
 dn D_6,1,$000
 dn ___,0,$000
 dn ___,0,$000
 dn ___,0,$000
 dn ___,0,$000
 dn ___,0,$000
 dn D_6,1,$000
 dn ___,0,$000
 dn ___,0,$000
 dn ___,0,$000
 dn ___,0,$000
 dn ___,0,$000
 dn ___,0,$000
 dn ___,0,$000
 dn D_6,1,$000
 dn ___,0,$000
 dn D_6,1,$000
 dn ___,0,$000
 dn ___,0,$000
 dn ___,0,$000
 dn ___,0,$000
 dn ___,0,$000
 dn D_6,1,$000
 dn ___,0,$000
 dn ___,0,$000
 dn ___,0,$000
 dn ___,0,$000
 dn ___,0,$000
 dn ___,0,$000
 dn ___,0,$000
 dn D_6,1,$000
 dn ___,0,$000
 dn D_6,1,$000
 dn ___,0,$000
 dn ___,0,$000
 dn ___,0,$000
 dn ___,0,$000
 dn ___,0,$000

P17:
 dn E_4,4,$000
 dn ___,0,$000
 dn ___,0,$000
 dn ___,0,$000
 dn ___,0,$000
 dn ___,0,$000
 dn ___,0,$000
 dn ___,0,$000
 dn ___,0,$000
 dn ___,0,$000
 dn E_4,1,$000
 dn ___,0,$000
 dn E_4,1,$000
 dn ___,0,$000
 dn C_4,1,$000
 dn ___,0,$000
 dn G#4,1,$000
 dn ___,0,$000
 dn ___,0,$000
 dn ___,0,$000
 dn G#4,1,$000
 dn ___,0,$000
 dn ___,0,$000
 dn ___,0,$000
 dn A_4,1,$000
 dn ___,0,$000
 dn ___,0,$000
 dn ___,0,$000
 dn G#4,1,$000
 dn ___,0,$000
 dn ___,0,$000
 dn ___,0,$000
 dn B_4,4,$000
 dn ___,0,$000
 dn ___,0,$000
 dn ___,0,$000
 dn ___,0,$000
 dn ___,0,$000
 dn ___,0,$000
 dn ___,0,$000
 dn ___,0,$000
 dn ___,0,$000
 dn ___,0,$000
 dn ___,0,$000
 dn D#4,1,$000
 dn ___,0,$000
 dn E_4,1,$000
 dn ___,0,$000
 dn F_4,4,$000
 dn ___,0,$000
 dn ___,0,$000
 dn ___,0,$000
 dn ___,0,$000
 dn ___,0,$000
 dn ___,0,$000
 dn ___,0,$000
 dn ___,0,$000
 dn ___,0,$000
 dn ___,0,$000
 dn ___,0,$000
 dn ___,0,$000
 dn ___,0,$000
 dn ___,0,$000
 dn ___,0,$000

P18:
 dn A_4,4,$000
 dn ___,0,$000
 dn ___,0,$000
 dn ___,0,$000
 dn ___,0,$000
 dn ___,0,$000
 dn ___,0,$000
 dn ___,0,$000
 dn ___,0,$000
 dn ___,0,$000
 dn E_5,1,$000
 dn ___,0,$000
 dn B_4,1,$000
 dn ___,0,$000
 dn A_4,1,$000
 dn ___,0,$000
 dn F_5,1,$000
 dn ___,0,$000
 dn ___,0,$000
 dn ___,0,$000
 dn E_5,1,$000
 dn ___,0,$000
 dn ___,0,$000
 dn ___,0,$000
 dn D_5,1,$000
 dn ___,0,$000
 dn ___,0,$000
 dn ___,0,$000
 dn C_5,1,$000
 dn ___,0,$000
 dn ___,0,$000
 dn ___,0,$000
 dn D_5,4,$000
 dn ___,0,$000
 dn ___,0,$000
 dn ___,0,$000
 dn ___,0,$000
 dn ___,0,$000
 dn ___,0,$000
 dn ___,0,$000
 dn ___,0,$000
 dn ___,0,$000
 dn ___,0,$000
 dn ___,0,$000
 dn E_5,1,$000
 dn ___,0,$000
 dn D_5,1,$000
 dn ___,0,$000
 dn B_4,4,$000
 dn ___,0,$000
 dn ___,0,$000
 dn ___,0,$000
 dn ___,0,$000
 dn ___,0,$000
 dn ___,0,$000
 dn ___,0,$000
 dn ___,0,$000
 dn ___,0,$000
 dn ___,0,$000
 dn ___,0,$000
 dn G#3,1,$000
 dn ___,0,$000
 dn ___,0,$000
 dn ___,0,$000

P19:
 dn A_3,1,$000
 dn ___,0,$000
 dn ___,0,$000
 dn ___,0,$000
 dn ___,0,$000
 dn ___,0,$000
 dn ___,0,$000
 dn ___,0,$000
 dn ___,0,$000
 dn ___,0,$000
 dn ___,0,$E00
 dn ___,0,$000
 dn A_4,1,$000
 dn ___,0,$000
 dn A_3,1,$000
 dn ___,0,$000
 dn ___,0,$000
 dn ___,0,$000
 dn ___,0,$000
 dn ___,0,$000
 dn E_4,1,$000
 dn ___,0,$000
 dn ___,0,$E00
 dn ___,0,$000
 dn A_4,1,$000
 dn ___,0,$000
 dn ___,0,$43F
 dn ___,0,$43F
 dn G#4,1,$000
 dn ___,0,$000
 dn ___,0,$E00
 dn ___,0,$000
 dn C_4,1,$000
 dn ___,0,$000
 dn ___,0,$000
 dn ___,0,$000
 dn C_5,1,$000
 dn ___,0,$000
 dn ___,0,$E00
 dn ___,0,$000
 dn B_3,1,$000
 dn ___,0,$000
 dn ___,0,$000
 dn ___,0,$000
 dn B_4,1,$000
 dn ___,0,$000
 dn ___,0,$E00
 dn ___,0,$000
 dn G#3,1,$000
 dn ___,0,$000
 dn ___,0,$000
 dn ___,0,$000
 dn G#4,1,$000
 dn ___,0,$000
 dn ___,0,$E00
 dn ___,0,$000
 dn F_3,1,$000
 dn ___,0,$000
 dn ___,0,$000
 dn ___,0,$000
 dn F_4,1,$000
 dn ___,0,$000
 dn ___,0,$E00
 dn ___,0,$000

P20:
 dn D_6,1,$000
 dn ___,0,$000
 dn ___,0,$000
 dn ___,0,$000
 dn ___,0,$000
 dn ___,0,$000
 dn ___,0,$000
 dn ___,0,$000
 dn D_6,1,$000
 dn ___,0,$000
 dn D_6,1,$000
 dn D_6,1,$000
 dn D_6,1,$000
 dn ___,0,$000
 dn ___,0,$000
 dn ___,0,$000
 dn D_6,1,$000
 dn ___,0,$000
 dn ___,0,$000
 dn ___,0,$000
 dn ___,0,$000
 dn ___,0,$000
 dn ___,0,$000
 dn ___,0,$000
 dn D_6,1,$000
 dn ___,0,$000
 dn D_6,1,$000
 dn ___,0,$000
 dn ___,0,$000
 dn ___,0,$000
 dn ___,0,$000
 dn ___,0,$000
 dn D_6,1,$000
 dn ___,0,$000
 dn ___,0,$000
 dn ___,0,$000
 dn ___,0,$000
 dn ___,0,$000
 dn ___,0,$000
 dn ___,0,$000
 dn D_6,1,$000
 dn ___,0,$000
 dn D_6,1,$000
 dn ___,0,$000
 dn ___,0,$000
 dn ___,0,$000
 dn ___,0,$000
 dn ___,0,$000
 dn D_6,1,$000
 dn ___,0,$000
 dn D_6,1,$E02
 dn D_6,1,$E02
 dn D_6,1,$000
 dn ___,0,$E02
 dn D_6,1,$000
 dn ___,0,$E02
 dn D_6,1,$000
 dn ___,0,$000
 dn ___,0,$000
 dn ___,0,$000
 dn D_6,1,$000
 dn ___,0,$000
 dn ___,0,$000
 dn ___,0,$000

P21:
 dn A_3,1,$000
 dn ___,0,$000
 dn ___,0,$000
 dn ___,0,$000
 dn ___,0,$000
 dn ___,0,$000
 dn ___,0,$000
 dn ___,0,$000
 dn ___,0,$000
 dn ___,0,$000
 dn ___,0,$E00
 dn ___,0,$000
 dn A_4,1,$000
 dn ___,0,$000
 dn A_3,1,$000
 dn ___,0,$000
 dn ___,0,$000
 dn ___,0,$000
 dn ___,0,$000
 dn ___,0,$000
 dn E_4,1,$000
 dn ___,0,$000
 dn ___,0,$E00
 dn ___,0,$000
 dn A_4,1,$000
 dn ___,0,$000
 dn ___,0,$43F
 dn ___,0,$43F
 dn G#4,1,$000
 dn ___,0,$000
 dn ___,0,$E00
 dn ___,0,$000
 dn C_4,1,$000
 dn ___,0,$000
 dn ___,0,$000
 dn ___,0,$000
 dn C_5,1,$000
 dn ___,0,$000
 dn ___,0,$E00
 dn ___,0,$000
 dn B_3,1,$000
 dn ___,0,$000
 dn ___,0,$000
 dn ___,0,$000
 dn B_4,1,$000
 dn ___,0,$000
 dn ___,0,$E00
 dn ___,0,$000
 dn G#3,1,$000
 dn ___,0,$000
 dn ___,0,$000
 dn ___,0,$000
 dn E_5,1,$000
 dn ___,0,$000
 dn ___,0,$E00
 dn ___,0,$000
 dn D#5,1,$000
 dn ___,0,$000
 dn ___,0,$000
 dn ___,0,$000
 dn C_5,1,$000
 dn ___,0,$000
 dn ___,0,$E00
 dn ___,0,$000

P22:
 dn D_4,1,$000
 dn ___,0,$000
 dn ___,0,$000
 dn ___,0,$000
 dn D_5,1,$000
 dn ___,0,$000
 dn ___,0,$000
 dn ___,0,$000
 dn A_4,1,$000
 dn ___,0,$000
 dn ___,0,$000
 dn ___,0,$000
 dn ___,0,$000
 dn ___,0,$000
 dn D#5,1,$000
 dn ___,0,$000
 dn ___,0,$000
 dn ___,0,$000
 dn ___,0,$000
 dn ___,0,$000
 dn G#4,1,$000
 dn ___,0,$000
 dn G_4,1,$000
 dn ___,0,$000
 dn F_4,1,$000
 dn ___,0,$000
 dn D_4,1,$000
 dn ___,0,$000
 dn F_4,1,$000
 dn ___,0,$000
 dn G_4,1,$000
 dn ___,0,$000
 dn B_3,1,$000
 dn ___,0,$000
 dn ___,0,$000
 dn ___,0,$000
 dn D_5,1,$000
 dn ___,0,$000
 dn ___,0,$000
 dn ___,0,$000
 dn A_4,1,$000
 dn ___,0,$000
 dn ___,0,$000
 dn ___,0,$000
 dn ___,0,$000
 dn ___,0,$000
 dn G#4,1,$000
 dn ___,0,$000
 dn E_5,1,$000
 dn ___,0,$000
 dn ___,0,$000
 dn ___,0,$000
 dn D_5,1,$000
 dn ___,0,$000
 dn ___,0,$000
 dn ___,0,$000
 dn C_5,1,$000
 dn ___,0,$000
 dn ___,0,$000
 dn ___,0,$000
 dn G#4,1,$000
 dn ___,0,$000
 dn ___,0,$000
 dn ___,0,$000

P23:
 dn G_4,1,$000
 dn ___,0,$000
 dn ___,0,$000
 dn ___,0,$000
 dn G_5,1,$000
 dn ___,0,$000
 dn ___,0,$000
 dn ___,0,$000
 dn G#5,1,$000
 dn ___,0,$000
 dn ___,0,$000
 dn ___,0,$000
 dn ___,0,$000
 dn ___,0,$000
 dn G_5,1,$000
 dn ___,0,$000
 dn ___,0,$000
 dn ___,0,$000
 dn ___,0,$000
 dn ___,0,$000
 dn G_5,1,$000
 dn ___,0,$000
 dn F_5,1,$000
 dn ___,0,$000
 dn E_5,1,$000
 dn ___,0,$000
 dn D#5,1,$000
 dn ___,0,$000
 dn D_5,1,$000
 dn ___,0,$000
 dn C#5,1,$000
 dn ___,0,$000
 dn F#4,1,$000
 dn ___,0,$000
 dn ___,0,$000
 dn ___,0,$000
 dn G_5,1,$000
 dn ___,0,$000
 dn ___,0,$000
 dn ___,0,$000
 dn G#5,1,$000
 dn ___,0,$000
 dn ___,0,$000
 dn ___,0,$000
 dn ___,0,$000
 dn ___,0,$000
 dn G_5,1,$000
 dn ___,0,$000
 dn A_5,1,$000
 dn ___,0,$000
 dn ___,0,$000
 dn ___,0,$000
 dn G#5,1,$000
 dn A_5,1,$000
 dn G#5,1,$000
 dn ___,0,$000
 dn F_5,1,$000
 dn ___,0,$000
 dn ___,0,$000
 dn ___,0,$000
 dn E_5,1,$000
 dn ___,0,$000
 dn ___,0,$000
 dn ___,0,$000

P24:
 dn C_4,1,$000
 dn ___,0,$000
 dn ___,0,$000
 dn ___,0,$000
 dn ___,0,$000
 dn ___,0,$000
 dn ___,0,$000
 dn ___,0,$000
 dn ___,0,$000
 dn ___,0,$000
 dn ___,0,$E00
 dn ___,0,$000
 dn C_5,1,$000
 dn ___,0,$000
 dn C_4,1,$000
 dn ___,0,$000
 dn ___,0,$000
 dn ___,0,$000
 dn ___,0,$000
 dn ___,0,$000
 dn C_5,1,$000
 dn ___,0,$000
 dn ___,0,$E00
 dn ___,0,$000
 dn C_5,1,$000
 dn ___,0,$000
 dn ___,0,$43F
 dn ___,0,$43F
 dn C_4,1,$000
 dn ___,0,$000
 dn ___,0,$E00
 dn ___,0,$000
 dn B_3,1,$000
 dn ___,0,$000
 dn ___,0,$000
 dn ___,0,$000
 dn ___,0,$000
 dn ___,0,$000
 dn ___,0,$000
 dn ___,0,$000
 dn ___,0,$000
 dn ___,0,$000
 dn ___,0,$E00
 dn ___,0,$000
 dn F_4,1,$000
 dn ___,0,$000
 dn ___,0,$E00
 dn ___,0,$000
 dn A_4,1,$000
 dn ___,0,$000
 dn ___,0,$000
 dn ___,0,$000
 dn G#4,1,$000
 dn ___,0,$000
 dn ___,0,$000
 dn ___,0,$000
 dn F_4,1,$000
 dn ___,0,$000
 dn ___,0,$000
 dn ___,0,$000
 dn E_4,1,$000
 dn ___,0,$000
 dn ___,0,$000
 dn ___,0,$000

P25:
 dn D_6,1,$000
 dn ___,0,$000
 dn ___,0,$000
 dn ___,0,$000
 dn ___,0,$000
 dn ___,0,$000
 dn ___,0,$000
 dn ___,0,$000
 dn D_6,1,$000
 dn ___,0,$000
 dn ___,0,$000
 dn ___,0,$000
 dn ___,0,$000
 dn ___,0,$000
 dn D_6,1,$000
 dn ___,0,$000
 dn D_6,1,$000
 dn ___,0,$000
 dn ___,0,$000
 dn ___,0,$000
 dn ___,0,$000
 dn ___,0,$000
 dn ___,0,$000
 dn ___,0,$000
 dn D_6,1,$000
 dn ___,0,$000
 dn ___,0,$000
 dn ___,0,$000
 dn ___,0,$000
 dn ___,0,$000
 dn ___,0,$000
 dn ___,0,$000
 dn D_6,1,$000
 dn ___,0,$000
 dn ___,0,$000
 dn ___,0,$000
 dn ___,0,$000
 dn ___,0,$000
 dn ___,0,$000
 dn ___,0,$000
 dn D_6,1,$000
 dn ___,0,$000
 dn ___,0,$000
 dn ___,0,$000
 dn D_6,1,$000
 dn ___,0,$000
 dn ___,0,$000
 dn ___,0,$000
 dn D_6,1,$000
 dn ___,0,$000
 dn ___,0,$000
 dn ___,0,$000
 dn D_6,1,$000
 dn D_6,1,$000
 dn D_6,1,$000
 dn ___,0,$000
 dn D_6,1,$000
 dn ___,0,$000
 dn D_6,1,$000
 dn D_6,1,$000
 dn D_6,1,$000
 dn ___,0,$000
 dn D_6,1,$000
 dn ___,0,$000

P51:
 dn C_4,3,$000
 dn ___,0,$000
 dn ___,0,$000
 dn ___,0,$000
 dn ___,0,$000
 dn ___,0,$000
 dn D_4,3,$000
 dn ___,0,$000
 dn ___,0,$000
 dn ___,0,$000
 dn ___,0,$000
 dn ___,0,$000
 dn B_3,3,$000
 dn ___,0,$000
 dn ___,0,$000
 dn ___,0,$000
 dn ___,0,$000
 dn ___,0,$000
 dn ___,0,$000
 dn ___,0,$000
 dn E_3,3,$000
 dn ___,0,$000
 dn ___,0,$000
 dn ___,0,$000
 dn ___,0,$000
 dn ___,0,$000
 dn ___,0,$000
 dn ___,0,$000
 dn ___,0,$000
 dn ___,0,$000
 dn ___,0,$000
 dn ___,0,$000
 dn C_4,3,$000
 dn ___,0,$000
 dn ___,0,$000
 dn ___,0,$000
 dn ___,0,$000
 dn ___,0,$000
 dn D_4,3,$000
 dn ___,0,$000
 dn ___,0,$000
 dn ___,0,$000
 dn ___,0,$000
 dn ___,0,$000
 dn D_4,3,$000
 dn ___,0,$000
 dn ___,0,$000
 dn ___,0,$000
 dn ___,0,$000
 dn ___,0,$000
 dn ___,0,$000
 dn ___,0,$000
 dn C_4,3,$000
 dn ___,0,$000
 dn ___,0,$000
 dn ___,0,$000
 dn ___,0,$000
 dn ___,0,$000
 dn ___,0,$000
 dn ___,0,$000
 dn ___,0,$000
 dn ___,0,$000
 dn ___,0,$000
 dn ___,0,$000

P52:
 dn A_4,2,$000
 dn ___,0,$000
 dn ___,0,$000
 dn ___,0,$000
 dn ___,0,$000
 dn ___,0,$000
 dn E_5,2,$000
 dn ___,0,$000
 dn ___,0,$000
 dn ___,0,$000
 dn ___,0,$000
 dn ___,0,$000
 dn D_5,2,$000
 dn ___,0,$000
 dn ___,0,$000
 dn ___,0,$206
 dn ___,0,$106
 dn ___,0,$206
 dn ___,0,$106
 dn ___,0,$206
 dn G#4,2,$000
 dn ___,0,$000
 dn ___,0,$000
 dn ___,0,$000
 dn ___,0,$000
 dn ___,0,$206
 dn ___,0,$106
 dn ___,0,$206
 dn ___,0,$106
 dn ___,0,$000
 dn ___,0,$000
 dn ___,0,$000
 dn A_4,2,$000
 dn ___,0,$000
 dn ___,0,$000
 dn ___,0,$000
 dn ___,0,$000
 dn ___,0,$000
 dn E_5,2,$000
 dn ___,0,$000
 dn ___,0,$000
 dn ___,0,$000
 dn ___,0,$000
 dn ___,0,$000
 dn F_5,2,$000
 dn ___,0,$000
 dn ___,0,$000
 dn ___,0,$000
 dn ___,0,$000
 dn ___,0,$000
 dn ___,0,$000
 dn ___,0,$000
 dn G#4,2,$000
 dn ___,0,$000
 dn ___,0,$000
 dn ___,0,$000
 dn ___,0,$206
 dn ___,0,$106
 dn ___,0,$206
 dn ___,0,$106
 dn ___,0,$206
 dn ___,0,$106
 dn ___,0,$206
 dn ___,0,$106

P53:
 dn A_3,1,$000
 dn ___,0,$000
 dn ___,0,$000
 dn ___,0,$000
 dn ___,0,$000
 dn ___,0,$000
 dn E_4,1,$000
 dn ___,0,$000
 dn ___,0,$E00
 dn ___,0,$000
 dn ___,0,$000
 dn ___,0,$000
 dn G#4,1,$000
 dn ___,0,$000
 dn ___,0,$000
 dn ___,0,$000
 dn ___,0,$000
 dn ___,0,$000
 dn ___,0,$000
 dn ___,0,$000
 dn F_3,1,$000
 dn ___,0,$000
 dn ___,0,$000
 dn ___,0,$000
 dn G#3,1,$000
 dn ___,0,$000
 dn ___,0,$000
 dn ___,0,$000
 dn ___,0,$000
 dn ___,0,$000
 dn ___,0,$E00
 dn ___,0,$000
 dn C_4,1,$000
 dn ___,0,$000
 dn ___,0,$000
 dn ___,0,$000
 dn ___,0,$000
 dn ___,0,$000
 dn E_4,1,$000
 dn ___,0,$000
 dn ___,0,$E00
 dn ___,0,$000
 dn ___,0,$000
 dn ___,0,$000
 dn B_4,1,$000
 dn ___,0,$000
 dn ___,0,$000
 dn ___,0,$000
 dn ___,0,$000
 dn ___,0,$000
 dn ___,0,$000
 dn ___,0,$000
 dn F_3,1,$000
 dn ___,0,$000
 dn ___,0,$000
 dn ___,0,$000
 dn G#3,1,$000
 dn ___,0,$000
 dn ___,0,$000
 dn ___,0,$000
 dn ___,0,$000
 dn ___,0,$000
 dn ___,0,$000
 dn ___,0,$000

P54:
 dn D_6,1,$000
 dn ___,0,$000
 dn ___,0,$000
 dn ___,0,$000
 dn ___,0,$000
 dn ___,0,$000
 dn ___,0,$000
 dn ___,0,$000
 dn D_6,1,$000
 dn ___,0,$000
 dn ___,0,$000
 dn ___,0,$000
 dn ___,0,$000
 dn ___,0,$000
 dn ___,0,$000
 dn ___,0,$000
 dn D_6,1,$000
 dn ___,0,$000
 dn ___,0,$000
 dn ___,0,$000
 dn ___,0,$000
 dn ___,0,$000
 dn ___,0,$000
 dn ___,0,$000
 dn D_6,1,$000
 dn ___,0,$000
 dn D_6,1,$000
 dn ___,0,$000
 dn ___,0,$000
 dn ___,0,$000
 dn D_6,1,$000
 dn ___,0,$000
 dn D_6,1,$000
 dn ___,0,$000
 dn ___,0,$000
 dn ___,0,$000
 dn ___,0,$000
 dn ___,0,$000
 dn ___,0,$000
 dn ___,0,$000
 dn D_6,1,$000
 dn ___,0,$000
 dn D_6,1,$000
 dn ___,0,$000
 dn ___,0,$000
 dn ___,0,$000
 dn ___,0,$000
 dn ___,0,$000
 dn D_6,1,$000
 dn ___,0,$000
 dn ___,0,$000
 dn ___,0,$000
 dn ___,0,$000
 dn ___,0,$000
 dn ___,0,$000
 dn ___,0,$000
 dn D_6,1,$000
 dn ___,0,$000
 dn ___,0,$000
 dn ___,0,$000
 dn D_6,1,$000
 dn ___,0,$000
 dn ___,0,$000
 dn ___,0,$000

P55:
 dn C_4,3,$000
 dn ___,0,$000
 dn ___,0,$000
 dn ___,0,$000
 dn ___,0,$000
 dn ___,0,$000
 dn D_4,3,$000
 dn ___,0,$000
 dn ___,0,$000
 dn ___,0,$000
 dn ___,0,$000
 dn ___,0,$000
 dn B_3,3,$000
 dn ___,0,$000
 dn ___,0,$000
 dn ___,0,$000
 dn ___,0,$000
 dn ___,0,$000
 dn ___,0,$000
 dn ___,0,$000
 dn E_3,3,$000
 dn ___,0,$000
 dn ___,0,$000
 dn ___,0,$000
 dn ___,0,$000
 dn ___,0,$000
 dn ___,0,$000
 dn ___,0,$000
 dn ___,0,$000
 dn ___,0,$000
 dn ___,0,$000
 dn ___,0,$000
 dn A_6,3,$000
 dn ___,0,$000
 dn ___,0,$000
 dn ___,0,$000
 dn ___,0,$000
 dn ___,0,$000
 dn ___,0,$000
 dn ___,0,$000
 dn ___,0,$000
 dn ___,0,$000
 dn ___,0,$000
 dn ___,0,$000
 dn B_6,3,$000
 dn ___,0,$000
 dn A_6,3,$000
 dn ___,0,$000
 dn G#6,3,$000
 dn ___,0,$000
 dn ___,0,$000
 dn ___,0,$000
 dn ___,0,$000
 dn ___,0,$000
 dn ___,0,$000
 dn ___,0,$000
 dn ___,0,$000
 dn ___,0,$000
 dn ___,0,$000
 dn ___,0,$000
 dn ___,0,$000
 dn ___,0,$000
 dn ___,0,$000
 dn ___,0,$000

P56:
 dn A_4,2,$000
 dn ___,0,$000
 dn ___,0,$000
 dn ___,0,$000
 dn ___,0,$000
 dn ___,0,$000
 dn E_5,2,$000
 dn ___,0,$000
 dn ___,0,$000
 dn ___,0,$000
 dn ___,0,$000
 dn ___,0,$000
 dn D_5,2,$000
 dn ___,0,$000
 dn ___,0,$000
 dn ___,0,$000
 dn ___,0,$000
 dn ___,0,$000
 dn ___,0,$000
 dn ___,0,$000
 dn G#4,2,$000
 dn ___,0,$000
 dn ___,0,$206
 dn ___,0,$106
 dn ___,0,$206
 dn ___,0,$106
 dn ___,0,$206
 dn ___,0,$106
 dn ___,0,$206
 dn ___,0,$106
 dn ___,0,$206
 dn ___,0,$106
 dn F_4,2,$000
 dn ___,0,$000
 dn ___,0,$000
 dn ___,0,$000
 dn ___,0,$000
 dn ___,0,$000
 dn ___,0,$000
 dn ___,0,$000
 dn ___,0,$000
 dn ___,0,$000
 dn ___,0,$000
 dn ___,0,$000
 dn G#4,2,$000
 dn ___,0,$000
 dn F_4,2,$000
 dn ___,0,$000
 dn E_4,2,$000
 dn ___,0,$000
 dn ___,0,$000
 dn ___,0,$000
 dn ___,0,$000
 dn ___,0,$000
 dn ___,0,$206
 dn ___,0,$106
 dn ___,0,$206
 dn ___,0,$106
 dn ___,0,$206
 dn ___,0,$106
 dn ___,0,$206
 dn ___,0,$106
 dn ___,0,$206
 dn ___,0,$106

P57:
 dn A_3,1,$000
 dn ___,0,$000
 dn ___,0,$000
 dn ___,0,$000
 dn ___,0,$000
 dn ___,0,$000
 dn E_4,1,$000
 dn ___,0,$000
 dn ___,0,$E00
 dn ___,0,$000
 dn ___,0,$000
 dn ___,0,$000
 dn G#4,1,$000
 dn ___,0,$000
 dn ___,0,$000
 dn ___,0,$000
 dn ___,0,$000
 dn ___,0,$000
 dn ___,0,$000
 dn ___,0,$000
 dn G#3,1,$000
 dn A_3,1,$000
 dn G#3,1,$000
 dn ___,0,$000
 dn F_3,1,$000
 dn ___,0,$000
 dn ___,0,$000
 dn ___,0,$000
 dn E_3,1,$000
 dn ___,0,$000
 dn ___,0,$000
 dn ___,0,$000
 dn A_3,1,$000
 dn ___,0,$000
 dn ___,0,$000
 dn ___,0,$000
 dn ___,0,$000
 dn ___,0,$000
 dn ___,0,$000
 dn ___,0,$000
 dn ___,0,$000
 dn ___,0,$000
 dn ___,0,$000
 dn ___,0,$000
 dn ___,0,$000
 dn ___,0,$000
 dn ___,0,$000
 dn ___,0,$000
 dn G#3,1,$000
 dn ___,0,$000
 dn ___,0,$000
 dn ___,0,$000
 dn ___,0,$000
 dn ___,0,$000
 dn ___,0,$000
 dn ___,0,$000
 dn ___,0,$000
 dn ___,0,$000
 dn ___,0,$000
 dn ___,0,$000
 dn ___,0,$000
 dn ___,0,$000
 dn ___,0,$000
 dn ___,0,$000

P58:
 dn D_6,1,$000
 dn ___,0,$000
 dn ___,0,$000
 dn ___,0,$000
 dn ___,0,$000
 dn ___,0,$000
 dn ___,0,$000
 dn ___,0,$000
 dn D_6,1,$000
 dn ___,0,$000
 dn D_6,1,$000
 dn ___,0,$000
 dn ___,0,$000
 dn ___,0,$000
 dn D_6,1,$000
 dn ___,0,$000
 dn D_6,1,$000
 dn ___,0,$000
 dn ___,0,$000
 dn ___,0,$000
 dn ___,0,$000
 dn ___,0,$000
 dn ___,0,$000
 dn ___,0,$000
 dn D_6,1,$000
 dn ___,0,$000
 dn D_6,1,$000
 dn ___,0,$000
 dn ___,0,$000
 dn ___,0,$000
 dn D_6,1,$000
 dn ___,0,$000
 dn D_6,1,$000
 dn ___,0,$000
 dn ___,0,$000
 dn ___,0,$000
 dn ___,0,$000
 dn ___,0,$000
 dn ___,0,$000
 dn ___,0,$000
 dn D_6,1,$000
 dn ___,0,$000
 dn ___,0,$000
 dn ___,0,$000
 dn ___,0,$000
 dn ___,0,$000
 dn ___,0,$000
 dn ___,0,$000
 dn D_6,1,$000
 dn ___,0,$000
 dn ___,0,$000
 dn ___,0,$000
 dn ___,0,$000
 dn ___,0,$000
 dn ___,0,$000
 dn ___,0,$000
 dn D_6,1,$000
 dn ___,0,$000
 dn ___,0,$000
 dn ___,0,$000
 dn D_6,1,$000
 dn ___,0,$000
 dn D_6,1,$000
 dn ___,0,$000

P63:
 dn C_4,3,$000
 dn ___,0,$000
 dn ___,0,$000
 dn ___,0,$000
 dn ___,0,$000
 dn ___,0,$000
 dn D_4,3,$000
 dn ___,0,$000
 dn ___,0,$000
 dn ___,0,$000
 dn ___,0,$000
 dn ___,0,$000
 dn B_3,3,$000
 dn ___,0,$000
 dn ___,0,$000
 dn ___,0,$000
 dn ___,0,$000
 dn ___,0,$000
 dn ___,0,$000
 dn ___,0,$000
 dn E_3,3,$000
 dn ___,0,$000
 dn ___,0,$000
 dn ___,0,$000
 dn ___,0,$000
 dn ___,0,$000
 dn ___,0,$000
 dn ___,0,$000
 dn ___,0,$000
 dn ___,0,$000
 dn ___,0,$000
 dn ___,0,$000
 dn C_6,3,$000
 dn ___,0,$000
 dn ___,0,$000
 dn ___,0,$000
 dn ___,0,$000
 dn ___,0,$000
 dn ___,0,$000
 dn ___,0,$000
 dn ___,0,$000
 dn ___,0,$000
 dn ___,0,$000
 dn ___,0,$000
 dn ___,0,$000
 dn ___,0,$000
 dn ___,0,$000
 dn ___,0,$000
 dn ___,0,$000
 dn ___,0,$000
 dn ___,0,$000
 dn ___,0,$000
 dn ___,0,$000
 dn ___,0,$000
 dn ___,0,$000
 dn ___,0,$000
 dn ___,0,$000
 dn ___,0,$000
 dn ___,0,$000
 dn ___,0,$000
 dn ___,0,$000
 dn ___,0,$000
 dn ___,0,$000
 dn ___,0,$000

P64:
 dn A_4,2,$000
 dn ___,0,$000
 dn ___,0,$000
 dn ___,0,$000
 dn ___,0,$000
 dn ___,0,$000
 dn E_5,2,$000
 dn ___,0,$000
 dn ___,0,$000
 dn ___,0,$000
 dn ___,0,$000
 dn ___,0,$000
 dn D_5,2,$000
 dn ___,0,$000
 dn ___,0,$000
 dn ___,0,$000
 dn ___,0,$000
 dn ___,0,$000
 dn ___,0,$000
 dn ___,0,$000
 dn G#4,2,$000
 dn ___,0,$000
 dn ___,0,$000
 dn ___,0,$000
 dn ___,0,$000
 dn ___,0,$000
 dn ___,0,$000
 dn ___,0,$000
 dn ___,0,$000
 dn ___,0,$000
 dn ___,0,$000
 dn ___,0,$000
 dn E_5,2,$000
 dn ___,0,$000
 dn ___,0,$000
 dn ___,0,$000
 dn ___,0,$000
 dn ___,0,$000
 dn ___,0,$000
 dn ___,0,$206
 dn ___,0,$106
 dn ___,0,$206
 dn ___,0,$106
 dn ___,0,$206
 dn ___,0,$106
 dn ___,0,$206
 dn ___,0,$106
 dn ___,0,$206
 dn ___,0,$106
 dn ___,0,$206
 dn ___,0,$106
 dn ___,0,$206
 dn ___,0,$106
 dn ___,0,$206
 dn ___,0,$106
 dn ___,0,$206
 dn ___,0,$106
 dn ___,0,$206
 dn ___,0,$106
 dn ___,0,$206
 dn ___,0,$106
 dn ___,0,$206
 dn ___,0,$106
 dn ___,0,$206

P65:
 dn A_3,1,$000
 dn ___,0,$000
 dn ___,0,$000
 dn ___,0,$000
 dn ___,0,$000
 dn ___,0,$000
 dn E_4,1,$000
 dn ___,0,$000
 dn ___,0,$E00
 dn ___,0,$000
 dn ___,0,$000
 dn ___,0,$000
 dn G#4,1,$000
 dn ___,0,$000
 dn ___,0,$000
 dn ___,0,$000
 dn ___,0,$000
 dn ___,0,$000
 dn ___,0,$000
 dn ___,0,$000
 dn F_3,1,$000
 dn ___,0,$000
 dn ___,0,$000
 dn ___,0,$000
 dn G#3,1,$000
 dn ___,0,$000
 dn ___,0,$000
 dn ___,0,$000
 dn ___,0,$000
 dn ___,0,$000
 dn ___,0,$000
 dn ___,0,$000
 dn A_3,1,$000
 dn ___,0,$000
 dn ___,0,$000
 dn ___,0,$000
 dn ___,0,$000
 dn ___,0,$000
 dn ___,0,$000
 dn ___,0,$000
 dn ___,0,$000
 dn ___,0,$000
 dn ___,0,$000
 dn ___,0,$000
 dn ___,0,$000
 dn ___,0,$000
 dn ___,0,$000
 dn ___,0,$000
 dn ___,0,$000
 dn ___,0,$000
 dn ___,0,$000
 dn ___,0,$000
 dn ___,0,$000
 dn ___,0,$000
 dn ___,0,$000
 dn ___,0,$000
 dn ___,0,$000
 dn ___,0,$000
 dn ___,0,$000
 dn ___,0,$000
 dn ___,0,$000
 dn ___,0,$000
 dn ___,0,$000
 dn ___,0,$000

P66:
 dn D_6,1,$000
 dn ___,0,$000
 dn ___,0,$000
 dn ___,0,$000
 dn ___,0,$000
 dn ___,0,$000
 dn ___,0,$000
 dn ___,0,$000
 dn D_6,1,$000
 dn ___,0,$000
 dn ___,0,$000
 dn ___,0,$000
 dn ___,0,$000
 dn ___,0,$000
 dn ___,0,$000
 dn ___,0,$000
 dn D_6,1,$000
 dn ___,0,$000
 dn ___,0,$000
 dn ___,0,$000
 dn ___,0,$000
 dn ___,0,$000
 dn ___,0,$000
 dn ___,0,$000
 dn D_6,1,$000
 dn ___,0,$000
 dn ___,0,$000
 dn ___,0,$000
 dn ___,0,$000
 dn ___,0,$000
 dn ___,0,$000
 dn ___,0,$000
 dn D_6,1,$000
 dn ___,0,$000
 dn ___,0,$000
 dn ___,0,$000
 dn ___,0,$000
 dn ___,0,$000
 dn ___,0,$000
 dn ___,0,$000
 dn ___,0,$000
 dn ___,0,$000
 dn ___,0,$000
 dn ___,0,$000
 dn D_6,1,$000
 dn ___,0,$000
 dn ___,0,$000
 dn ___,0,$000
 dn D_6,1,$000
 dn ___,0,$000
 dn ___,0,$000
 dn ___,0,$000
 dn ___,0,$000
 dn ___,0,$000
 dn ___,0,$000
 dn ___,0,$000
 dn D_6,1,$000
 dn ___,0,$000
 dn ___,0,$000
 dn ___,0,$000
 dn ___,0,$000
 dn ___,0,$000
 dn ___,0,$000
 dn ___,0,$B02

itSquareSP5:
 dn ___,0,$000
 dn ___,0,$000
 dn ___,0,$980
 dn ___,0,$000
 dn ___,0,$000
 dn ___,0,$000
 dn ___,0,$000
 dn ___,0,$000
 dn ___,0,$000
 dn ___,0,$000
 dn ___,0,$000
 dn ___,0,$000
 dn ___,0,$000
 dn ___,0,$000
 dn ___,0,$000
 dn ___,0,$000
 dn ___,0,$000
 dn ___,0,$000
 dn ___,0,$000
 dn ___,0,$000
 dn ___,0,$000
 dn ___,0,$000
 dn ___,0,$000
 dn ___,0,$000
 dn ___,0,$000
 dn ___,0,$000
 dn ___,0,$000
 dn ___,0,$000
 dn ___,0,$000
 dn ___,0,$000
 dn ___,0,$000
 dn ___,31,$000

itWaveSP1:
 dn ___,0,$000
 dn ___,0,$000
 dn ___,0,$900
 dn ___,0,$000
 dn ___,0,$000
 dn ___,0,$000
 dn ___,0,$000
 dn ___,0,$000
 dn ___,0,$000
 dn ___,0,$000
 dn ___,0,$000
 dn ___,0,$000
 dn ___,0,$000
 dn ___,0,$000
 dn ___,0,$000
 dn ___,0,$000
 dn ___,0,$000
 dn ___,0,$000
 dn ___,0,$000
 dn ___,0,$000
 dn ___,0,$000
 dn ___,0,$000
 dn ___,0,$000
 dn ___,0,$000
 dn ___,0,$000
 dn ___,0,$000
 dn ___,0,$000
 dn ___,0,$000
 dn ___,0,$000
 dn ___,0,$000
 dn ___,0,$000
 dn ___,31,$000

itWaveSP2:
 dn ___,0,$000
 dn ___,0,$000
 dn ___,0,$903
 dn ___,0,$C0F
 dn ___,0,$000
 dn ___,0,$000
 dn ___,0,$000
 dn ___,0,$000
 dn ___,0,$000
 dn ___,0,$000
 dn ___,0,$000
 dn ___,0,$000
 dn ___,0,$000
 dn ___,0,$000
 dn ___,0,$000
 dn ___,0,$000
 dn ___,0,$000
 dn ___,0,$000
 dn ___,0,$000
 dn ___,0,$000
 dn ___,0,$C08
 dn ___,0,$000
 dn ___,0,$000
 dn ___,0,$000
 dn ___,0,$000
 dn ___,0,$000
 dn ___,0,$000
 dn ___,0,$000
 dn ___,0,$000
 dn ___,0,$000
 dn ___,0,$000
 dn ___,31,$000

itWaveSP3:
 dn ___,0,$000
 dn ___,0,$000
 dn ___,0,$000
 dn ___,0,$000
 dn ___,0,$000
 dn ___,0,$000
 dn ___,0,$C04
 dn ___,0,$000
 dn ___,0,$000
 dn ___,0,$000
 dn ___,0,$000
 dn ___,0,$000
 dn ___,0,$000
 dn ___,0,$000
 dn ___,0,$000
 dn ___,0,$000
 dn ___,0,$000
 dn ___,0,$000
 dn ___,0,$000
 dn ___,0,$000
 dn ___,0,$000
 dn ___,0,$000
 dn ___,0,$000
 dn ___,0,$000
 dn ___,0,$000
 dn ___,0,$000
 dn ___,0,$000
 dn ___,0,$000
 dn ___,0,$000
 dn ___,0,$000
 dn ___,0,$C00
 dn ___,31,$000

itNoiseSP1:
 dn 40,0,$000
 dn 38,0,$000
 dn 33,0,$000
 dn ___,0,$000
 dn ___,0,$000
 dn ___,0,$000
 dn ___,0,$000
 dn ___,0,$000
 dn ___,0,$000
 dn ___,0,$000
 dn ___,0,$000
 dn ___,0,$000
 dn ___,0,$000
 dn ___,0,$000
 dn ___,0,$000
 dn ___,0,$000
 dn ___,0,$000
 dn ___,0,$000
 dn ___,0,$000
 dn ___,0,$000
 dn ___,0,$000
 dn ___,0,$000
 dn ___,0,$000
 dn ___,0,$000
 dn ___,0,$000
 dn ___,0,$000
 dn ___,0,$000
 dn ___,0,$000
 dn ___,0,$000
 dn ___,0,$000
 dn ___,0,$000
 dn ___,31,$000

duty_instruments:
itSquareinst1:
db 8
db 64
db 163
dw 0
db 128

itSquareinst2:
db 8
db 64
db 215
dw 0
db 128

itSquareinst3:
db 8
db 64
db 134
dw 0
db 128

itSquareinst4:
db 8
db 64
db 183
dw 0
db 128

itSquareinst5:
db 8
db 64
db 151
dw itSquareSP5
db 128

itSquareinst6:
db 8
db 0
db 97
dw 0
db 128

itSquareinst7:
db 8
db 128
db 241
dw 0
db 128

itSquareinst8:
db 8
db 192
db 241
dw 0
db 128

itSquareinst9:
db 8
db 128
db 240
dw 0
db 128

itSquareinst10:
db 8
db 128
db 240
dw 0
db 128

itSquareinst11:
db 8
db 128
db 240
dw 0
db 128

itSquareinst12:
db 8
db 128
db 240
dw 0
db 128

itSquareinst13:
db 8
db 128
db 240
dw 0
db 128

itSquareinst14:
db 8
db 128
db 240
dw 0
db 128

itSquareinst15:
db 8
db 128
db 240
dw 0
db 128



wave_instruments:
itWaveinst1:
db 0
db 32
db 1
dw itWaveSP1
db 128

itWaveinst2:
db 0
db 64
db 2
dw itWaveSP2
db 128

itWaveinst3:
db 0
db 64
db 4
dw itWaveSP3
db 128

itWaveinst4:
db 0
db 32
db 3
dw 0
db 128

itWaveinst5:
db 0
db 32
db 4
dw 0
db 128

itWaveinst6:
db 0
db 32
db 5
dw 0
db 128

itWaveinst7:
db 0
db 32
db 6
dw 0
db 128

itWaveinst8:
db 0
db 32
db 7
dw 0
db 128

itWaveinst9:
db 0
db 32
db 8
dw 0
db 128

itWaveinst10:
db 0
db 32
db 9
dw 0
db 128

itWaveinst11:
db 0
db 32
db 10
dw 0
db 128

itWaveinst12:
db 0
db 32
db 11
dw 0
db 128

itWaveinst13:
db 0
db 32
db 12
dw 0
db 128

itWaveinst14:
db 0
db 32
db 13
dw 0
db 128

itWaveinst15:
db 0
db 32
db 14
dw 0
db 128



noise_instruments:
itNoiseinst1:
db 161
dw itNoiseSP1
db 0
ds 2

itNoiseinst2:
db 240
dw 0
db 0
ds 2

itNoiseinst3:
db 240
dw 0
db 0
ds 2

itNoiseinst4:
db 240
dw 0
db 0
ds 2

itNoiseinst5:
db 240
dw 0
db 0
ds 2

itNoiseinst6:
db 240
dw 0
db 0
ds 2

itNoiseinst7:
db 240
dw 0
db 0
ds 2

itNoiseinst8:
db 240
dw 0
db 0
ds 2

itNoiseinst9:
db 240
dw 0
db 0
ds 2

itNoiseinst10:
db 240
dw 0
db 0
ds 2

itNoiseinst11:
db 240
dw 0
db 0
ds 2

itNoiseinst12:
db 240
dw 0
db 0
ds 2

itNoiseinst13:
db 240
dw 0
db 0
ds 2

itNoiseinst14:
db 240
dw 0
db 0
ds 2

itNoiseinst15:
db 240
dw 0
db 0
ds 2



routines:
__hUGE_Routine_0:

__end_hUGE_Routine_0:
ret

__hUGE_Routine_1:

__end_hUGE_Routine_1:
ret

__hUGE_Routine_2:

__end_hUGE_Routine_2:
ret

__hUGE_Routine_3:

__end_hUGE_Routine_3:
ret

__hUGE_Routine_4:

__end_hUGE_Routine_4:
ret

__hUGE_Routine_5:

__end_hUGE_Routine_5:
ret

__hUGE_Routine_6:

__end_hUGE_Routine_6:
ret

__hUGE_Routine_7:

__end_hUGE_Routine_7:
ret

__hUGE_Routine_8:

__end_hUGE_Routine_8:
ret

__hUGE_Routine_9:

__end_hUGE_Routine_9:
ret

__hUGE_Routine_10:

__end_hUGE_Routine_10:
ret

__hUGE_Routine_11:

__end_hUGE_Routine_11:
ret

__hUGE_Routine_12:

__end_hUGE_Routine_12:
ret

__hUGE_Routine_13:

__end_hUGE_Routine_13:
ret

__hUGE_Routine_14:

__end_hUGE_Routine_14:
ret

__hUGE_Routine_15:

__end_hUGE_Routine_15:
ret

waves:
wave0: db 33,16,0,0,0,0,20,141,253,132,33,0,0,0,0,17
wave1: db 135,67,17,0,0,11,239,230,68,51,33,16,17,34,34,38
wave2: db 1,74,171,191,67,32,19,85,115,87,250,146,54,123,170,203
wave3: db 251,219,186,171,183,84,32,70,137,207,254,117,4,71,138,189
wave4: db 151,137,157,202,205,154,191,237,239,166,83,32,0,0,137,186
wave5: db 254,220,186,152,118,84,50,16,18,52,86,120,154,188,222,255
wave6: db 122,205,219,117,33,19,104,189,220,151,65,1,71,156,221,184
wave7: db 15,15,15,15,15,15,15,15,15,15,15,15,15,15,15,15
wave8: db 254,252,250,248,246,244,242,240,242,244,246,248,250,252,254,255
wave9: db 254,221,204,187,170,153,136,119,138,189,241,36,87,138,189,238
wave10: db 132,17,97,237,87,71,90,173,206,163,23,121,221,32,3,71
wave11: db 57,45,135,80,167,21,182,25,238,182,16,120,133,174,161,56
wave12: db 230,137,9,28,146,35,8,12,139,146,80,229,204,234,114,168
wave13: db 87,124,106,142,69,177,32,205,198,116,80,181,12,64,85,0
wave14: db 72,36,129,92,100,217,49,217,98,181,213,197,141,219,236,55
wave15: db 194,213,224,147,165,83,180,55,25,61,193,44,160,40,25,202

